<svg width="17" height="18" viewBox="0 0 17 18" fill="none" xmlns="http://www.w3.org/2000/svg">
<circle cx="8.47025" cy="8.61967" r="8.439" fill="url(#paint0_linear_30_7919)"/>
<path fill-rule="evenodd" clip-rule="evenodd" d="M10.6671 5.38287C10.7559 5.29414 10.8762 5.24429 11.0017 5.24429C11.0638 5.24429 11.1254 5.25653 11.1828 5.28031C11.2402 5.30408 11.2923 5.33894 11.3363 5.38287C11.3802 5.42681 11.415 5.47896 11.4388 5.53637C11.4626 5.59377 11.4748 5.6553 11.4748 5.71743C11.4748 5.77957 11.4626 5.84109 11.4388 5.8985C11.415 5.9559 11.3802 6.00806 11.3363 6.05199L6.14453 11.2437L5.25236 11.4668L5.4754 10.5746L10.6671 5.38287ZM11.0017 4.40039C10.6524 4.40039 10.3174 4.53915 10.0704 4.78614L4.79603 10.0605C4.74196 10.1146 4.70359 10.1824 4.68505 10.2565L4.2631 11.9443C4.22715 12.0881 4.26928 12.2402 4.37408 12.345C4.47889 12.4499 4.631 12.492 4.77479 12.456L6.46259 12.0341C6.53678 12.0155 6.60454 11.9772 6.65861 11.9231L11.933 6.64872C12.0553 6.52642 12.1523 6.38123 12.2185 6.22144C12.2847 6.06165 12.3187 5.89039 12.3187 5.71743C12.3187 5.54448 12.2847 5.37321 12.2185 5.21342C12.1523 5.05363 12.0553 4.90844 11.933 4.78614C11.8107 4.66384 11.6655 4.56683 11.5057 4.50064C11.3459 4.43446 11.1747 4.40039 11.0017 4.40039ZM8.47025 11.6249C8.23721 11.6249 8.0483 11.8138 8.0483 12.0468C8.0483 12.2798 8.23721 12.4688 8.47025 12.4688H12.2678C12.5008 12.4688 12.6897 12.2798 12.6897 12.0468C12.6897 11.8138 12.5008 11.6249 12.2678 11.6249H8.47025Z" fill="white"/>
<defs>
<linearGradient id="paint0_linear_30_7919" x1="2.7381" y1="2.25061" x2="13.5655" y2="15.4664" gradientUnits="userSpaceOnUse">
<stop stop-color="#DFBA00"/>
<stop offset="1" stop-color="#E37B00"/>
</linearGradient>
</defs>
</svg>
