<svg width="25" height="25" viewBox="0 0 25 25" fill="none" xmlns="http://www.w3.org/2000/svg">
<path fill-rule="evenodd" clip-rule="evenodd" d="M2.86612 2.86612C3.10054 2.6317 3.41848 2.5 3.75 2.5H8.75C9.44036 2.5 10 1.94036 10 1.25C10 0.559644 9.44036 0 8.75 0H3.75C2.75544 0 1.80161 0.395088 1.09835 1.09835C0.395088 1.80161 0 2.75544 0 3.75V21.25C0 22.2446 0.395088 23.1984 1.09835 23.9017C1.80161 24.6049 2.75544 25 3.75 25H8.75C9.44036 25 10 24.4404 10 23.75C10 23.0596 9.44036 22.5 8.75 22.5H3.75C3.41848 22.5 3.10054 22.3683 2.86612 22.1339C2.6317 21.8995 2.5 21.5815 2.5 21.25V3.75C2.5 3.41848 2.6317 3.10054 2.86612 2.86612ZM16.6161 5.36612C17.1043 4.87796 17.8957 4.87796 18.3839 5.36612L24.6327 11.6149L24.642 11.6243C24.7569 11.7413 24.8441 11.8752 24.9037 12.018C24.9657 12.1663 25 12.3292 25 12.5C25 12.6708 24.9657 12.8337 24.9037 12.982C24.8441 13.1248 24.7569 13.2587 24.642 13.3757L24.6327 13.3851L18.3839 19.6339C17.8957 20.122 17.1043 20.122 16.6161 19.6339C16.128 19.1457 16.128 18.3543 16.6161 17.8661L20.7322 13.75H8.75C8.05964 13.75 7.5 13.1904 7.5 12.5C7.5 11.8096 8.05964 11.25 8.75 11.25H20.7322L16.6161 7.13388C16.128 6.64573 16.128 5.85427 16.6161 5.36612Z" fill="white"/>
</svg>
