<svg width="73" height="73" viewBox="0 0 73 73" fill="none" xmlns="http://www.w3.org/2000/svg">
<g opacity="0.7">
<path fill-rule="evenodd" clip-rule="evenodd" d="M70.2149 9.10449C71.6329 9.10449 72.7825 10.2541 72.7825 11.6721V27.078C72.7825 28.4961 71.6329 29.6457 70.2149 29.6457H54.809C53.3909 29.6457 52.2413 28.4961 52.2413 27.078C52.2413 25.6599 53.3909 24.5104 54.809 24.5104H67.6472V11.6721C67.6472 10.2541 68.7968 9.10449 70.2149 9.10449Z" fill="white"/>
<path fill-rule="evenodd" clip-rule="evenodd" d="M40.8719 8.36172C34.6988 7.48613 28.4084 8.64057 22.9485 11.6511C17.4887 14.6616 13.1552 19.3651 10.6011 25.0528C8.04693 30.7404 7.41055 37.1042 8.78783 43.185C10.1651 49.2658 13.4814 54.7343 18.237 58.7663C22.9926 62.7984 28.9299 65.1756 35.1541 65.5397C41.3783 65.9038 47.5522 64.2351 52.7455 60.7851C57.9388 57.3351 61.8702 52.2906 63.9471 46.4119C64.6084 44.5401 66.6619 43.5587 68.5337 44.22C70.4055 44.8813 71.3868 46.9348 70.7255 48.8066C68.1293 56.1551 63.2152 62.4606 56.7235 66.7732C50.2319 71.0857 42.5145 73.1716 34.7342 72.7164C26.954 72.2613 19.5324 69.2898 13.5879 64.2497C7.64341 59.2096 3.49802 52.3741 1.77643 44.773C0.0548261 37.172 0.850289 29.2174 4.04295 22.1078C7.2356 14.9982 12.6525 9.1188 19.4773 5.35566C26.3021 1.59252 34.1651 0.14947 41.8815 1.24397C49.5793 2.33585 56.7152 5.89415 62.219 11.3844L68.5522 18.8034C69.9974 20.1644 72.7745 25.0528 70.7255 26.5602C66.6122 28.6143 65.0689 25.3981 63.6237 24.0371L57.2517 16.5816C57.2253 16.5566 57.1992 16.5313 57.1735 16.5056C52.7662 12.0955 47.0449 9.23732 40.8719 8.36172Z" fill="white"/>
</g>
<path d="M28.7088 26.2164V46.5801H25.6264V29.2988H25.5071L20.635 32.4806V29.5375L25.7159 26.2164H28.7088ZM41.3068 46.9181C39.7358 46.9115 38.3935 46.4972 37.2799 45.6752C36.1662 44.8533 35.3144 43.6568 34.7245 42.0858C34.1345 40.5147 33.8395 38.6222 33.8395 36.4082C33.8395 34.2008 34.1345 32.3149 34.7245 30.7505C35.321 29.1861 36.1762 27.993 37.2898 27.171C38.4101 26.349 39.7491 25.938 41.3068 25.938C42.8646 25.938 44.2003 26.3523 45.3139 27.1809C46.4276 28.0029 47.2794 29.1961 47.8693 30.7605C48.4659 32.3182 48.7642 34.2008 48.7642 36.4082C48.7642 38.6288 48.4692 40.5247 47.8793 42.0957C47.2893 43.6601 46.4375 44.8566 45.3239 45.6852C44.2103 46.5072 42.8712 46.9181 41.3068 46.9181ZM41.3068 44.2633C42.6856 44.2633 43.7628 43.5905 44.5384 42.2449C45.3206 40.8992 45.7117 38.9537 45.7117 36.4082C45.7117 34.7179 45.5327 33.2894 45.1747 32.1227C44.8234 30.9494 44.3163 30.0611 43.6534 29.4579C42.9972 28.8481 42.215 28.5431 41.3068 28.5431C39.9347 28.5431 38.8575 29.2193 38.0753 30.5716C37.2931 31.9238 36.8987 33.8694 36.8921 36.4082C36.8921 38.1052 37.0677 39.5403 37.4191 40.7136C37.777 41.8803 38.2841 42.7652 38.9404 43.3684C39.5966 43.965 40.3854 44.2633 41.3068 44.2633Z" fill="white"/>
</svg>
