<svg width="72" height="73" viewBox="0 0 72 73" fill="none" xmlns="http://www.w3.org/2000/svg">
<g opacity="0.7">
<path fill-rule="evenodd" clip-rule="evenodd" d="M2.56761 9.10449C1.14954 9.10449 -3.43323e-05 10.2541 -3.43323e-05 11.6721V27.078C-3.43323e-05 28.4961 1.14954 29.6457 2.56761 29.6457H17.9735C19.3916 29.6457 20.5411 28.4961 20.5411 27.078C20.5411 25.6599 19.3916 24.5104 17.9735 24.5104H5.13526V11.6721C5.13526 10.2541 3.98568 9.10449 2.56761 9.10449Z" fill="white"/>
<path fill-rule="evenodd" clip-rule="evenodd" d="M31.9107 8.36172C38.0838 7.48613 44.3742 8.64057 49.8341 11.6511C55.2939 14.6616 59.6274 19.3651 62.1815 25.0528C64.7357 30.7404 65.372 37.1042 63.9948 43.185C62.6175 49.2658 59.3012 54.7343 54.5456 58.7663C49.79 62.7984 43.8527 65.1756 37.6285 65.5397C31.4043 65.9038 25.2304 64.2351 20.0371 60.7851C14.8438 57.3351 10.9124 52.2906 8.83549 46.4119C8.1742 44.5401 6.1207 43.5587 4.2489 44.22C2.3771 44.8813 1.39579 46.9348 2.05709 48.8066C4.65325 56.1551 9.5674 62.4606 16.059 66.7732C22.5507 71.0857 30.2681 73.1716 38.0484 72.7164C45.8286 72.2613 53.2502 69.2898 59.1947 64.2497C65.1392 59.2096 69.2846 52.3741 71.0062 44.773C72.7278 37.172 71.9323 29.2174 68.7396 22.1078C65.547 14.9982 60.1301 9.1188 53.3053 5.35566C46.4805 1.59252 38.6175 0.14947 30.9011 1.24397C23.2033 2.33585 16.0674 5.89415 10.5636 11.3844L4.23044 18.8034C2.78518 20.1644 0.00807953 25.0528 2.05709 26.5602C6.17043 28.6143 7.71368 25.3981 9.15892 24.0371L15.5309 16.5816C15.5573 16.5566 15.5834 16.5313 15.6091 16.5056C20.0164 12.0955 25.7377 9.23732 31.9107 8.36172Z" fill="white"/>
</g>
<path d="M32.1346 26.2164V46.5801H29.0522V29.2988H28.9329L24.0607 32.4806V29.5375L29.1417 26.2164H32.1346ZM44.7326 46.9181C43.1616 46.9115 41.8193 46.4972 40.7056 45.6752C39.592 44.8533 38.7402 43.6568 38.1502 42.0858C37.5603 40.5147 37.2653 38.6222 37.2653 36.4082C37.2653 34.2008 37.5603 32.3149 38.1502 30.7505C38.7468 29.1861 39.6019 27.993 40.7156 27.171C41.8358 26.349 43.1749 25.938 44.7326 25.938C46.2904 25.938 47.6261 26.3523 48.7397 27.1809C49.8534 28.0029 50.7052 29.1961 51.2951 30.7605C51.8917 32.3182 52.19 34.2008 52.19 36.4082C52.19 38.6288 51.895 40.5247 51.3051 42.0957C50.7151 43.6601 49.8633 44.8566 48.7497 45.6852C47.636 46.5072 46.297 46.9181 44.7326 46.9181ZM44.7326 44.2633C46.1114 44.2633 47.1886 43.5905 47.9642 42.2449C48.7464 40.8992 49.1375 38.9537 49.1375 36.4082C49.1375 34.7179 48.9585 33.2894 48.6005 32.1227C48.2492 30.9494 47.7421 30.0611 47.0792 29.4579C46.423 28.8481 45.6408 28.5431 44.7326 28.5431C43.3605 28.5431 42.2833 29.2193 41.5011 30.5716C40.7189 31.9238 40.3245 33.8694 40.3178 36.4082C40.3178 38.1052 40.4935 39.5403 40.8448 40.7136C41.2028 41.8803 41.7099 42.7652 42.3661 43.3684C43.0224 43.965 43.8112 44.2633 44.7326 44.2633Z" fill="white"/>
</svg>
