<svg width="60" height="60" viewBox="0 0 60 60" fill="none" xmlns="http://www.w3.org/2000/svg">
<circle cx="29.9158" cy="29.9158" r="29.9158" fill="url(#paint0_linear_30_5553)"/>
<path fill-rule="evenodd" clip-rule="evenodd" d="M37.7467 22.3086C38.0612 22.1001 38.4878 21.983 38.9327 21.983C39.1529 21.983 39.371 22.0117 39.5745 22.0676C39.778 22.1235 39.9629 22.2054 40.1187 22.3086C40.2744 22.4118 40.398 22.5344 40.4822 22.6693C40.5665 22.8042 40.6099 22.9487 40.6099 23.0947C40.6099 23.2407 40.5665 23.3853 40.4822 23.5202C40.398 23.6551 40.2744 23.7776 40.1187 23.8809L21.7143 36.0802L18.5516 36.6043L19.3423 34.5079L37.7467 22.3086ZM38.9327 20C37.6944 20 36.5069 20.3261 35.6313 20.9064L16.9339 33.3C16.7422 33.427 16.6062 33.5862 16.5405 33.7606L15.0447 37.7265C14.9173 38.0644 15.0666 38.4218 15.4381 38.6681C15.8097 38.9143 16.3489 39.0133 16.8586 38.9289L22.8418 37.9374C23.1048 37.8938 23.345 37.8036 23.5367 37.6766L42.234 25.283C42.6676 24.9957 43.0115 24.6545 43.2461 24.279C43.4807 23.9036 43.6015 23.5011 43.6015 23.0947C43.6015 22.6883 43.4807 22.2859 43.2461 21.9104C43.0115 21.535 42.6676 21.1938 42.234 20.9064C41.8005 20.6191 41.2858 20.3911 40.7193 20.2356C40.1529 20.08 39.5458 20 38.9327 20ZM29.9579 36.9752C29.1318 36.9752 28.4621 37.4191 28.4621 37.9667C28.4621 38.5143 29.1318 38.9582 29.9579 38.9582H43.42C44.2461 38.9582 44.9158 38.5143 44.9158 37.9667C44.9158 37.4191 44.2461 36.9752 43.42 36.9752H29.9579Z" fill="white"/>
<defs>
<linearGradient id="paint0_linear_30_5553" x1="9.59563" y1="7.33784" x2="47.9781" y2="54.1871" gradientUnits="userSpaceOnUse">
<stop stop-color="#DFBA00"/>
<stop offset="1" stop-color="#E37B00"/>
</linearGradient>
</defs>
</svg>
