<svg width="110" height="110" viewBox="0 0 110 110" fill="none" xmlns="http://www.w3.org/2000/svg">
<g filter="url(#filter0_d_11_893)">
<circle cx="55" cy="50" r="25" fill="url(#paint0_linear_11_893)"/>
</g>
<path fill-rule="evenodd" clip-rule="evenodd" d="M65.7071 52.2071L55.5 42L45.2929 52.2071C44.9024 52.5976 44.9024 53.2308 45.2929 53.6213C45.6834 54.0118 46.3166 54.0118 46.7071 53.6213L55.5 44.8284L64.2929 53.6213C64.6834 54.0118 65.3166 54.0118 65.7071 53.6213C66.0976 53.2308 66.0976 52.5976 65.7071 52.2071ZM61.2071 56.2071L55.5 50.5L49.7929 56.2071C49.4024 56.5976 49.4024 57.2308 49.7929 57.6213C50.1834 58.0118 50.8166 58.0118 51.2071 57.6213L55.5 53.3284L59.7929 57.6213C60.1834 58.0118 60.8166 58.0118 61.2071 57.6213C61.5976 57.2308 61.5976 56.5976 61.2071 56.2071Z" fill="#1C1A25"/>
<defs>
<filter id="filter0_d_11_893" x="0" y="0" width="110" height="110" filterUnits="userSpaceOnUse" color-interpolation-filters="sRGB">
<feFlood flood-opacity="0" result="BackgroundImageFix"/>
<feColorMatrix in="SourceAlpha" type="matrix" values="0 0 0 0 0 0 0 0 0 0 0 0 0 0 0 0 0 0 127 0" result="hardAlpha"/>
<feOffset dy="5"/>
<feGaussianBlur stdDeviation="15"/>
<feComposite in2="hardAlpha" operator="out"/>
<feColorMatrix type="matrix" values="0 0 0 0 1 0 0 0 0 0.900833 0 0 0 0 0.00833333 0 0 0 0.35 0"/>
<feBlend mode="normal" in2="BackgroundImageFix" result="effect1_dropShadow_11_893"/>
<feBlend mode="normal" in="SourceGraphic" in2="effect1_dropShadow_11_893" result="shape"/>
</filter>
<linearGradient id="paint0_linear_11_893" x1="34.2904" y1="5.90909" x2="81.9993" y2="9.53056" gradientUnits="userSpaceOnUse">
<stop stop-color="#FCFF5A"/>
<stop offset="1" stop-color="#EF9513"/>
</linearGradient>
</defs>
</svg>
