<svg width="200" height="200" viewBox="0 0 200 200" fill="none" xmlns="http://www.w3.org/2000/svg">
<g clip-path="url(#clip0_11_368)">
<path d="M180 0H20C8.9543 0 0 8.95431 0 20V180C0 191.046 8.95431 200 20 200H180C191.046 200 200 191.046 200 180V20C200 8.9543 191.046 0 180 0Z" fill="black" fill-opacity="0.6"/>
<path d="M30.303 24.2424H24.2424V30.303H30.303V24.2424Z" fill="white"/>
<path d="M30.303 30.303H24.2424V36.3636H30.303V30.303Z" fill="white"/>
<path d="M30.303 36.3636H24.2424V42.4243H30.303V36.3636Z" fill="white"/>
<path d="M30.303 42.4242H24.2424V48.4848H30.303V42.4242Z" fill="white"/>
<path d="M30.303 48.4849H24.2424V54.5455H30.303V48.4849Z" fill="white"/>
<path d="M30.303 54.5454H24.2424V60.606H30.303V54.5454Z" fill="white"/>
<path d="M30.303 60.6061H24.2424V66.6667H30.303V60.6061Z" fill="white"/>
<path d="M30.303 72.7273H24.2424V78.7879H30.303V72.7273Z" fill="white"/>
<path d="M30.303 78.7878H24.2424V84.8484H30.303V78.7878Z" fill="white"/>
<path d="M30.303 103.03H24.2424V109.091H30.303V103.03Z" fill="white"/>
<path d="M30.303 115.151H24.2424V121.212H30.303V115.151Z" fill="white"/>
<path d="M30.303 133.333H24.2424V139.394H30.303V133.333Z" fill="white"/>
<path d="M30.303 139.394H24.2424V145.455H30.303V139.394Z" fill="white"/>
<path d="M30.303 145.455H24.2424V151.515H30.303V145.455Z" fill="white"/>
<path d="M30.303 151.515H24.2424V157.576H30.303V151.515Z" fill="white"/>
<path d="M30.303 157.576H24.2424V163.636H30.303V157.576Z" fill="white"/>
<path d="M30.303 163.636H24.2424V169.697H30.303V163.636Z" fill="white"/>
<path d="M30.303 169.697H24.2424V175.758H30.303V169.697Z" fill="white"/>
<path d="M36.3636 24.2424H30.303V30.303H36.3636V24.2424Z" fill="white"/>
<path d="M36.3636 60.6061H30.303V66.6667H36.3636V60.6061Z" fill="white"/>
<path d="M36.3636 84.8485H30.303V90.9091H36.3636V84.8485Z" fill="white"/>
<path d="M36.3636 90.9091H30.303V96.9697H36.3636V90.9091Z" fill="white"/>
<path d="M36.3636 96.9697H30.303V103.03H36.3636V96.9697Z" fill="white"/>
<path d="M36.3636 115.151H30.303V121.212H36.3636V115.151Z" fill="white"/>
<path d="M36.3636 133.333H30.303V139.394H36.3636V133.333Z" fill="white"/>
<path d="M36.3636 169.697H30.303V175.758H36.3636V169.697Z" fill="white"/>
<path d="M42.4241 24.2424H36.3635V30.303H42.4241V24.2424Z" fill="white"/>
<path d="M42.4241 36.3636H36.3635V42.4243H42.4241V36.3636Z" fill="white"/>
<path d="M42.4241 42.4242H36.3635V48.4848H42.4241V42.4242Z" fill="white"/>
<path d="M42.4241 48.4849H36.3635V54.5455H42.4241V48.4849Z" fill="white"/>
<path d="M42.4241 60.6061H36.3635V66.6667H42.4241V60.6061Z" fill="white"/>
<path d="M42.4241 72.7273H36.3635V78.7879H42.4241V72.7273Z" fill="white"/>
<path d="M42.4241 78.7878H36.3635V84.8484H42.4241V78.7878Z" fill="white"/>
<path d="M42.4241 96.9697H36.3635V103.03H42.4241V96.9697Z" fill="white"/>
<path d="M42.4241 103.03H36.3635V109.091H42.4241V103.03Z" fill="white"/>
<path d="M42.4241 133.333H36.3635V139.394H42.4241V133.333Z" fill="white"/>
<path d="M42.4241 145.455H36.3635V151.515H42.4241V145.455Z" fill="white"/>
<path d="M42.4241 151.515H36.3635V157.576H42.4241V151.515Z" fill="white"/>
<path d="M42.4241 157.576H36.3635V163.636H42.4241V157.576Z" fill="white"/>
<path d="M42.4241 169.697H36.3635V175.758H42.4241V169.697Z" fill="white"/>
<path d="M48.4849 24.2424H42.4243V30.303H48.4849V24.2424Z" fill="white"/>
<path d="M48.4849 36.3636H42.4243V42.4243H48.4849V36.3636Z" fill="white"/>
<path d="M48.4849 42.4242H42.4243V48.4848H48.4849V42.4242Z" fill="white"/>
<path d="M48.4849 48.4849H42.4243V54.5455H48.4849V48.4849Z" fill="white"/>
<path d="M48.4849 60.6061H42.4243V66.6667H48.4849V60.6061Z" fill="white"/>
<path d="M48.4849 78.7878H42.4243V84.8484H48.4849V78.7878Z" fill="white"/>
<path d="M48.4849 96.9697H42.4243V103.03H48.4849V96.9697Z" fill="white"/>
<path d="M48.4849 109.091H42.4243V115.152H48.4849V109.091Z" fill="white"/>
<path d="M48.4849 115.151H42.4243V121.212H48.4849V115.151Z" fill="white"/>
<path d="M48.4849 133.333H42.4243V139.394H48.4849V133.333Z" fill="white"/>
<path d="M48.4849 145.455H42.4243V151.515H48.4849V145.455Z" fill="white"/>
<path d="M48.4849 151.515H42.4243V157.576H48.4849V151.515Z" fill="white"/>
<path d="M48.4849 157.576H42.4243V163.636H48.4849V157.576Z" fill="white"/>
<path d="M48.4849 169.697H42.4243V175.758H48.4849V169.697Z" fill="white"/>
<path d="M54.5455 24.2424H48.4849V30.303H54.5455V24.2424Z" fill="white"/>
<path d="M54.5455 36.3636H48.4849V42.4243H54.5455V36.3636Z" fill="white"/>
<path d="M54.5455 42.4242H48.4849V48.4848H54.5455V42.4242Z" fill="white"/>
<path d="M54.5455 48.4849H48.4849V54.5455H54.5455V48.4849Z" fill="white"/>
<path d="M54.5455 60.6061H48.4849V66.6667H54.5455V60.6061Z" fill="white"/>
<path d="M54.5455 78.7878H48.4849V84.8484H54.5455V78.7878Z" fill="white"/>
<path d="M54.5455 84.8485H48.4849V90.9091H54.5455V84.8485Z" fill="white"/>
<path d="M54.5455 96.9697H48.4849V103.03H54.5455V96.9697Z" fill="white"/>
<path d="M54.5455 103.03H48.4849V109.091H54.5455V103.03Z" fill="white"/>
<path d="M54.5455 109.091H48.4849V115.152H54.5455V109.091Z" fill="white"/>
<path d="M54.5455 115.151H48.4849V121.212H54.5455V115.151Z" fill="white"/>
<path d="M54.5455 121.212H48.4849V127.273H54.5455V121.212Z" fill="white"/>
<path d="M54.5455 133.333H48.4849V139.394H54.5455V133.333Z" fill="white"/>
<path d="M54.5455 145.455H48.4849V151.515H54.5455V145.455Z" fill="white"/>
<path d="M54.5455 151.515H48.4849V157.576H54.5455V151.515Z" fill="white"/>
<path d="M54.5455 157.576H48.4849V163.636H54.5455V157.576Z" fill="white"/>
<path d="M54.5455 169.697H48.4849V175.758H54.5455V169.697Z" fill="white"/>
<path d="M60.606 24.2424H54.5454V30.303H60.606V24.2424Z" fill="white"/>
<path d="M60.606 60.6061H54.5454V66.6667H60.606V60.6061Z" fill="white"/>
<path d="M60.606 78.7878H54.5454V84.8484H60.606V78.7878Z" fill="white"/>
<path d="M60.606 90.9091H54.5454V96.9697H60.606V90.9091Z" fill="white"/>
<path d="M60.606 96.9697H54.5454V103.03H60.606V96.9697Z" fill="white"/>
<path d="M60.606 109.091H54.5454V115.152H60.606V109.091Z" fill="white"/>
<path d="M60.606 121.212H54.5454V127.273H60.606V121.212Z" fill="white"/>
<path d="M60.606 133.333H54.5454V139.394H60.606V133.333Z" fill="white"/>
<path d="M60.606 169.697H54.5454V175.758H60.606V169.697Z" fill="white"/>
<path d="M66.6666 24.2424H60.606V30.303H66.6666V24.2424Z" fill="white"/>
<path d="M66.6666 30.303H60.606V36.3636H66.6666V30.303Z" fill="white"/>
<path d="M66.6666 36.3636H60.606V42.4243H66.6666V36.3636Z" fill="white"/>
<path d="M66.6666 42.4242H60.606V48.4848H66.6666V42.4242Z" fill="white"/>
<path d="M66.6666 48.4849H60.606V54.5455H66.6666V48.4849Z" fill="white"/>
<path d="M66.6666 54.5454H60.606V60.606H66.6666V54.5454Z" fill="white"/>
<path d="M66.6666 60.6061H60.606V66.6667H66.6666V60.6061Z" fill="white"/>
<path d="M66.6666 72.7273H60.606V78.7879H66.6666V72.7273Z" fill="white"/>
<path d="M66.6666 84.8485H60.606V90.9091H66.6666V84.8485Z" fill="white"/>
<path d="M66.6666 96.9697H60.606V103.03H66.6666V96.9697Z" fill="white"/>
<path d="M66.6666 109.091H60.606V115.152H66.6666V109.091Z" fill="white"/>
<path d="M66.6666 121.212H60.606V127.273H66.6666V121.212Z" fill="white"/>
<path d="M66.6666 133.333H60.606V139.394H66.6666V133.333Z" fill="white"/>
<path d="M66.6666 139.394H60.606V145.455H66.6666V139.394Z" fill="white"/>
<path d="M66.6666 145.455H60.606V151.515H66.6666V145.455Z" fill="white"/>
<path d="M66.6666 151.515H60.606V157.576H66.6666V151.515Z" fill="white"/>
<path d="M66.6666 157.576H60.606V163.636H66.6666V157.576Z" fill="white"/>
<path d="M66.6666 163.636H60.606V169.697H66.6666V163.636Z" fill="white"/>
<path d="M66.6666 169.697H60.606V175.758H66.6666V169.697Z" fill="white"/>
<path d="M72.7274 72.7273H66.6667V78.7879H72.7274V72.7273Z" fill="white"/>
<path d="M72.7274 84.8485H66.6667V90.9091H72.7274V84.8485Z" fill="white"/>
<path d="M72.7274 90.9091H66.6667V96.9697H72.7274V90.9091Z" fill="white"/>
<path d="M72.7274 96.9697H66.6667V103.03H72.7274V96.9697Z" fill="white"/>
<path d="M72.7274 109.091H66.6667V115.152H72.7274V109.091Z" fill="white"/>
<path d="M72.7274 115.151H66.6667V121.212H72.7274V115.151Z" fill="white"/>
<path d="M72.7274 121.212H66.6667V127.273H72.7274V121.212Z" fill="white"/>
<path d="M78.7879 24.2424H72.7273V30.303H78.7879V24.2424Z" fill="white"/>
<path d="M78.7879 36.3636H72.7273V42.4243H78.7879V36.3636Z" fill="white"/>
<path d="M78.7879 54.5454H72.7273V60.606H78.7879V54.5454Z" fill="white"/>
<path d="M78.7879 60.6061H72.7273V66.6667H78.7879V60.6061Z" fill="white"/>
<path d="M78.7879 78.7878H72.7273V84.8484H78.7879V78.7878Z" fill="white"/>
<path d="M78.7879 96.9697H72.7273V103.03H78.7879V96.9697Z" fill="white"/>
<path d="M78.7879 127.273H72.7273V133.333H78.7879V127.273Z" fill="white"/>
<path d="M78.7879 133.333H72.7273V139.394H78.7879V133.333Z" fill="white"/>
<path d="M78.7879 157.576H72.7273V163.636H78.7879V157.576Z" fill="white"/>
<path d="M78.7879 169.697H72.7273V175.758H78.7879V169.697Z" fill="white"/>
<path d="M84.8484 24.2424H78.7878V30.303H84.8484V24.2424Z" fill="white"/>
<path d="M84.8484 30.303H78.7878V36.3636H84.8484V30.303Z" fill="white"/>
<path d="M84.8484 36.3636H78.7878V42.4243H84.8484V36.3636Z" fill="white"/>
<path d="M84.8484 42.4242H78.7878V48.4848H84.8484V42.4242Z" fill="white"/>
<path d="M84.8484 66.6666H78.7878V72.7272H84.8484V66.6666Z" fill="white"/>
<path d="M84.8484 84.8485H78.7878V90.9091H84.8484V84.8485Z" fill="white"/>
<path d="M84.8484 90.9091H78.7878V96.9697H84.8484V90.9091Z" fill="white"/>
<path d="M84.8484 96.9697H78.7878V103.03H84.8484V96.9697Z" fill="white"/>
<path d="M84.8484 103.03H78.7878V109.091H84.8484V103.03Z" fill="white"/>
<path d="M84.8484 109.091H78.7878V115.152H84.8484V109.091Z" fill="white"/>
<path d="M84.8484 115.151H78.7878V121.212H84.8484V115.151Z" fill="white"/>
<path d="M84.8484 121.212H78.7878V127.273H84.8484V121.212Z" fill="white"/>
<path d="M84.8484 127.273H78.7878V133.333H84.8484V127.273Z" fill="white"/>
<path d="M84.8484 139.394H78.7878V145.455H84.8484V139.394Z" fill="white"/>
<path d="M84.8484 145.455H78.7878V151.515H84.8484V145.455Z" fill="white"/>
<path d="M84.8484 157.576H78.7878V163.636H84.8484V157.576Z" fill="white"/>
<path d="M84.8484 163.636H78.7878V169.697H84.8484V163.636Z" fill="white"/>
<path d="M90.909 24.2424H84.8484V30.303H90.909V24.2424Z" fill="white"/>
<path d="M90.909 42.4242H84.8484V48.4848H90.909V42.4242Z" fill="white"/>
<path d="M90.909 48.4849H84.8484V54.5455H90.909V48.4849Z" fill="white"/>
<path d="M90.909 60.6061H84.8484V66.6667H90.909V60.6061Z" fill="white"/>
<path d="M90.909 66.6666H84.8484V72.7272H90.909V66.6666Z" fill="white"/>
<path d="M90.909 78.7878H84.8484V84.8484H90.909V78.7878Z" fill="white"/>
<path d="M90.909 84.8485H84.8484V90.9091H90.909V84.8485Z" fill="white"/>
<path d="M90.909 96.9697H84.8484V103.03H90.909V96.9697Z" fill="white"/>
<path d="M90.909 121.212H84.8484V127.273H90.909V121.212Z" fill="white"/>
<path d="M90.909 133.333H84.8484V139.394H90.909V133.333Z" fill="white"/>
<path d="M90.909 157.576H84.8484V163.636H90.909V157.576Z" fill="white"/>
<path d="M96.9698 24.2424H90.9092V30.303H96.9698V24.2424Z" fill="white"/>
<path d="M96.9698 36.3636H90.9092V42.4243H96.9698V36.3636Z" fill="white"/>
<path d="M96.9698 48.4849H90.9092V54.5455H96.9698V48.4849Z" fill="white"/>
<path d="M96.9698 66.6666H90.9092V72.7272H96.9698V66.6666Z" fill="white"/>
<path d="M96.9698 72.7273H90.9092V78.7879H96.9698V72.7273Z" fill="white"/>
<path d="M96.9698 84.8485H90.9092V90.9091H96.9698V84.8485Z" fill="white"/>
<path d="M96.9698 109.091H90.9092V115.152H96.9698V109.091Z" fill="white"/>
<path d="M96.9698 121.212H90.9092V127.273H96.9698V121.212Z" fill="white"/>
<path d="M96.9698 139.394H90.9092V145.455H96.9698V139.394Z" fill="white"/>
<path d="M96.9698 157.576H90.9092V163.636H96.9698V157.576Z" fill="white"/>
<path d="M96.9698 169.697H90.9092V175.758H96.9698V169.697Z" fill="white"/>
<path d="M103.03 36.3636H96.9697V42.4243H103.03V36.3636Z" fill="white"/>
<path d="M103.03 42.4242H96.9697V48.4848H103.03V42.4242Z" fill="white"/>
<path d="M103.03 60.6061H96.9697V66.6667H103.03V60.6061Z" fill="white"/>
<path d="M103.03 66.6666H96.9697V72.7272H103.03V66.6666Z" fill="white"/>
<path d="M103.03 84.8485H96.9697V90.9091H103.03V84.8485Z" fill="white"/>
<path d="M103.03 121.212H96.9697V127.273H103.03V121.212Z" fill="white"/>
<path d="M103.03 127.273H96.9697V133.333H103.03V127.273Z" fill="white"/>
<path d="M103.03 133.333H96.9697V139.394H103.03V133.333Z" fill="white"/>
<path d="M103.03 139.394H96.9697V145.455H103.03V139.394Z" fill="white"/>
<path d="M103.03 169.697H96.9697V175.758H103.03V169.697Z" fill="white"/>
<path d="M109.091 24.2424H103.03V30.303H109.091V24.2424Z" fill="white"/>
<path d="M109.091 36.3636H103.03V42.4243H109.091V36.3636Z" fill="white"/>
<path d="M109.091 42.4242H103.03V48.4848H109.091V42.4242Z" fill="white"/>
<path d="M109.091 54.5454H103.03V60.606H109.091V54.5454Z" fill="white"/>
<path d="M109.091 78.7878H103.03V84.8484H109.091V78.7878Z" fill="white"/>
<path d="M109.091 145.455H103.03V151.515H109.091V145.455Z" fill="white"/>
<path d="M109.091 151.515H103.03V157.576H109.091V151.515Z" fill="white"/>
<path d="M109.091 163.636H103.03V169.697H109.091V163.636Z" fill="white"/>
<path d="M109.091 169.697H103.03V175.758H109.091V169.697Z" fill="white"/>
<path d="M115.151 30.303H109.091V36.3636H115.151V30.303Z" fill="white"/>
<path d="M115.151 36.3636H109.091V42.4243H115.151V36.3636Z" fill="white"/>
<path d="M115.151 48.4849H109.091V54.5455H115.151V48.4849Z" fill="white"/>
<path d="M115.151 54.5454H109.091V60.606H115.151V54.5454Z" fill="white"/>
<path d="M115.151 60.6061H109.091V66.6667H115.151V60.6061Z" fill="white"/>
<path d="M115.151 90.9091H109.091V96.9697H115.151V90.9091Z" fill="white"/>
<path d="M115.151 103.03H109.091V109.091H115.151V103.03Z" fill="white"/>
<path d="M115.151 109.091H109.091V115.152H115.151V109.091Z" fill="white"/>
<path d="M115.151 139.394H109.091V145.455H115.151V139.394Z" fill="white"/>
<path d="M115.151 145.455H109.091V151.515H115.151V145.455Z" fill="white"/>
<path d="M121.212 72.7273H115.152V78.7879H121.212V72.7273Z" fill="white"/>
<path d="M121.212 78.7878H115.152V84.8484H121.212V78.7878Z" fill="white"/>
<path d="M121.212 84.8485H115.152V90.9091H121.212V84.8485Z" fill="white"/>
<path d="M121.212 96.9697H115.152V103.03H121.212V96.9697Z" fill="white"/>
<path d="M121.212 103.03H115.152V109.091H121.212V103.03Z" fill="white"/>
<path d="M121.212 109.091H115.152V115.152H121.212V109.091Z" fill="white"/>
<path d="M121.212 139.394H115.152V145.455H121.212V139.394Z" fill="white"/>
<path d="M121.212 145.455H115.152V151.515H121.212V145.455Z" fill="white"/>
<path d="M127.273 36.3636H121.212V42.4243H127.273V36.3636Z" fill="white"/>
<path d="M127.273 42.4242H121.212V48.4848H127.273V42.4242Z" fill="white"/>
<path d="M127.273 54.5454H121.212V60.606H127.273V54.5454Z" fill="white"/>
<path d="M127.273 60.6061H121.212V66.6667H127.273V60.6061Z" fill="white"/>
<path d="M127.273 72.7273H121.212V78.7879H127.273V72.7273Z" fill="white"/>
<path d="M127.273 78.7878H121.212V84.8484H127.273V78.7878Z" fill="white"/>
<path d="M127.273 84.8485H121.212V90.9091H127.273V84.8485Z" fill="white"/>
<path d="M127.273 103.03H121.212V109.091H127.273V103.03Z" fill="white"/>
<path d="M127.273 121.212H121.212V127.273H127.273V121.212Z" fill="white"/>
<path d="M127.273 127.273H121.212V133.333H127.273V127.273Z" fill="white"/>
<path d="M127.273 133.333H121.212V139.394H127.273V133.333Z" fill="white"/>
<path d="M127.273 139.394H121.212V145.455H127.273V139.394Z" fill="white"/>
<path d="M127.273 145.455H121.212V151.515H127.273V145.455Z" fill="white"/>
<path d="M127.273 163.636H121.212V169.697H127.273V163.636Z" fill="white"/>
<path d="M127.273 169.697H121.212V175.758H127.273V169.697Z" fill="white"/>
<path d="M133.333 90.9091H127.273V96.9697H133.333V90.9091Z" fill="white"/>
<path d="M133.333 121.212H127.273V127.273H133.333V121.212Z" fill="white"/>
<path d="M133.333 145.455H127.273V151.515H133.333V145.455Z" fill="white"/>
<path d="M133.333 151.515H127.273V157.576H133.333V151.515Z" fill="white"/>
<path d="M133.333 157.576H127.273V163.636H133.333V157.576Z" fill="white"/>
<path d="M139.394 24.2424H133.333V30.303H139.394V24.2424Z" fill="white"/>
<path d="M139.394 30.303H133.333V36.3636H139.394V30.303Z" fill="white"/>
<path d="M139.394 36.3636H133.333V42.4243H139.394V36.3636Z" fill="white"/>
<path d="M139.394 42.4242H133.333V48.4848H139.394V42.4242Z" fill="white"/>
<path d="M139.394 48.4849H133.333V54.5455H139.394V48.4849Z" fill="white"/>
<path d="M139.394 54.5454H133.333V60.606H139.394V54.5454Z" fill="white"/>
<path d="M139.394 60.6061H133.333V66.6667H139.394V60.6061Z" fill="white"/>
<path d="M139.394 78.7878H133.333V84.8484H139.394V78.7878Z" fill="white"/>
<path d="M139.394 84.8485H133.333V90.9091H139.394V84.8485Z" fill="white"/>
<path d="M139.394 96.9697H133.333V103.03H139.394V96.9697Z" fill="white"/>
<path d="M139.394 103.03H133.333V109.091H139.394V103.03Z" fill="white"/>
<path d="M139.394 115.151H133.333V121.212H139.394V115.151Z" fill="white"/>
<path d="M139.394 121.212H133.333V127.273H139.394V121.212Z" fill="white"/>
<path d="M139.394 133.333H133.333V139.394H139.394V133.333Z" fill="white"/>
<path d="M139.394 145.455H133.333V151.515H139.394V145.455Z" fill="white"/>
<path d="M145.455 24.2424H139.394V30.303H145.455V24.2424Z" fill="white"/>
<path d="M145.455 60.6061H139.394V66.6667H145.455V60.6061Z" fill="white"/>
<path d="M145.455 72.7273H139.394V78.7879H145.455V72.7273Z" fill="white"/>
<path d="M145.455 78.7878H139.394V84.8484H145.455V78.7878Z" fill="white"/>
<path d="M145.455 84.8485H139.394V90.9091H145.455V84.8485Z" fill="white"/>
<path d="M145.455 103.03H139.394V109.091H145.455V103.03Z" fill="white"/>
<path d="M145.455 115.151H139.394V121.212H145.455V115.151Z" fill="white"/>
<path d="M145.455 121.212H139.394V127.273H145.455V121.212Z" fill="white"/>
<path d="M145.455 145.455H139.394V151.515H145.455V145.455Z" fill="white"/>
<path d="M145.455 163.636H139.394V169.697H145.455V163.636Z" fill="white"/>
<path d="M151.515 24.2424H145.455V30.303H151.515V24.2424Z" fill="white"/>
<path d="M151.515 36.3636H145.455V42.4243H151.515V36.3636Z" fill="white"/>
<path d="M151.515 42.4242H145.455V48.4848H151.515V42.4242Z" fill="white"/>
<path d="M151.515 48.4849H145.455V54.5455H151.515V48.4849Z" fill="white"/>
<path d="M151.515 60.6061H145.455V66.6667H151.515V60.6061Z" fill="white"/>
<path d="M151.515 84.8485H145.455V90.9091H151.515V84.8485Z" fill="white"/>
<path d="M151.515 115.151H145.455V121.212H151.515V115.151Z" fill="white"/>
<path d="M151.515 121.212H145.455V127.273H151.515V121.212Z" fill="white"/>
<path d="M151.515 127.273H145.455V133.333H151.515V127.273Z" fill="white"/>
<path d="M151.515 133.333H145.455V139.394H151.515V133.333Z" fill="white"/>
<path d="M151.515 139.394H145.455V145.455H151.515V139.394Z" fill="white"/>
<path d="M151.515 145.455H145.455V151.515H151.515V145.455Z" fill="white"/>
<path d="M151.515 151.515H145.455V157.576H151.515V151.515Z" fill="white"/>
<path d="M151.515 157.576H145.455V163.636H151.515V157.576Z" fill="white"/>
<path d="M151.515 163.636H145.455V169.697H151.515V163.636Z" fill="white"/>
<path d="M157.576 24.2424H151.515V30.303H157.576V24.2424Z" fill="white"/>
<path d="M157.576 36.3636H151.515V42.4243H157.576V36.3636Z" fill="white"/>
<path d="M157.576 42.4242H151.515V48.4848H157.576V42.4242Z" fill="white"/>
<path d="M157.576 48.4849H151.515V54.5455H157.576V48.4849Z" fill="white"/>
<path d="M157.576 60.6061H151.515V66.6667H157.576V60.6061Z" fill="white"/>
<path d="M157.576 78.7878H151.515V84.8484H157.576V78.7878Z" fill="white"/>
<path d="M157.576 84.8485H151.515V90.9091H157.576V84.8485Z" fill="white"/>
<path d="M157.576 90.9091H151.515V96.9697H157.576V90.9091Z" fill="white"/>
<path d="M157.576 109.091H151.515V115.152H157.576V109.091Z" fill="white"/>
<path d="M157.576 133.333H151.515V139.394H157.576V133.333Z" fill="white"/>
<path d="M157.576 145.455H151.515V151.515H157.576V145.455Z" fill="white"/>
<path d="M157.576 151.515H151.515V157.576H157.576V151.515Z" fill="white"/>
<path d="M157.576 169.697H151.515V175.758H157.576V169.697Z" fill="white"/>
<path d="M163.636 24.2424H157.576V30.303H163.636V24.2424Z" fill="white"/>
<path d="M163.636 36.3636H157.576V42.4243H163.636V36.3636Z" fill="white"/>
<path d="M163.636 42.4242H157.576V48.4848H163.636V42.4242Z" fill="white"/>
<path d="M163.636 48.4849H157.576V54.5455H163.636V48.4849Z" fill="white"/>
<path d="M163.636 60.6061H157.576V66.6667H163.636V60.6061Z" fill="white"/>
<path d="M163.636 72.7273H157.576V78.7879H163.636V72.7273Z" fill="white"/>
<path d="M163.636 84.8485H157.576V90.9091H163.636V84.8485Z" fill="white"/>
<path d="M163.636 109.091H157.576V115.152H163.636V109.091Z" fill="white"/>
<path d="M163.636 127.273H157.576V133.333H163.636V127.273Z" fill="white"/>
<path d="M163.636 151.515H157.576V157.576H163.636V151.515Z" fill="white"/>
<path d="M169.697 24.2424H163.636V30.303H169.697V24.2424Z" fill="white"/>
<path d="M169.697 60.6061H163.636V66.6667H169.697V60.6061Z" fill="white"/>
<path d="M169.697 78.7878H163.636V84.8484H169.697V78.7878Z" fill="white"/>
<path d="M169.697 103.03H163.636V109.091H169.697V103.03Z" fill="white"/>
<path d="M169.697 121.212H163.636V127.273H169.697V121.212Z" fill="white"/>
<path d="M169.697 151.515H163.636V157.576H169.697V151.515Z" fill="white"/>
<path d="M169.697 157.576H163.636V163.636H169.697V157.576Z" fill="white"/>
<path d="M175.758 24.2424H169.697V30.303H175.758V24.2424Z" fill="white"/>
<path d="M175.758 30.303H169.697V36.3636H175.758V30.303Z" fill="white"/>
<path d="M175.758 36.3636H169.697V42.4243H175.758V36.3636Z" fill="white"/>
<path d="M175.758 42.4242H169.697V48.4848H175.758V42.4242Z" fill="white"/>
<path d="M175.758 48.4849H169.697V54.5455H175.758V48.4849Z" fill="white"/>
<path d="M175.758 54.5454H169.697V60.606H175.758V54.5454Z" fill="white"/>
<path d="M175.758 60.6061H169.697V66.6667H175.758V60.6061Z" fill="white"/>
<path d="M175.758 72.7273H169.697V78.7879H175.758V72.7273Z" fill="white"/>
<path d="M175.758 78.7878H169.697V84.8484H175.758V78.7878Z" fill="white"/>
<path d="M175.758 84.8485H169.697V90.9091H175.758V84.8485Z" fill="white"/>
<path d="M175.758 96.9697H169.697V103.03H175.758V96.9697Z" fill="white"/>
<path d="M175.758 103.03H169.697V109.091H175.758V103.03Z" fill="white"/>
<path d="M175.758 109.091H169.697V115.152H175.758V109.091Z" fill="white"/>
<path d="M175.758 127.273H169.697V133.333H175.758V127.273Z" fill="white"/>
<path d="M175.758 133.333H169.697V139.394H175.758V133.333Z" fill="white"/>
<path d="M175.758 139.394H169.697V145.455H175.758V139.394Z" fill="white"/>
<path d="M175.758 145.455H169.697V151.515H175.758V145.455Z" fill="white"/>
<path d="M175.758 157.576H169.697V163.636H175.758V157.576Z" fill="white"/>
<path d="M175.758 169.697H169.697V175.758H175.758V169.697Z" fill="white"/>
</g>
<defs>
<clipPath id="clip0_11_368">
<rect width="200" height="200" fill="white"/>
</clipPath>
</defs>
</svg>
