<svg width="27" height="26" viewBox="0 0 27 26" fill="none" xmlns="http://www.w3.org/2000/svg">
<g clip-path="url(#clip0_11_880)">
<path d="M13.5 0C6.33177 0 0.5 5.83177 0.5 13C0.5 20.1682 6.33177 26 13.5 26C20.6682 26 26.5 20.1682 26.5 13C26.5 5.83177 20.6682 0 13.5 0ZM13.5 24.7812C7.00381 24.7812 1.71875 19.4962 1.71875 13C1.71875 6.50381 7.00381 1.21875 13.5 1.21875C19.9962 1.21875 25.2812 6.50381 25.2812 13C25.2812 19.4962 19.9962 24.7812 13.5 24.7812ZM20.2989 15.3646C20.2988 15.3646 20.2988 15.3646 20.2989 15.3646L17.9107 13.9858C17.545 13.7747 17.1183 13.7188 16.7093 13.8283C16.3002 13.9379 15.9586 14.1997 15.7475 14.5654C15.625 14.7776 15.4105 15.0446 15.0841 15.1113C14.7864 15.1722 14.5236 15.1132 14.2807 14.9309C13.3832 14.2573 12.2429 13.1169 11.5692 12.2193C11.3869 11.9764 11.3278 11.7136 11.3887 11.416C11.4554 11.0895 11.7224 10.875 11.9346 10.7525C12.6908 10.3159 12.9508 9.34548 12.5142 8.58929L11.1354 6.20105C10.7405 5.51713 9.92028 5.23027 9.18532 5.51886L9.15673 5.53008C8.01547 5.97812 7.18093 6.32196 6.83582 6.66707C6.20893 7.29402 5.57396 8.46061 6.10925 10.4583C7.14889 14.3384 12.1616 19.3511 16.0417 20.3908C16.5686 20.532 17.0376 20.5917 17.4542 20.5917C18.6172 20.5917 19.3714 20.1258 19.833 19.6642C20.1781 19.3192 20.5218 18.4848 20.9698 17.3438L20.9812 17.3148C21.2697 16.5797 20.9828 15.7596 20.2989 15.3646ZM19.8466 16.8693L19.8352 16.8984C19.6191 17.4489 19.1694 18.5943 18.9711 18.8024C18.3894 19.3842 17.5099 19.5224 16.357 19.2136C12.8804 18.282 8.21784 13.6195 7.2863 10.1428C6.9774 8.99006 7.11573 8.11053 7.69687 7.52944C7.90563 7.33048 9.05136 6.88071 9.60193 6.66458L9.63057 6.65331C9.67622 6.63533 9.72274 6.6268 9.76824 6.6268C9.89412 6.6268 10.0119 6.69292 10.0798 6.81048L11.4586 9.19867C11.5591 9.3729 11.4993 9.59644 11.3251 9.69698C10.719 10.0469 10.3175 10.5707 10.1945 11.1718C10.0635 11.8125 10.2018 12.4277 10.5943 12.9508C11.3402 13.9448 12.5553 15.1598 13.5491 15.9056C14.0722 16.2981 14.6874 16.4364 15.3282 16.3054C15.9293 16.1824 16.453 15.7809 16.803 15.1748C16.8513 15.091 16.93 15.0309 17.0247 15.0056C17.1192 14.9803 17.2175 14.9929 17.3013 15.0413L19.6895 16.4201C19.8496 16.5126 19.9142 16.6973 19.8466 16.8693Z" fill="white"/>
</g>
<defs>
<clipPath id="clip0_11_880">
<rect width="26" height="26" fill="white" transform="translate(0.5)"/>
</clipPath>
</defs>
</svg>
