<svg width="1255" height="146" viewBox="0 0 1255 146" fill="none" xmlns="http://www.w3.org/2000/svg">
<path d="M27.5369 114C26.3636 114 25.6702 113.413 25.4569 112.24L3.85689 4.07999L3.69689 3.43999C3.69689 2.47999 4.28355 1.99999 5.45689 1.99999H24.9769C26.2569 1.99999 26.9502 2.58666 27.0569 3.76L36.1769 61.36C36.2836 61.7867 36.4436 62 36.6569 62C36.8702 62 37.0302 61.7867 37.1369 61.36L45.7769 3.76C45.8836 2.58666 46.5769 1.99999 47.8569 1.99999H64.0169C65.2969 1.99999 65.9902 2.58666 66.0969 3.76L75.5369 61.36C75.6436 61.7867 75.8036 62 76.0169 62C76.2302 62 76.3902 61.7867 76.4969 61.36L84.6569 3.76C84.7636 2.58666 85.4569 1.99999 86.7369 1.99999H105.617C107.004 1.99999 107.59 2.69333 107.377 4.07999L87.0569 112.24C86.9502 113.413 86.2569 114 84.9769 114H67.6969C66.4169 114 65.7236 113.413 65.6169 112.24L56.1769 53.04C56.0702 52.6133 55.9102 52.4 55.6969 52.4C55.4836 52.4 55.3236 52.6133 55.2169 53.04L46.7369 112.24C46.6302 113.413 45.9369 114 44.6569 114H27.5369ZM158.329 30.48C165.583 30.48 171.023 32.88 174.649 37.68C178.276 42.48 180.089 49.2 180.089 57.84V112.08C180.089 112.613 179.876 113.093 179.449 113.52C179.129 113.84 178.703 114 178.169 114H159.449C158.916 114 158.436 113.84 158.009 113.52C157.689 113.093 157.529 112.613 157.529 112.08V59.6C157.529 56.5067 156.889 54.1067 155.609 52.4C154.436 50.6933 152.676 49.84 150.329 49.84C147.876 49.84 145.956 50.7467 144.569 52.56C143.289 54.2667 142.649 56.72 142.649 59.92V112.08C142.649 112.613 142.436 113.093 142.009 113.52C141.689 113.84 141.263 114 140.729 114H122.009C121.476 114 120.996 113.84 120.569 113.52C120.249 113.093 120.089 112.613 120.089 112.08V3.92C120.089 3.38666 120.249 2.96 120.569 2.63999C120.996 2.21333 121.476 1.99999 122.009 1.99999H140.729C141.263 1.99999 141.689 2.21333 142.009 2.63999C142.436 2.96 142.649 3.38666 142.649 3.92V36.72C142.649 37.04 142.756 37.2 142.969 37.2C143.289 37.2 143.663 36.9867 144.089 36.56C147.503 32.5067 152.249 30.48 158.329 30.48ZM224.612 30.48C233.679 30.48 241.039 32.9333 246.692 37.84C252.345 42.7467 255.172 49.2 255.172 57.2V112.08C255.172 112.613 254.959 113.093 254.532 113.52C254.212 113.84 253.785 114 253.252 114H234.532C233.999 114 233.519 113.84 233.092 113.52C232.772 113.093 232.612 112.613 232.612 112.08V108.56C232.612 108.24 232.505 108.027 232.292 107.92C232.079 107.813 231.865 107.92 231.652 108.24C228.132 112.72 222.692 115.067 215.332 115.28C209.145 115.28 203.759 113.573 199.172 110.16C194.692 106.747 192.452 100.24 192.452 90.64C192.452 80.72 195.172 73.8933 200.612 70.16C206.159 66.4267 214.105 64.56 224.452 64.56H231.812C232.345 64.56 232.612 64.2933 232.612 63.76V59.76C232.612 56.88 231.812 54.5333 230.212 52.72C228.719 50.8 226.799 49.84 224.452 49.84C222.639 49.84 221.092 50.4267 219.812 51.6C218.639 52.6667 217.892 54.2133 217.572 56.24C217.465 57.52 216.772 58.16 215.492 58.16L196.292 58C195.012 58 194.372 57.36 194.372 56.08C194.905 48.2933 197.945 42.1067 203.492 37.52C209.039 32.8267 216.079 30.48 224.612 30.48ZM223.012 97.84C225.465 97.84 227.652 97.04 229.572 95.44C231.599 93.7333 232.612 91.4933 232.612 88.72V81.2C232.612 80.6667 232.345 80.4 231.812 80.4H225.252C222.372 80.4 220.025 81.2533 218.212 82.96C216.505 84.56 215.652 86.8 215.652 89.68C215.652 92.3467 216.292 94.3733 217.572 95.76C218.959 97.1467 220.772 97.84 223.012 97.84ZM306.898 45.68C306.898 46.2133 306.685 46.6933 306.258 47.12C305.938 47.44 305.511 47.6 304.978 47.6H296.018C295.485 47.6 295.218 47.8667 295.218 48.4V86.48C295.218 89.5733 295.805 91.7067 296.978 92.88C298.151 94.0533 299.911 94.5867 302.258 94.48H303.378C303.911 94.48 304.338 94.6933 304.658 95.12C305.085 95.44 305.298 95.8667 305.298 96.4V112.08C305.298 112.613 305.085 113.093 304.658 113.52C304.338 113.84 303.911 114 303.378 114H296.978C289.191 114 283.325 112.72 279.378 110.16C275.431 107.493 273.458 102.48 273.458 95.12V48.4C273.458 47.8667 273.191 47.6 272.658 47.6H267.378C266.845 47.6 266.365 47.44 265.938 47.12C265.618 46.6933 265.458 46.2133 265.458 45.68V33.68C265.458 33.1467 265.618 32.72 265.938 32.4C266.365 31.9733 266.845 31.76 267.378 31.76H272.658C273.191 31.76 273.458 31.4933 273.458 30.96V13.2C273.458 12.6667 273.618 12.24 273.938 11.92C274.365 11.4933 274.845 11.28 275.378 11.28H293.298C293.831 11.28 294.258 11.4933 294.578 11.92C295.005 12.24 295.218 12.6667 295.218 13.2V30.96C295.218 31.4933 295.485 31.76 296.018 31.76H304.978C305.511 31.76 305.938 31.9733 306.258 32.4C306.685 32.72 306.898 33.1467 306.898 33.68V45.68ZM386.132 115.28C376.319 115.28 368.479 112.4 362.612 106.64C356.745 100.88 353.812 93.2 353.812 83.6V32.4C353.812 22.8 356.745 15.12 362.612 9.35999C368.479 3.6 376.319 0.719999 386.132 0.719999C395.945 0.719999 403.785 3.6 409.652 9.35999C415.625 15.12 418.612 22.8 418.612 32.4V83.6C418.612 93.2 415.625 100.88 409.652 106.64C403.785 112.4 395.945 115.28 386.132 115.28ZM386.132 95.92C389.119 95.92 391.519 94.9067 393.332 92.88C395.145 90.7467 396.052 87.9733 396.052 84.56V31.44C396.052 28.0267 395.145 25.3067 393.332 23.28C391.519 21.1467 389.119 20.08 386.132 20.08C383.145 20.08 380.745 21.1467 378.932 23.28C377.225 25.3067 376.372 28.0267 376.372 31.44V84.56C376.372 87.9733 377.225 90.7467 378.932 92.88C380.745 94.9067 383.145 95.92 386.132 95.92ZM470.077 33.68C470.077 33.1467 470.237 32.72 470.557 32.4C470.984 31.9733 471.464 31.76 471.997 31.76H490.717C491.25 31.76 491.677 31.9733 491.997 32.4C492.424 32.72 492.637 33.1467 492.637 33.68V112.08C492.637 112.613 492.424 113.093 491.997 113.52C491.677 113.84 491.25 114 490.717 114H471.997C471.464 114 470.984 113.84 470.557 113.52C470.237 113.093 470.077 112.613 470.077 112.08V109.36C470.077 109.04 469.97 108.827 469.757 108.72C469.544 108.613 469.33 108.72 469.117 109.04C467.517 111.28 465.49 112.88 463.037 113.84C460.69 114.693 457.917 115.12 454.717 115.12C448.317 115.12 443.037 113.2 438.877 109.36C434.717 105.413 432.637 99.3867 432.637 91.28V33.68C432.637 33.1467 432.797 32.72 433.117 32.4C433.544 31.9733 434.024 31.76 434.557 31.76H453.277C453.81 31.76 454.237 31.9733 454.557 32.4C454.984 32.72 455.197 33.1467 455.197 33.68V86.32C455.197 89.4133 455.784 91.8133 456.957 93.52C458.237 95.12 460.05 95.92 462.397 95.92C464.744 95.92 466.61 95.0133 467.997 93.2C469.384 91.3867 470.077 88.9333 470.077 85.84V33.68ZM544.839 30.8C547.719 30.8 549.959 31.3333 551.559 32.4C552.413 32.9333 552.733 33.7333 552.519 34.8L549.479 53.52C549.373 54.6933 548.626 55.12 547.239 54.8C546.066 54.3733 544.626 54.16 542.919 54.16C541.319 54.16 539.933 54.3733 538.759 54.8C536.306 55.2267 534.333 56.72 532.839 59.28C531.346 61.7333 530.599 64.6133 530.599 67.92V111.92C530.599 112.453 530.386 112.933 529.959 113.36C529.639 113.68 529.213 113.84 528.679 113.84H509.959C509.426 113.84 508.946 113.68 508.519 113.36C508.199 112.933 508.039 112.453 508.039 111.92V33.68C508.039 33.1467 508.199 32.72 508.519 32.4C508.946 31.9733 509.426 31.76 509.959 31.76H528.679C529.213 31.76 529.639 31.9733 529.959 32.4C530.386 32.72 530.599 33.1467 530.599 33.68V39.92C530.599 40.3467 530.653 40.6133 530.759 40.72C530.973 40.72 531.186 40.56 531.399 40.24C534.279 33.9467 538.759 30.8 544.839 30.8ZM630.666 115.28C621.066 115.28 613.332 112.293 607.466 106.32C601.706 100.24 598.826 92.1867 598.826 82.16V3.92C598.826 3.38666 598.986 2.96 599.306 2.63999C599.732 2.21333 600.212 1.99999 600.746 1.99999H619.466C619.999 1.99999 620.426 2.21333 620.746 2.63999C621.172 2.96 621.386 3.38666 621.386 3.92V84.4C621.386 87.8133 622.239 90.5867 623.946 92.72C625.652 94.8533 627.892 95.92 630.666 95.92C633.439 95.92 635.626 94.8533 637.226 92.72C638.932 90.5867 639.786 87.8133 639.786 84.4V3.92C639.786 3.38666 639.946 2.96 640.266 2.63999C640.692 2.21333 641.172 1.99999 641.706 1.99999H660.426C660.959 1.99999 661.386 2.21333 661.706 2.63999C662.132 2.96 662.346 3.38666 662.346 3.92V82.16C662.346 92.1867 659.412 100.24 653.546 106.32C647.786 112.293 640.159 115.28 630.666 115.28ZM705.628 115.12C696.561 115.12 689.308 112.987 683.868 108.72C678.535 104.347 675.868 98.5333 675.868 91.28V90.16C675.868 89.6267 676.028 89.2 676.348 88.88C676.775 88.4533 677.255 88.24 677.788 88.24H695.388C695.921 88.24 696.348 88.4533 696.668 88.88C697.095 89.2 697.308 89.6267 697.308 90.16V90.64C697.308 92.88 698.108 94.7467 699.708 96.24C701.308 97.6267 703.281 98.32 705.628 98.32C707.761 98.32 709.415 97.7333 710.588 96.56C711.868 95.28 712.508 93.68 712.508 91.76C712.508 89.4133 711.495 87.6 709.468 86.32C707.441 84.9333 705.148 83.8133 702.588 82.96C700.135 82 698.428 81.36 697.468 81.04C691.601 78.9067 686.641 75.9733 682.588 72.24C678.641 68.4 676.668 62.9067 676.668 55.76C676.668 47.9733 679.228 41.84 684.348 37.36C689.468 32.88 696.295 30.64 704.828 30.64C713.681 30.64 720.668 32.9867 725.788 37.68C731.015 42.3733 733.628 48.72 733.628 56.72C733.628 57.2533 733.415 57.7333 732.988 58.16C732.668 58.48 732.241 58.64 731.708 58.64H714.588C714.055 58.64 713.575 58.48 713.148 58.16C712.828 57.7333 712.668 57.2533 712.668 56.72V55.44C712.668 53.3067 711.975 51.6 710.588 50.32C709.308 48.9333 707.601 48.24 705.468 48.24C703.228 48.24 701.468 48.9867 700.188 50.48C698.908 51.8667 698.268 53.52 698.268 55.44C698.268 58 699.335 60.0267 701.468 61.52C703.708 62.9067 707.068 64.4533 711.548 66.16C716.135 67.8667 720.028 69.6267 723.228 71.44C726.535 73.1467 729.361 75.6533 731.708 78.96C734.055 82.16 735.228 86.2133 735.228 91.12C735.228 98.48 732.508 104.347 727.068 108.72C721.735 112.987 714.588 115.12 705.628 115.12ZM806.606 78C806.606 78.5333 806.392 79.0133 805.966 79.44C805.646 79.76 805.219 79.92 804.686 79.92H769.486C768.952 79.92 768.686 80.1867 768.686 80.72V86.64C768.686 89.3067 769.379 91.5467 770.766 93.36C772.259 95.0667 774.126 95.92 776.366 95.92C778.392 95.92 780.046 95.28 781.326 94C782.606 92.6133 783.459 90.9067 783.886 88.88C784.206 87.8133 784.899 87.28 785.966 87.28L804.366 88.24C804.899 88.24 805.326 88.4533 805.646 88.88C806.072 89.2 806.232 89.68 806.126 90.32C805.379 98.5333 802.499 104.773 797.486 109.04C792.579 113.2 785.539 115.28 776.366 115.28C766.872 115.28 759.459 112.933 754.126 108.24C748.792 103.44 746.126 96.8267 746.126 88.4V57.36C746.126 49.2533 748.792 42.7467 754.126 37.84C759.566 32.9333 766.979 30.48 776.366 30.48C785.752 30.48 793.112 32.9333 798.446 37.84C803.886 42.7467 806.606 49.2533 806.606 57.36V78ZM776.366 49.84C774.126 49.84 772.259 50.6933 770.766 52.4C769.379 54.1067 768.686 56.2933 768.686 58.96V65.2C768.686 65.7333 768.952 66 769.486 66H783.246C783.779 66 784.046 65.7333 784.046 65.2V58.96C784.046 56.2933 783.299 54.1067 781.806 52.4C780.419 50.6933 778.606 49.84 776.366 49.84ZM856.933 30.8C859.813 30.8 862.053 31.3333 863.653 32.4C864.506 32.9333 864.826 33.7333 864.613 34.8L861.573 53.52C861.466 54.6933 860.72 55.12 859.333 54.8C858.16 54.3733 856.72 54.16 855.013 54.16C853.413 54.16 852.026 54.3733 850.853 54.8C848.4 55.2267 846.426 56.72 844.933 59.28C843.44 61.7333 842.693 64.6133 842.693 67.92V111.92C842.693 112.453 842.48 112.933 842.053 113.36C841.733 113.68 841.306 113.84 840.773 113.84H822.053C821.52 113.84 821.04 113.68 820.613 113.36C820.293 112.933 820.133 112.453 820.133 111.92V33.68C820.133 33.1467 820.293 32.72 820.613 32.4C821.04 31.9733 821.52 31.76 822.053 31.76H840.773C841.306 31.76 841.733 31.9733 842.053 32.4C842.48 32.72 842.693 33.1467 842.693 33.68V39.92C842.693 40.3467 842.746 40.6133 842.853 40.72C843.066 40.72 843.28 40.56 843.493 40.24C846.373 33.9467 850.853 30.8 856.933 30.8ZM902.728 115.12C893.661 115.12 886.408 112.987 880.968 108.72C875.635 104.347 872.968 98.5333 872.968 91.28V90.16C872.968 89.6267 873.128 89.2 873.448 88.88C873.875 88.4533 874.355 88.24 874.888 88.24H892.488C893.021 88.24 893.448 88.4533 893.768 88.88C894.195 89.2 894.408 89.6267 894.408 90.16V90.64C894.408 92.88 895.208 94.7467 896.808 96.24C898.408 97.6267 900.381 98.32 902.728 98.32C904.861 98.32 906.515 97.7333 907.688 96.56C908.968 95.28 909.608 93.68 909.608 91.76C909.608 89.4133 908.595 87.6 906.568 86.32C904.541 84.9333 902.248 83.8133 899.688 82.96C897.235 82 895.528 81.36 894.568 81.04C888.701 78.9067 883.741 75.9733 879.688 72.24C875.741 68.4 873.768 62.9067 873.768 55.76C873.768 47.9733 876.328 41.84 881.448 37.36C886.568 32.88 893.395 30.64 901.928 30.64C910.781 30.64 917.768 32.9867 922.888 37.68C928.115 42.3733 930.728 48.72 930.728 56.72C930.728 57.2533 930.515 57.7333 930.088 58.16C929.768 58.48 929.341 58.64 928.808 58.64H911.688C911.155 58.64 910.675 58.48 910.248 58.16C909.928 57.7333 909.768 57.2533 909.768 56.72V55.44C909.768 53.3067 909.075 51.6 907.688 50.32C906.408 48.9333 904.701 48.24 902.568 48.24C900.328 48.24 898.568 48.9867 897.288 50.48C896.008 51.8667 895.368 53.52 895.368 55.44C895.368 58 896.435 60.0267 898.568 61.52C900.808 62.9067 904.168 64.4533 908.648 66.16C913.235 67.8667 917.128 69.6267 920.328 71.44C923.635 73.1467 926.461 75.6533 928.808 78.96C931.155 82.16 932.328 86.2133 932.328 91.12C932.328 98.48 929.608 104.347 924.168 108.72C918.835 112.987 911.688 115.12 902.728 115.12ZM1009.34 115.28C1003.15 115.28 997.71 114.053 993.017 111.6C988.324 109.147 984.697 105.733 982.137 101.36C979.577 96.88 978.297 91.76 978.297 86V81.36C978.297 80.8267 978.457 80.4 978.777 80.08C979.204 79.6533 979.684 79.44 980.217 79.44H998.617C999.15 79.44 999.577 79.6533 999.897 80.08C1000.32 80.4 1000.54 80.8267 1000.54 81.36V84.88C1000.54 88.1867 1001.39 90.8533 1003.1 92.88C1004.8 94.9067 1006.94 95.92 1009.5 95.92C1012.06 95.92 1014.19 94.96 1015.9 93.04C1017.6 91.12 1018.46 88.6133 1018.46 85.52C1018.46 82.32 1017.39 79.6 1015.26 77.36C1013.12 75.0133 1008.96 71.6 1002.78 67.12C997.444 63.28 993.124 59.8667 989.817 56.88C986.51 53.8933 983.684 50.2133 981.337 45.84C978.99 41.4667 977.817 36.4 977.817 30.64C977.817 21.5733 980.644 14.32 986.297 8.88C991.95 3.44 999.417 0.719999 1008.7 0.719999C1018.08 0.719999 1025.6 3.54666 1031.26 9.2C1037.02 14.8533 1039.9 22.2667 1039.9 31.44V35.28C1039.9 35.8133 1039.68 36.2933 1039.26 36.72C1038.94 37.04 1038.51 37.2 1037.98 37.2H1019.58C1019.04 37.2 1018.56 37.04 1018.14 36.72C1017.82 36.2933 1017.66 35.8133 1017.66 35.28V30.96C1017.66 27.6533 1016.8 25.04 1015.1 23.12C1013.5 21.0933 1011.36 20.08 1008.7 20.08C1006.14 20.08 1004.06 21.04 1002.46 22.96C1000.86 24.7733 1000.06 27.3333 1000.06 30.64C1000.06 33.84 1001.07 36.6667 1003.1 39.12C1005.12 41.5733 1009.12 44.9867 1015.1 49.36C1021.71 54.2667 1026.67 58.2667 1029.98 61.36C1033.39 64.3467 1036 67.7067 1037.82 71.44C1039.74 75.0667 1040.7 79.44 1040.7 84.56C1040.7 93.9467 1037.82 101.413 1032.06 106.96C1026.3 112.507 1018.72 115.28 1009.34 115.28ZM1083.63 30.48C1092.7 30.48 1100.06 32.9333 1105.71 37.84C1111.36 42.7467 1114.19 49.2 1114.19 57.2V112.08C1114.19 112.613 1113.98 113.093 1113.55 113.52C1113.23 113.84 1112.8 114 1112.27 114H1093.55C1093.02 114 1092.54 113.84 1092.11 113.52C1091.79 113.093 1091.63 112.613 1091.63 112.08V108.56C1091.63 108.24 1091.52 108.027 1091.31 107.92C1091.1 107.813 1090.88 107.92 1090.67 108.24C1087.15 112.72 1081.71 115.067 1074.35 115.28C1068.16 115.28 1062.78 113.573 1058.19 110.16C1053.71 106.747 1051.47 100.24 1051.47 90.64C1051.47 80.72 1054.19 73.8933 1059.63 70.16C1065.18 66.4267 1073.12 64.56 1083.47 64.56H1090.83C1091.36 64.56 1091.63 64.2933 1091.63 63.76V59.76C1091.63 56.88 1090.83 54.5333 1089.23 52.72C1087.74 50.8 1085.82 49.84 1083.47 49.84C1081.66 49.84 1080.11 50.4267 1078.83 51.6C1077.66 52.6667 1076.91 54.2133 1076.59 56.24C1076.48 57.52 1075.79 58.16 1074.51 58.16L1055.31 58C1054.03 58 1053.39 57.36 1053.39 56.08C1053.92 48.2933 1056.96 42.1067 1062.51 37.52C1068.06 32.8267 1075.1 30.48 1083.63 30.48ZM1082.03 97.84C1084.48 97.84 1086.67 97.04 1088.59 95.44C1090.62 93.7333 1091.63 91.4933 1091.63 88.72V81.2C1091.63 80.6667 1091.36 80.4 1090.83 80.4H1084.27C1081.39 80.4 1079.04 81.2533 1077.23 82.96C1075.52 84.56 1074.67 86.8 1074.67 89.68C1074.67 92.3467 1075.31 94.3733 1076.59 95.76C1077.98 97.1467 1079.79 97.84 1082.03 97.84ZM1126.29 145.84C1126.08 145.84 1125.86 145.627 1125.65 145.2C1125.44 144.88 1125.33 144.453 1125.33 143.92V129.2C1125.33 127.92 1125.81 127.28 1126.77 127.28C1132.32 127.173 1136.26 126.267 1138.61 124.56C1140.96 122.96 1142.29 119.6 1142.61 114.48L1142.45 113.52L1122.29 33.68V33.04C1122.29 32.08 1122.88 31.6 1124.05 31.6H1144.21C1145.49 31.6 1146.18 32.1867 1146.29 33.36L1153.65 80.88C1153.76 81.3067 1153.92 81.52 1154.13 81.52C1154.34 81.52 1154.5 81.3067 1154.61 80.88L1161.65 33.36C1161.76 32.1867 1162.45 31.6 1163.73 31.6L1183.89 31.92C1185.38 31.92 1185.97 32.6133 1185.65 34L1164.53 117.04C1162.4 124.827 1160.1 130.64 1157.65 134.48C1155.3 138.427 1151.78 141.307 1147.09 143.12C1142.5 144.933 1135.84 145.84 1127.09 145.84H1126.29ZM1222.17 115.12C1213.1 115.12 1205.85 112.987 1200.41 108.72C1195.07 104.347 1192.41 98.5333 1192.41 91.28V90.16C1192.41 89.6267 1192.57 89.2 1192.89 88.88C1193.31 88.4533 1193.79 88.24 1194.33 88.24H1211.93C1212.46 88.24 1212.89 88.4533 1213.21 88.88C1213.63 89.2 1213.85 89.6267 1213.85 90.16V90.64C1213.85 92.88 1214.65 94.7467 1216.25 96.24C1217.85 97.6267 1219.82 98.32 1222.17 98.32C1224.3 98.32 1225.95 97.7333 1227.13 96.56C1228.41 95.28 1229.05 93.68 1229.05 91.76C1229.05 89.4133 1228.03 87.6 1226.01 86.32C1223.98 84.9333 1221.69 83.8133 1219.13 82.96C1216.67 82 1214.97 81.36 1214.01 81.04C1208.14 78.9067 1203.18 75.9733 1199.13 72.24C1195.18 68.4 1193.21 62.9067 1193.21 55.76C1193.21 47.9733 1195.77 41.84 1200.89 37.36C1206.01 32.88 1212.83 30.64 1221.37 30.64C1230.22 30.64 1237.21 32.9867 1242.33 37.68C1247.55 42.3733 1250.17 48.72 1250.17 56.72C1250.17 57.2533 1249.95 57.7333 1249.53 58.16C1249.21 58.48 1248.78 58.64 1248.25 58.64H1231.13C1230.59 58.64 1230.11 58.48 1229.69 58.16C1229.37 57.7333 1229.21 57.2533 1229.21 56.72V55.44C1229.21 53.3067 1228.51 51.6 1227.13 50.32C1225.85 48.9333 1224.14 48.24 1222.01 48.24C1219.77 48.24 1218.01 48.9867 1216.73 50.48C1215.45 51.8667 1214.81 53.52 1214.81 55.44C1214.81 58 1215.87 60.0267 1218.01 61.52C1220.25 62.9067 1223.61 64.4533 1228.09 66.16C1232.67 67.8667 1236.57 69.6267 1239.77 71.44C1243.07 73.1467 1245.9 75.6533 1248.25 78.96C1250.59 82.16 1251.77 86.2133 1251.77 91.12C1251.77 98.48 1249.05 104.347 1243.61 108.72C1238.27 112.987 1231.13 115.12 1222.17 115.12Z" fill="white" fill-opacity="0.1"/>
<path d="M452.166 90.48C448.486 90.48 445.546 89.4 443.346 87.24C441.146 85.08 440.046 82.2 440.046 78.6V59.4C440.046 55.8 441.146 52.92 443.346 50.76C445.546 48.6 448.486 47.52 452.166 47.52C455.846 47.52 458.786 48.6 460.986 50.76C463.226 52.92 464.346 55.8 464.346 59.4V78.6C464.346 82.2 463.226 85.08 460.986 87.24C458.786 89.4 455.846 90.48 452.166 90.48ZM452.166 83.22C453.286 83.22 454.186 82.84 454.866 82.08C455.546 81.28 455.886 80.24 455.886 78.96V59.04C455.886 57.76 455.546 56.74 454.866 55.98C454.186 55.18 453.286 54.78 452.166 54.78C451.046 54.78 450.146 55.18 449.466 55.98C448.826 56.74 448.506 57.76 448.506 59.04V78.96C448.506 80.24 448.826 81.28 449.466 82.08C450.146 82.84 451.046 83.22 452.166 83.22ZM483.645 59.88C483.645 59.68 483.705 59.52 483.825 59.4C483.985 59.24 484.165 59.16 484.365 59.16H491.385C491.585 59.16 491.745 59.24 491.865 59.4C492.025 59.52 492.105 59.68 492.105 59.88V89.28C492.105 89.48 492.025 89.66 491.865 89.82C491.745 89.94 491.585 90 491.385 90H484.365C484.165 90 483.985 89.94 483.825 89.82C483.705 89.66 483.645 89.48 483.645 89.28V88.26C483.645 88.14 483.605 88.06 483.525 88.02C483.445 87.98 483.365 88.02 483.285 88.14C482.685 88.98 481.925 89.58 481.005 89.94C480.125 90.26 479.085 90.42 477.885 90.42C475.485 90.42 473.505 89.7 471.945 88.26C470.385 86.78 469.605 84.52 469.605 81.48V59.88C469.605 59.68 469.665 59.52 469.785 59.4C469.945 59.24 470.125 59.16 470.325 59.16H477.345C477.545 59.16 477.705 59.24 477.825 59.4C477.985 59.52 478.065 59.68 478.065 59.88V79.62C478.065 80.78 478.285 81.68 478.725 82.32C479.205 82.92 479.885 83.22 480.765 83.22C481.645 83.22 482.345 82.88 482.865 82.2C483.385 81.52 483.645 80.6 483.645 79.44V59.88ZM511.681 58.8C512.761 58.8 513.601 59 514.201 59.4C514.521 59.6 514.641 59.9 514.561 60.3L513.421 67.32C513.381 67.76 513.101 67.92 512.581 67.8C512.141 67.64 511.601 67.56 510.961 67.56C510.361 67.56 509.841 67.64 509.401 67.8C508.481 67.96 507.741 68.52 507.181 69.48C506.621 70.4 506.341 71.48 506.341 72.72V89.22C506.341 89.42 506.261 89.6 506.101 89.76C505.981 89.88 505.821 89.94 505.621 89.94H498.601C498.401 89.94 498.221 89.88 498.061 89.76C497.941 89.6 497.881 89.42 497.881 89.22V59.88C497.881 59.68 497.941 59.52 498.061 59.4C498.221 59.24 498.401 59.16 498.601 59.16H505.621C505.821 59.16 505.981 59.24 506.101 59.4C506.261 59.52 506.341 59.68 506.341 59.88V62.22C506.341 62.38 506.361 62.48 506.401 62.52C506.481 62.52 506.561 62.46 506.641 62.34C507.721 59.98 509.401 58.8 511.681 58.8ZM555.386 48C555.586 48 555.746 48.08 555.866 48.24C556.026 48.36 556.106 48.52 556.106 48.72V54.54C556.106 54.74 556.026 54.92 555.866 55.08C555.746 55.2 555.586 55.26 555.386 55.26H547.886C547.686 55.26 547.586 55.36 547.586 55.56V89.28C547.586 89.48 547.506 89.66 547.346 89.82C547.226 89.94 547.066 90 546.866 90H539.846C539.646 90 539.466 89.94 539.306 89.82C539.186 89.66 539.126 89.48 539.126 89.28V55.56C539.126 55.36 539.026 55.26 538.826 55.26H531.626C531.426 55.26 531.246 55.2 531.086 55.08C530.966 54.92 530.906 54.74 530.906 54.54V48.72C530.906 48.52 530.966 48.36 531.086 48.24C531.246 48.08 531.426 48 531.626 48H555.386ZM579.112 76.5C579.112 76.7 579.032 76.88 578.872 77.04C578.752 77.16 578.592 77.22 578.392 77.22H565.192C564.992 77.22 564.892 77.32 564.892 77.52V79.74C564.892 80.74 565.152 81.58 565.672 82.26C566.232 82.9 566.932 83.22 567.772 83.22C568.532 83.22 569.152 82.98 569.632 82.5C570.112 81.98 570.432 81.34 570.592 80.58C570.712 80.18 570.972 79.98 571.372 79.98L578.272 80.34C578.472 80.34 578.632 80.42 578.752 80.58C578.912 80.7 578.972 80.88 578.932 81.12C578.652 84.2 577.572 86.54 575.692 88.14C573.852 89.7 571.212 90.48 567.772 90.48C564.212 90.48 561.432 89.6 559.432 87.84C557.432 86.04 556.432 83.56 556.432 80.4V68.76C556.432 65.72 557.432 63.28 559.432 61.44C561.472 59.6 564.252 58.68 567.772 58.68C571.292 58.68 574.052 59.6 576.052 61.44C578.092 63.28 579.112 65.72 579.112 68.76V76.5ZM567.772 65.94C566.932 65.94 566.232 66.26 565.672 66.9C565.152 67.54 564.892 68.36 564.892 69.36V71.7C564.892 71.9 564.992 72 565.192 72H570.352C570.552 72 570.652 71.9 570.652 71.7V69.36C570.652 68.36 570.372 67.54 569.812 66.9C569.292 66.26 568.612 65.94 567.772 65.94ZM594.446 90.42C591.046 90.42 588.326 89.62 586.286 88.02C584.286 86.38 583.286 84.2 583.286 81.48V81.06C583.286 80.86 583.346 80.7 583.466 80.58C583.626 80.42 583.806 80.34 584.006 80.34H590.606C590.806 80.34 590.966 80.42 591.086 80.58C591.246 80.7 591.326 80.86 591.326 81.06V81.24C591.326 82.08 591.626 82.78 592.226 83.34C592.826 83.86 593.566 84.12 594.446 84.12C595.246 84.12 595.866 83.9 596.306 83.46C596.786 82.98 597.026 82.38 597.026 81.66C597.026 80.78 596.646 80.1 595.886 79.62C595.126 79.1 594.266 78.68 593.306 78.36C592.386 78 591.746 77.76 591.386 77.64C589.186 76.84 587.326 75.74 585.806 74.34C584.326 72.9 583.586 70.84 583.586 68.16C583.586 65.24 584.546 62.94 586.466 61.26C588.386 59.58 590.946 58.74 594.146 58.74C597.466 58.74 600.086 59.62 602.006 61.38C603.966 63.14 604.946 65.52 604.946 68.52C604.946 68.72 604.866 68.9 604.706 69.06C604.586 69.18 604.426 69.24 604.226 69.24H597.806C597.606 69.24 597.426 69.18 597.266 69.06C597.146 68.9 597.086 68.72 597.086 68.52V68.04C597.086 67.24 596.826 66.6 596.306 66.12C595.826 65.6 595.186 65.34 594.386 65.34C593.546 65.34 592.886 65.62 592.406 66.18C591.926 66.7 591.686 67.32 591.686 68.04C591.686 69 592.086 69.76 592.886 70.32C593.726 70.84 594.986 71.42 596.666 72.06C598.386 72.7 599.846 73.36 601.046 74.04C602.286 74.68 603.346 75.62 604.226 76.86C605.106 78.06 605.546 79.58 605.546 81.42C605.546 84.18 604.526 86.38 602.486 88.02C600.486 89.62 597.806 90.42 594.446 90.42ZM624.093 64.38C624.093 64.58 624.013 64.76 623.853 64.92C623.733 65.04 623.573 65.1 623.373 65.1H620.013C619.813 65.1 619.713 65.2 619.713 65.4V79.68C619.713 80.84 619.933 81.64 620.373 82.08C620.813 82.52 621.473 82.72 622.353 82.68H622.773C622.973 82.68 623.133 82.76 623.253 82.92C623.413 83.04 623.493 83.2 623.493 83.4V89.28C623.493 89.48 623.413 89.66 623.253 89.82C623.133 89.94 622.973 90 622.773 90H620.373C617.453 90 615.253 89.52 613.773 88.56C612.293 87.56 611.553 85.68 611.553 82.92V65.4C611.553 65.2 611.453 65.1 611.253 65.1H609.273C609.073 65.1 608.893 65.04 608.733 64.92C608.613 64.76 608.553 64.58 608.553 64.38V59.88C608.553 59.68 608.613 59.52 608.733 59.4C608.893 59.24 609.073 59.16 609.273 59.16H611.253C611.453 59.16 611.553 59.06 611.553 58.86V52.2C611.553 52 611.613 51.84 611.733 51.72C611.893 51.56 612.073 51.48 612.273 51.48H618.993C619.193 51.48 619.353 51.56 619.473 51.72C619.633 51.84 619.713 52 619.713 52.2V58.86C619.713 59.06 619.813 59.16 620.013 59.16H623.373C623.573 59.16 623.733 59.24 623.853 59.4C624.013 59.52 624.093 59.68 624.093 59.88V64.38ZM632.974 55.68C631.614 55.68 630.474 55.24 629.554 54.36C628.674 53.44 628.234 52.3 628.234 50.94C628.234 49.54 628.674 48.4 629.554 47.52C630.434 46.64 631.574 46.2 632.974 46.2C634.374 46.2 635.494 46.64 636.334 47.52C637.214 48.4 637.654 49.54 637.654 50.94C637.654 52.3 637.214 53.44 636.334 54.36C635.454 55.24 634.334 55.68 632.974 55.68ZM629.554 90C629.354 90 629.174 89.94 629.014 89.82C628.894 89.66 628.834 89.48 628.834 89.28V59.88C628.834 59.68 628.894 59.52 629.014 59.4C629.174 59.24 629.354 59.16 629.554 59.16H636.574C636.774 59.16 636.934 59.24 637.054 59.4C637.214 59.52 637.294 59.68 637.294 59.88V89.28C637.294 89.48 637.214 89.66 637.054 89.82C636.934 89.94 636.774 90 636.574 90H629.554ZM671.059 58.68C673.779 58.68 675.819 59.6 677.179 61.44C678.539 63.28 679.219 65.86 679.219 69.18V89.28C679.219 89.48 679.139 89.66 678.979 89.82C678.859 89.94 678.699 90 678.499 90H671.479C671.279 90 671.099 89.94 670.939 89.82C670.819 89.66 670.759 89.48 670.759 89.28V69.72C670.759 68.52 670.519 67.6 670.039 66.96C669.559 66.28 668.919 65.94 668.119 65.94C667.239 65.94 666.539 66.28 666.019 66.96C665.539 67.6 665.299 68.52 665.299 69.72V89.28C665.299 89.48 665.219 89.66 665.059 89.82C664.939 89.94 664.779 90 664.579 90H657.619C657.419 90 657.239 89.94 657.079 89.82C656.959 89.66 656.899 89.48 656.899 89.28V69.72C656.899 68.52 656.659 67.6 656.179 66.96C655.699 66.28 655.059 65.94 654.259 65.94C653.379 65.94 652.679 66.28 652.159 66.96C651.679 67.6 651.439 68.52 651.439 69.72V89.28C651.439 89.48 651.359 89.66 651.199 89.82C651.079 89.94 650.919 90 650.719 90H643.699C643.499 90 643.319 89.94 643.159 89.82C643.039 89.66 642.979 89.48 642.979 89.28V59.88C642.979 59.68 643.039 59.52 643.159 59.4C643.319 59.24 643.499 59.16 643.699 59.16H650.719C650.919 59.16 651.079 59.24 651.199 59.4C651.359 59.52 651.439 59.68 651.439 59.88V60.66C651.439 60.78 651.479 60.86 651.559 60.9C651.639 60.94 651.719 60.92 651.799 60.84C652.599 60.04 653.479 59.48 654.439 59.16C655.399 58.84 656.319 58.68 657.199 58.68C660.319 58.68 662.559 59.92 663.919 62.4L664.039 62.46C664.159 62.46 664.299 62.34 664.459 62.1C665.299 60.82 666.299 59.94 667.459 59.46C668.659 58.94 669.859 58.68 671.059 58.68ZM695.707 90.48C692.147 90.48 689.347 89.58 687.307 87.78C685.307 85.98 684.307 83.52 684.307 80.4V68.76C684.307 65.72 685.327 63.28 687.367 61.44C689.407 59.6 692.187 58.68 695.707 58.68C699.267 58.68 702.067 59.6 704.107 61.44C706.147 63.28 707.167 65.72 707.167 68.76V80.4C707.167 83.52 706.147 85.98 704.107 87.78C702.107 89.58 699.307 90.48 695.707 90.48ZM695.707 83.16C696.587 83.16 697.307 82.84 697.867 82.2C698.427 81.56 698.707 80.74 698.707 79.74V69.36C698.707 68.36 698.427 67.54 697.867 66.9C697.307 66.26 696.587 65.94 695.707 65.94C694.827 65.94 694.107 66.26 693.547 66.9C693.027 67.54 692.767 68.36 692.767 69.36V79.74C692.767 80.74 693.027 81.56 693.547 82.2C694.107 82.84 694.827 83.16 695.707 83.16ZM726.81 58.68C729.53 58.68 731.57 59.58 732.93 61.38C734.29 63.18 734.97 65.7 734.97 68.94V89.28C734.97 89.48 734.89 89.66 734.73 89.82C734.61 89.94 734.45 90 734.25 90H727.23C727.03 90 726.85 89.94 726.69 89.82C726.57 89.66 726.51 89.48 726.51 89.28V69.6C726.51 68.44 726.27 67.54 725.79 66.9C725.35 66.26 724.69 65.94 723.81 65.94C722.89 65.94 722.17 66.28 721.65 66.96C721.17 67.6 720.93 68.52 720.93 69.72V89.28C720.93 89.48 720.85 89.66 720.69 89.82C720.57 89.94 720.41 90 720.21 90H713.19C712.99 90 712.81 89.94 712.65 89.82C712.53 89.66 712.47 89.48 712.47 89.28V59.88C712.47 59.68 712.53 59.52 712.65 59.4C712.81 59.24 712.99 59.16 713.19 59.16H720.21C720.41 59.16 720.57 59.24 720.69 59.4C720.85 59.52 720.93 59.68 720.93 59.88V61.02C720.93 61.14 720.97 61.2 721.05 61.2C721.17 61.2 721.31 61.12 721.47 60.96C722.75 59.44 724.53 58.68 726.81 58.68ZM744.766 55.68C743.406 55.68 742.266 55.24 741.346 54.36C740.466 53.44 740.026 52.3 740.026 50.94C740.026 49.54 740.466 48.4 741.346 47.52C742.226 46.64 743.366 46.2 744.766 46.2C746.166 46.2 747.286 46.64 748.126 47.52C749.006 48.4 749.446 49.54 749.446 50.94C749.446 52.3 749.006 53.44 748.126 54.36C747.246 55.24 746.126 55.68 744.766 55.68ZM741.346 90C741.146 90 740.966 89.94 740.806 89.82C740.686 89.66 740.626 89.48 740.626 89.28V59.88C740.626 59.68 740.686 59.52 740.806 59.4C740.966 59.24 741.146 59.16 741.346 59.16H748.366C748.566 59.16 748.726 59.24 748.846 59.4C749.006 59.52 749.086 59.68 749.086 59.88V89.28C749.086 89.48 749.006 89.66 748.846 89.82C748.726 89.94 748.566 90 748.366 90H741.346ZM765.991 58.68C769.391 58.68 772.151 59.6 774.271 61.44C776.391 63.28 777.451 65.7 777.451 68.7V89.28C777.451 89.48 777.371 89.66 777.211 89.82C777.091 89.94 776.931 90 776.731 90H769.711C769.511 90 769.331 89.94 769.171 89.82C769.051 89.66 768.991 89.48 768.991 89.28V87.96C768.991 87.84 768.951 87.76 768.871 87.72C768.791 87.68 768.711 87.72 768.631 87.84C767.311 89.52 765.271 90.4 762.511 90.48C760.191 90.48 758.171 89.84 756.451 88.56C754.771 87.28 753.931 84.84 753.931 81.24C753.931 77.52 754.951 74.96 756.991 73.56C759.071 72.16 762.051 71.46 765.931 71.46H768.691C768.891 71.46 768.991 71.36 768.991 71.16V69.66C768.991 68.58 768.691 67.7 768.091 67.02C767.531 66.3 766.811 65.94 765.931 65.94C765.251 65.94 764.671 66.16 764.191 66.6C763.751 67 763.471 67.58 763.351 68.34C763.311 68.82 763.051 69.06 762.571 69.06L755.371 69C754.891 69 754.651 68.76 754.651 68.28C754.851 65.36 755.991 63.04 758.071 61.32C760.151 59.56 762.791 58.68 765.991 58.68ZM765.391 83.94C766.311 83.94 767.131 83.64 767.851 83.04C768.611 82.4 768.991 81.56 768.991 80.52V77.7C768.991 77.5 768.891 77.4 768.691 77.4H766.231C765.151 77.4 764.271 77.72 763.591 78.36C762.951 78.96 762.631 79.8 762.631 80.88C762.631 81.88 762.871 82.64 763.351 83.16C763.871 83.68 764.551 83.94 765.391 83.94ZM783.289 90C783.089 90 782.909 89.94 782.749 89.82C782.629 89.66 782.569 89.48 782.569 89.28V48.72C782.569 48.52 782.629 48.36 782.749 48.24C782.909 48.08 783.089 48 783.289 48H790.309C790.509 48 790.669 48.08 790.789 48.24C790.949 48.36 791.029 48.52 791.029 48.72V89.28C791.029 89.48 790.949 89.66 790.789 89.82C790.669 89.94 790.509 90 790.309 90H783.289ZM806.868 90.42C803.468 90.42 800.748 89.62 798.708 88.02C796.708 86.38 795.708 84.2 795.708 81.48V81.06C795.708 80.86 795.768 80.7 795.888 80.58C796.048 80.42 796.228 80.34 796.428 80.34H803.028C803.228 80.34 803.388 80.42 803.508 80.58C803.668 80.7 803.748 80.86 803.748 81.06V81.24C803.748 82.08 804.048 82.78 804.648 83.34C805.248 83.86 805.988 84.12 806.868 84.12C807.668 84.12 808.288 83.9 808.728 83.46C809.208 82.98 809.448 82.38 809.448 81.66C809.448 80.78 809.068 80.1 808.308 79.62C807.548 79.1 806.688 78.68 805.728 78.36C804.808 78 804.168 77.76 803.808 77.64C801.608 76.84 799.748 75.74 798.228 74.34C796.748 72.9 796.008 70.84 796.008 68.16C796.008 65.24 796.968 62.94 798.888 61.26C800.808 59.58 803.368 58.74 806.568 58.74C809.888 58.74 812.508 59.62 814.428 61.38C816.388 63.14 817.368 65.52 817.368 68.52C817.368 68.72 817.288 68.9 817.128 69.06C817.008 69.18 816.848 69.24 816.648 69.24H810.228C810.028 69.24 809.848 69.18 809.688 69.06C809.568 68.9 809.508 68.72 809.508 68.52V68.04C809.508 67.24 809.248 66.6 808.728 66.12C808.248 65.6 807.608 65.34 806.808 65.34C805.968 65.34 805.308 65.62 804.828 66.18C804.348 66.7 804.108 67.32 804.108 68.04C804.108 69 804.508 69.76 805.308 70.32C806.148 70.84 807.408 71.42 809.088 72.06C810.808 72.7 812.268 73.36 813.468 74.04C814.708 74.68 815.768 75.62 816.648 76.86C817.528 78.06 817.968 79.58 817.968 81.42C817.968 84.18 816.948 86.38 814.908 88.02C812.908 89.62 810.228 90.42 806.868 90.42Z" fill="white"/>
<rect x="428" y="124.5" width="170" height="1" rx="0.5" fill="url(#paint0_linear_11_682)"/>
<path fill-rule="evenodd" clip-rule="evenodd" d="M648 125.995C648 126.751 647.376 127.437 646.544 127.506C646.544 127.46 646.521 127.437 646.475 127.437L644.049 135.469L612.783 136.224L609.941 128.261C609.802 128.352 609.664 128.398 609.525 128.398C608.693 128.398 608 127.78 608 126.957C608 126.133 608.624 125.446 609.456 125.446C610.218 125.446 610.912 126.064 610.981 126.888C610.981 127.506 610.565 128.055 610.08 128.261C610.634 128.741 613.061 130.595 616.943 130.114C621.31 129.497 627.133 121.327 627.827 112.952C626.995 112.952 626.371 112.334 626.371 111.51C626.302 110.755 626.995 110.069 627.757 110C628.589 110 629.282 110.618 629.282 111.442C629.352 112.265 628.728 112.883 627.896 112.952C629.005 121.259 635.244 129.153 639.681 129.565C643.355 129.84 645.643 128.055 646.336 127.437C645.643 127.368 645.088 126.751 645.019 126.064C645.019 125.24 645.643 124.554 646.475 124.554C647.307 124.554 648 125.172 648 125.995ZM644.257 137.46V137.941C644.257 138.215 644.049 138.421 643.771 138.421L613.338 139.176C613.061 139.176 612.853 138.97 612.853 138.696V138.215C612.853 137.941 613.061 137.735 613.338 137.735L643.771 136.979C644.049 136.979 644.257 137.185 644.257 137.46ZM644.326 138.97C644.326 139.108 644.187 139.245 643.979 139.245L613.199 140C613.061 140 612.922 139.863 612.853 139.725C612.853 139.588 612.991 139.451 613.199 139.451L643.979 138.696C644.118 138.696 644.257 138.764 644.326 138.97ZM644.257 136.224C644.257 136.362 644.118 136.499 643.91 136.568L613.13 137.323C612.991 137.323 612.853 137.185 612.783 136.979C612.783 136.842 612.922 136.705 613.13 136.705L643.91 135.95C644.049 135.95 644.187 136.087 644.257 136.224ZM635.938 126.476C635.938 126.476 638.364 123.593 638.988 120.503C638.225 120.503 637.601 119.886 637.532 119.13C637.532 118.307 638.156 117.62 638.988 117.62C639.82 117.62 640.513 118.238 640.513 119.062C640.513 119.817 639.889 120.503 639.057 120.503C639.057 120.503 639.034 120.503 638.988 120.503C639.127 121.327 639.612 126.27 641.622 128.741C641.622 128.741 637.879 129.016 635.938 126.476ZM643.91 130.595C643.91 130.595 642.801 131.762 641.692 132.105C640.513 132.38 638.156 132.723 637.74 134.508L642.731 134.439L643.91 130.595ZM632.402 129.84C629.906 128.192 628.867 125.927 628.867 125.927L629.075 134.714L635.452 134.577C635.868 133.135 634.967 131.487 632.402 129.84ZM627.48 125.995C627.48 125.995 626.579 128.261 624.153 130.046C621.726 131.831 620.894 133.478 621.38 134.92L627.757 134.783L627.48 125.995ZM619.023 134.989C618.537 133.135 616.111 132.998 615.002 132.723C613.823 132.449 612.645 131.35 612.645 131.35L614.031 135.057L619.023 134.989ZM615.002 129.428C616.873 126.888 617.151 121.876 617.22 121.053C617.174 121.098 617.151 121.121 617.151 121.121C616.319 121.121 615.626 120.503 615.626 119.68C615.626 118.856 616.25 118.169 617.081 118.169C617.913 118.169 618.537 118.787 618.607 119.611C618.607 120.366 617.983 120.984 617.22 121.053C618.052 124.073 620.548 126.888 620.548 126.888C618.815 129.565 615.002 129.428 615.002 129.428Z" fill="url(#paint1_linear_11_682)"/>
<rect x="658" y="124.5" width="170" height="1" rx="0.5" fill="url(#paint2_linear_11_682)"/>
<defs>
<linearGradient id="paint0_linear_11_682" x1="514.738" y1="125.5" x2="514.738" y2="124.501" gradientUnits="userSpaceOnUse">
<stop stop-color="#C22622"/>
<stop offset="0.36" stop-color="#FF3837"/>
<stop offset="0.97" stop-color="#FFB32F"/>
<stop offset="1" stop-color="#FFB32F"/>
</linearGradient>
<linearGradient id="paint1_linear_11_682" x1="628.409" y1="140.014" x2="628.409" y2="110.027" gradientUnits="userSpaceOnUse">
<stop stop-color="#C22622"/>
<stop offset="0.36" stop-color="#FF3837"/>
<stop offset="0.97" stop-color="#FFB32F"/>
<stop offset="1" stop-color="#FFB32F"/>
</linearGradient>
<linearGradient id="paint2_linear_11_682" x1="744.738" y1="125.5" x2="744.738" y2="124.501" gradientUnits="userSpaceOnUse">
<stop stop-color="#C22622"/>
<stop offset="0.36" stop-color="#FF3837"/>
<stop offset="0.97" stop-color="#FFB32F"/>
<stop offset="1" stop-color="#FFB32F"/>
</linearGradient>
</defs>
</svg>
