<svg width="191" height="55" viewBox="0 0 191 55" fill="none" xmlns="http://www.w3.org/2000/svg">
<path fill-rule="evenodd" clip-rule="evenodd" d="M16.3928 28.2717C16.4395 28.3184 16.4395 28.3652 16.4629 28.412C16.5097 28.5289 16.5331 28.6692 16.5097 28.7861C16.4863 28.9264 16.346 29.0667 16.2291 29.1603C16.1122 29.2538 15.9485 29.3006 15.7848 29.324C15.4574 29.3473 15.2002 29.2772 14.8962 29.1837C14.8494 29.1603 14.7793 29.1369 14.7325 29.1369C14.7325 29.1603 14.7091 29.1837 14.7091 29.207C14.6623 29.3006 14.6389 29.3941 14.6156 29.4877C14.5688 29.628 14.522 29.7683 14.4519 29.8852C14.3349 30.119 14.1713 30.3295 14.031 30.54C13.8673 30.7972 13.5866 31.1713 13.5866 31.4753C13.5866 31.5221 13.5866 31.5689 13.5866 31.6156C13.5866 31.6624 13.5633 31.6624 13.5633 31.7092H13.6334C13.6334 32.0132 13.6334 32.2704 13.7036 32.5042C13.727 32.6679 13.7971 32.8316 13.8439 32.9953C13.8673 33.0421 13.8906 33.0888 13.8906 33.1356C13.9374 33.2993 13.9374 33.3461 13.8906 33.5098C13.8439 33.6033 13.7971 33.6968 13.7503 33.7904C13.7036 33.8605 13.7036 33.8371 13.727 33.9307C13.7503 34.2347 13.8439 34.5153 13.914 34.7959C13.9452 34.905 13.9686 35.022 13.9842 35.1467C14.0076 35.2636 14.031 35.4039 14.031 35.5208C14.0543 35.591 14.031 35.6611 14.0543 35.7079C14.0543 35.8716 14.0543 36.1756 14.0543 36.3393C14.0543 36.386 14.0543 36.386 14.0543 36.4328C14.0543 36.5263 14.0543 36.6433 14.031 36.7368C14.0076 36.8537 14.031 37.0408 14.0543 37.1343C14.0777 37.2513 14.1479 37.3214 14.1946 37.415C14.3116 37.5786 14.4051 37.7657 14.522 37.9294C14.7325 38.2568 14.8026 38.3737 14.9663 38.7479C15.0131 38.9115 15.0599 39.0752 15.1066 39.2389C15.2236 39.6131 15.2937 40.0808 15.3405 40.4783C15.3639 40.7355 15.4106 40.9694 15.4574 41.2032L15.6445 42.2789C15.6679 42.3958 15.6912 42.4894 15.738 42.6063L15.5509 42.5829C15.4808 42.5595 15.3872 42.5829 15.3171 42.5829C15.3171 42.653 15.5509 43.074 15.434 43.3312C15.4106 43.378 15.2002 43.4247 15.1534 43.4247L14.7793 43.4715C14.6701 43.4715 14.561 43.4793 14.4519 43.4949C14.3349 43.5183 13.8439 43.6586 13.7971 43.5183C13.7971 43.5027 13.7893 43.4793 13.7737 43.4481C13.7737 43.4325 13.7737 43.4169 13.7737 43.4013C13.7036 43.1207 13.9608 43.2143 14.1011 43.0974C14.1946 43.0272 14.2648 42.8869 14.2882 42.77C14.2414 42.7934 14.0076 42.8635 13.9608 42.8635C13.9608 42.8401 13.9608 42.7934 13.9608 42.77C13.9608 42.7466 13.9608 42.6998 13.9608 42.6764C13.9374 42.6297 13.9374 42.4894 13.9374 42.466C13.9842 41.9047 13.914 41.3903 13.8205 40.8758C13.7503 40.5017 13.6802 40.1509 13.61 39.8002L13.3996 38.9116C13.3762 38.8648 13.3762 38.7946 13.3528 38.7479C13.3528 38.6309 13.3294 38.4672 13.306 38.3503C13.2593 38.21 13.1657 38.2568 13.0722 38.1399C12.9553 37.9762 12.8617 37.298 12.8617 37.0642C12.8383 37.111 12.8383 37.415 12.8383 37.4617C12.8617 37.5319 12.8851 38.0229 12.8851 38.0697C12.8617 38.21 12.8851 38.3503 12.8851 38.4672C12.9319 38.6777 13.0488 38.9116 13.0956 39.122C13.1657 39.2857 13.1891 39.4494 13.2359 39.6365C13.2593 39.7534 13.2593 39.8703 13.2827 40.0106C13.3294 40.2445 13.3528 40.5017 13.3762 40.7589C13.3996 41.0161 13.423 41.2734 13.4463 41.5306C13.4619 41.593 13.4697 41.6631 13.4697 41.7411C13.4931 41.9281 13.5165 42.1152 13.5399 42.3023L13.61 42.8869C13.61 42.9181 13.61 42.9493 13.61 42.9804C13.61 43.0272 13.61 43.0272 13.61 43.074C13.5399 43.0973 13.4463 43.1441 13.3762 43.1675C13.2827 43.1675 13.1891 43.1909 13.0956 43.2143C13.0956 43.3546 13.0956 43.5417 13.0722 43.6586C13.0254 43.682 12.9787 43.682 12.9553 43.7053C12.7916 43.7287 12.7214 43.7521 12.5577 43.7287C12.4174 43.682 12.3239 43.7755 12.207 43.7989C12.1602 43.8223 12.1368 43.8223 12.09 43.8223C11.7393 43.869 11.2482 43.869 10.9208 43.8223C10.6636 43.7755 10.4064 43.682 10.4765 43.378C10.5233 43.1441 10.7104 43.2143 10.8974 43.1909C10.9442 43.1675 10.9676 43.1909 11.0144 43.1675C11.1079 43.1441 11.2482 43.074 11.3184 43.0272C11.3651 43.0038 11.5288 42.9337 11.5288 42.9103C11.4821 42.9103 11.2482 42.7466 11.2248 42.6998C11.2404 42.6686 11.256 42.6297 11.2716 42.5829C11.3417 42.3491 11.3885 42.0684 11.4119 41.8346C11.4119 41.7878 11.4119 41.7411 11.4119 41.6943C11.4353 41.6475 11.4353 41.6008 11.4353 41.554C11.4353 41.5306 11.4353 41.5072 11.4353 41.4838C11.4353 41.4527 11.4353 41.4293 11.4353 41.4137C11.4587 41.3201 11.4353 41.2266 11.4587 41.1331C11.4587 41.0863 11.4587 41.0863 11.4587 41.0629V40.8992C11.4821 40.7121 11.4587 40.4081 11.4821 40.2678C11.5054 40.1743 11.4821 40.0574 11.5054 39.9872C11.5054 39.8937 11.5054 39.4962 11.5054 39.3792C11.5054 39.1922 11.4353 39.0986 11.3651 38.9349C11.3417 38.8648 11.3417 38.7712 11.3651 38.6777C11.3651 38.5842 11.4353 38.5608 11.4821 38.4906C11.4353 38.4906 11.4119 38.4672 11.3885 38.4439C11.295 38.4205 11.2482 38.3971 11.2482 38.2568C11.2248 38.1633 11.3184 38.0229 11.3184 37.906C11.3184 37.7423 11.295 37.6254 11.3184 37.4851C11.3417 37.3448 11.3651 37.2513 11.3651 37.0876C11.3651 36.9239 11.3651 36.807 11.3417 36.6433C11.3417 36.4328 11.3184 36.2223 11.295 36.0119C11.295 35.8716 11.2716 35.4974 11.3184 35.3571C11.2248 35.4039 11.0378 35.4507 10.9208 35.474C10.8273 35.474 10.687 35.474 10.5701 35.474C10.4765 35.474 10.1959 35.4507 10.1258 35.4273C10.079 35.4273 10.0322 35.4273 10.0088 35.4273C9.93869 35.4273 9.167 35.4273 9.05008 35.4273L8.58239 35.4507C8.44209 35.4741 8.30178 35.4741 8.13809 35.4974C7.78733 35.5442 7.24949 35.6377 6.9221 35.7313C6.79739 35.778 6.68047 35.8248 6.57134 35.8716C6.45442 35.9184 6.3375 35.9885 6.24396 36.0353C6.12704 36.082 6.01011 36.1522 5.89319 36.199C5.78407 36.2457 5.68273 36.3003 5.5892 36.3627L5.37874 36.5263C5.21505 36.6433 5.26181 36.7602 5.16828 36.9005C5.12151 36.9005 5.09812 36.9005 5.07474 36.8771C5.05136 36.8537 5.02797 36.8537 5.02797 36.8303C5.00459 36.7602 5.02797 36.69 5.02797 36.6433C5.09812 36.503 5.14489 36.5497 5.14489 36.3159C5.14489 36.199 5.21505 36.1054 5.30858 36.0353C5.44889 35.9184 5.61258 35.8482 5.77627 35.7313C5.83863 35.6845 5.8854 35.6299 5.91658 35.5676L5.98673 35.474C5.98673 35.4585 5.98673 35.4429 5.98673 35.4273C6.0335 35.3337 6.08027 35.2402 6.12704 35.1467C6.17381 35.0999 6.17381 35.0531 6.24396 35.0531C6.40765 35.0297 6.59472 35.1233 6.7818 35.1467C7.10918 35.1701 7.41318 35.0999 7.69379 35.0064C7.95102 34.8894 8.04455 34.8193 8.2784 34.7024C8.44209 34.5854 8.62916 34.4685 8.81624 34.3984C8.86301 34.375 8.95654 34.3516 8.97993 34.3282C8.95654 34.3282 8.95654 34.3048 8.93316 34.3048L8.30178 33.767C8.16148 33.6267 7.90425 33.4396 7.76394 33.2993L7.5301 33.1122C7.50671 33.0888 7.50671 33.0888 7.48333 33.0655L7.13256 32.7381C7.10138 32.7225 7.078 32.7069 7.06241 32.6913L6.36088 32.1535C6.34529 32.1223 6.32191 32.0989 6.29073 32.0833C6.17381 32.0132 6.01011 31.9664 5.84642 31.9898C5.65935 32.0132 5.63596 31.8729 5.75289 31.8027C5.79965 31.7559 5.89319 31.7559 5.98673 31.7793C6.01011 31.7793 6.05688 31.8027 6.08027 31.8027C6.29073 31.8261 6.36088 31.5689 6.68826 31.8261C6.75841 31.8729 6.80518 31.8962 6.85195 31.943C7.08579 32.1301 7.2261 32.0599 7.50671 32.0132C7.69379 31.9898 7.76394 32.0833 7.78733 32.2704C7.88086 32.7147 7.90425 32.7849 8.30178 32.9953C8.51224 33.1122 8.7227 33.2292 8.93316 33.3227C9.00331 33.3461 9.05008 33.3695 9.12023 33.4162C9.15141 33.4318 9.18259 33.4474 9.21377 33.463C9.44762 33.5565 9.471 33.5565 9.72823 33.6267L9.82177 33.6735C10.079 33.7436 10.1959 33.8839 10.4298 34.0008C10.4531 34.0242 10.4765 34.0242 10.4765 33.9775C10.4765 33.9307 10.4765 33.8605 10.4765 33.7904C10.4765 33.5799 10.2193 32.9719 10.1725 32.6913C10.1725 32.5276 10.1725 32.3405 10.1491 32.2002C10.1024 32.0365 10.0556 31.9196 10.0088 31.7793C9.86853 31.4519 9.775 31.2415 9.84515 30.8907C9.86853 30.7738 9.89192 30.6569 9.93869 30.5633C9.96207 30.4464 9.98546 30.4698 9.93869 30.423C9.89192 30.3763 9.89192 30.3295 9.82177 30.2126C9.70484 30.0723 9.70484 29.9787 9.79838 29.815C9.96207 29.5344 9.82177 29.3707 9.93869 29.02C10.1024 28.5757 10.3596 28.9264 10.6402 28.9966C10.6402 28.9498 10.6636 28.8797 10.6636 28.8329C10.687 28.599 10.7338 28.2483 10.687 28.0144C10.687 27.9677 10.6792 27.9209 10.6636 27.8741C10.6636 27.8274 10.6402 27.7572 10.6402 27.7338C10.5701 27.7572 10.4298 27.804 10.3596 27.8274C10.1258 27.8975 9.89192 27.9911 9.68146 28.0846C9.51777 28.1547 9.35408 28.2249 9.19039 28.3184C9.12023 28.3652 9.00331 28.4587 8.95654 28.5289C8.90978 28.5757 8.86301 28.6224 8.81624 28.6926C8.79285 28.716 8.76947 28.7394 8.74609 28.7861L8.69932 28.903C8.58239 29.1369 8.55901 29.4643 8.60578 29.6981C8.62137 29.7761 8.64475 29.8462 8.67593 29.9086C8.67593 29.9242 8.68373 29.9398 8.69932 29.9553C8.76947 30.0723 8.83962 30.1892 8.97993 30.2593C9.12023 30.3295 9.28393 30.3295 9.37746 30.2126C9.42423 30.1424 9.42423 30.0255 9.42423 29.9086C9.471 29.932 9.49438 30.1658 9.49438 30.2126C9.49438 30.3996 9.42423 30.4698 9.26054 30.54C8.88639 30.6803 8.60578 30.5166 8.37193 30.236C8.34855 30.1892 8.32517 30.1658 8.30178 30.119C8.2784 30.0956 8.2784 30.0723 8.2784 30.0489C8.26281 30.0333 8.24722 30.0177 8.23163 30.0021C8.20824 29.9086 8.18486 29.815 8.16148 29.6981C8.09132 29.2304 8.25501 28.6224 8.53563 28.2483C8.67593 28.0612 8.83962 27.9209 9.00331 27.7806C9.0267 27.7572 9.09685 27.7338 9.12023 27.7104C9.00331 27.6871 8.83962 27.5701 8.76947 27.4766C8.69932 27.3831 8.67593 27.2194 8.7227 27.0323C8.74608 26.892 8.81624 26.7517 8.88639 26.6581C8.93316 26.588 9.09685 26.4243 9.167 26.4009C9.167 26.2606 9.19039 26.1905 9.26054 26.0969C9.30731 26.0034 9.40085 25.9332 9.471 25.8631C9.49438 25.8631 9.49438 25.8631 9.51777 25.8397C9.54115 25.8163 9.56454 25.7929 9.58792 25.7695C9.56454 25.7462 9.54115 25.6994 9.51777 25.676C9.50218 25.6292 9.49438 25.5825 9.49438 25.5357C9.471 25.4188 9.49438 25.3486 9.54115 25.2785C9.56454 25.2083 9.61131 25.1849 9.65807 25.1382C9.70484 25.0914 9.75161 25.068 9.79838 25.0446C9.84515 25.029 9.88412 25.0134 9.9153 24.9979C9.9153 24.9745 9.89192 24.9745 9.86853 24.9511C9.82177 24.9043 9.79838 24.8342 9.82177 24.764C9.86853 24.7172 9.98546 24.6705 10.079 24.6705C10.079 24.6471 10.0556 24.6471 10.0556 24.6237L9.96207 24.5769C9.89192 24.5068 9.82177 24.4132 9.72823 24.3665C9.65028 24.3041 9.56454 24.2574 9.471 24.2262C9.33069 24.2028 9.19039 24.1794 9.00331 24.2028C8.93316 24.2028 8.86301 24.2262 8.79285 24.2496C8.67593 24.2963 8.46547 24.3899 8.37193 24.5068V24.5302C8.25501 24.6471 8.23163 24.764 8.25501 24.9745C8.2706 25.0368 8.29399 25.0992 8.32517 25.1615C8.34855 25.1849 8.37194 25.2083 8.39532 25.2317C8.44209 25.2551 8.44209 25.2551 8.48886 25.2317C8.53563 25.2083 8.58239 25.1615 8.60578 25.1148C8.67593 24.9979 8.60578 24.9745 8.58239 24.9277C8.62916 24.9043 8.67593 24.8809 8.7227 24.9043C8.81624 24.9511 8.86301 25.0914 8.81624 25.1615C8.76947 25.2551 8.69932 25.3019 8.58239 25.3019C8.55122 25.3019 8.52783 25.3019 8.51224 25.3019C8.46547 25.3019 8.46547 25.2785 8.44209 25.2785C8.32517 25.2551 8.30178 25.2551 8.18486 25.1615C8.09132 25.068 8.09132 24.8809 8.11471 24.7406C8.1303 24.6471 8.16148 24.5613 8.20824 24.4834L8.2784 24.3665C8.32517 24.2963 8.39532 24.2496 8.46547 24.1794C8.55901 24.0625 8.76947 23.9689 8.93316 23.9222C9.167 23.8754 9.33069 23.8754 9.58792 23.9222C9.82177 23.9456 10.0088 24.0391 10.1959 24.2028C10.2427 24.2184 10.2817 24.2418 10.3128 24.2729C10.4765 24.3665 10.4765 24.3431 10.5701 24.3665C10.5701 24.2262 10.5467 24.2262 10.5701 24.0625C10.6636 23.4077 11.2482 23.5246 11.3417 23.7585C11.3573 23.7897 11.3651 23.8286 11.3651 23.8754C11.3651 23.9689 11.3184 24.0625 11.2482 24.0859C11.2248 24.1093 11.1781 24.1326 11.1313 24.1093C11.0845 24.1093 11.0611 24.0859 11.0378 24.0625C11.1079 24.0625 11.1313 24.0391 11.1547 24.0157C11.2482 23.8754 11.0611 23.7585 10.9208 23.8988C10.7571 24.0625 10.8974 24.3197 10.991 24.3431C11.0144 24.3431 11.1079 24.3431 11.1547 24.3197C11.4353 24.2963 11.4587 24.0391 11.599 23.852L11.6691 23.7585C11.7159 23.6649 11.7783 23.5792 11.8562 23.5013C11.9264 23.4311 12.0433 23.3376 12.1368 23.2674C12.168 23.2518 12.1992 23.2284 12.2304 23.1973C12.4408 23.0803 12.8617 23.057 13.0956 23.1271C13.2125 23.1739 13.2827 23.1973 13.3762 23.2908C13.3918 23.2908 13.3996 23.2986 13.3996 23.3142C13.4308 23.3454 13.4619 23.3843 13.4931 23.4311C13.61 23.4311 13.727 23.4779 13.7971 23.5714L13.8673 23.6416C13.8829 23.6883 13.9062 23.7351 13.9374 23.7819C13.9374 23.8286 13.9608 23.8988 13.9842 23.9456C13.9842 23.9767 13.9842 24.0079 13.9842 24.0391C14.0076 24.1093 13.9842 24.156 14.0543 24.1794C14.1245 24.2262 14.218 24.1794 14.2648 24.1326C14.2648 24.156 14.2414 24.1794 14.2414 24.2028C14.2648 24.1794 14.2648 24.1794 14.2882 24.156C14.3817 24.1093 14.4986 24.1093 14.6156 24.1326C14.6857 24.156 14.7559 24.2262 14.8026 24.2496C14.8494 24.2729 15.0365 24.2729 15.3639 24.46C15.434 24.5068 15.6445 24.5302 15.7848 24.7406C15.7848 24.7562 15.7926 24.7718 15.8082 24.7874C15.9485 25.0446 15.9017 25.5357 15.738 25.7929C15.7146 25.8163 15.6679 25.8865 15.6445 25.9098C15.5509 25.98 15.5276 26.0034 15.4106 26.0735C15.1768 26.2138 15.0599 26.2372 15.0599 26.4711C15.0131 26.4243 15.0131 26.3074 15.0365 26.2372C14.9897 26.284 14.8962 26.4009 14.9429 26.5178C14.8962 26.4945 14.8728 26.4477 14.8728 26.4009C14.8494 26.3308 14.8728 26.284 14.8962 26.2372C14.8026 26.284 14.7793 26.4711 14.7793 26.5646C14.826 26.588 14.826 26.588 14.8728 26.6815C14.9429 26.7985 14.9429 26.7517 14.9897 26.8452C15.0131 26.8686 15.0365 26.8686 15.0365 26.892C15.0832 26.9388 15.1066 26.9621 15.1534 26.9855C15.2236 27.0791 15.2002 27.1726 15.2236 27.3129C15.2236 27.3597 15.2236 27.3831 15.2236 27.4064C15.2236 27.5701 15.2469 27.6169 15.2703 27.6637C15.2002 27.6637 15.1534 27.6403 15.13 27.5935C15.1066 27.5234 15.13 27.4766 15.0832 27.4532C15.0832 27.4766 15.1066 27.5234 15.1066 27.5701C15.0599 27.5701 15.0209 27.5468 14.9897 27.5C14.9663 27.4298 14.9897 27.3831 14.9897 27.3363C14.9897 27.3129 14.9196 27.2428 14.8962 27.1492C14.8962 27.1258 14.8962 27.1258 14.8728 27.1025C14.8728 27.1492 14.8728 27.1726 14.8728 27.2194C14.8728 27.3363 14.8728 27.4064 14.8962 27.5234C14.8962 27.5935 14.9196 27.6403 14.9196 27.7104C14.9663 27.8507 14.9663 28.1547 14.9429 28.3184L14.9196 28.6224C14.9196 28.6692 14.9196 28.6692 14.9196 28.716C14.9429 28.716 14.9429 28.7394 14.9663 28.7394C15.0365 28.7861 15.1534 28.8329 15.2469 28.8563C15.2937 28.8563 15.3171 28.8797 15.3639 28.8797C15.6679 28.9498 16.2759 28.9264 16.346 28.5523C16.3694 28.3652 16.2992 28.2249 16.2992 28.1781C16.2291 28.1547 16.2057 28.1314 16.1122 28.1547C16.042 28.1547 16.0186 28.2015 15.9485 28.2249C15.9719 28.2483 15.9719 28.2483 15.9719 28.2717C15.9952 28.3184 15.9251 28.3652 15.8783 28.3886C15.434 28.5523 15.4808 27.6871 16.0186 27.8975C16.1122 27.9443 16.2057 27.9911 16.2525 28.0846C16.2681 28.1158 16.2836 28.1469 16.2992 28.1781C16.346 28.1781 16.3694 28.2483 16.3928 28.2717ZM9.12023 27.6169L9.167 27.6403C9.19039 27.6403 9.21377 27.6403 9.23716 27.6169L9.96207 27.1492C10.0556 27.0791 10.2193 26.9621 10.3362 26.8686C10.383 26.8218 10.383 26.8218 10.383 26.7985C10.4064 26.7049 10.4064 26.6815 10.4064 26.6114L10.4765 26.284C10.4453 26.2996 10.4142 26.3152 10.383 26.3308L10.2895 26.3775C10.2583 26.3931 10.2193 26.4087 10.1725 26.4243C10.1414 26.4399 10.1102 26.4477 10.079 26.4477L9.72823 26.5412C9.68146 26.5412 9.63469 26.5646 9.61131 26.5646C9.61131 26.627 9.6191 26.6815 9.63469 26.7283C9.75161 26.8686 9.89192 26.7517 9.93869 26.7283C9.9153 26.7751 9.89192 26.7985 9.89192 26.8218C9.775 26.9621 9.54115 26.9621 9.37746 26.8686C9.35408 26.8452 9.28393 26.7985 9.26054 26.7283C9.19039 26.7283 9.12023 26.8686 9.07347 26.9154C9.00331 27.0323 9.00331 27.1492 9.00331 27.3129C9.00331 27.4298 9.05008 27.5468 9.12023 27.6169ZM12.1836 26.0502C12.207 26.2138 12.2304 26.4243 12.2771 26.588C12.3005 26.6114 12.3005 26.6348 12.3239 26.6815C12.3395 26.7439 12.3629 26.7985 12.394 26.8452C12.4408 26.892 12.4642 26.9388 12.511 27.0089C12.5344 27.0557 12.5811 27.1024 12.6045 27.1726C12.6513 27.2661 12.6513 27.3363 12.6279 27.4766C12.6279 27.5 12.6279 27.5234 12.6045 27.5468C12.6513 27.5234 12.7682 27.3831 12.8617 27.3363L12.6279 26.9621C12.5344 26.7985 12.5344 26.7517 12.4408 26.5646C12.394 26.4243 12.3473 26.2606 12.3005 26.1203C12.2771 26.0034 12.2304 25.8865 12.207 25.7695C12.207 25.7228 12.1836 25.676 12.1836 25.6526C12.1602 25.676 12.1602 25.7695 12.1602 25.8163L12.1836 26.0502ZM9.775 26.2138C10.0322 26.1671 10.2427 26.1203 10.4765 25.9566C10.5467 25.9098 10.6168 25.8631 10.6636 25.7695C10.6948 25.7384 10.7182 25.715 10.7338 25.6994L10.8507 25.5591C10.8974 25.4889 10.9442 25.4655 10.991 25.4188C10.9208 25.4188 10.8039 25.4422 10.7338 25.4655C10.5935 25.4889 10.4531 25.5591 10.3128 25.6058C10.2817 25.6214 10.2505 25.637 10.2193 25.6526C10.1258 25.6994 10.1258 25.7695 10.1959 25.8397C10.2427 25.8865 10.3362 25.8865 10.4064 25.8631C10.4298 25.8397 10.4531 25.8163 10.4765 25.8163C10.4765 25.8397 10.4298 25.8865 10.4064 25.9098C10.383 25.9332 10.3596 25.9332 10.3362 25.9566C10.1959 26.0268 10.0322 26.0502 9.89192 25.9566C9.86853 25.9332 9.86853 25.9332 9.84515 25.9332C9.79838 25.9566 9.68146 26.1671 9.65807 26.2372C9.70484 26.2372 9.72823 26.2138 9.775 26.2138ZM10.2427 24.8576C10.2895 24.8576 10.4765 24.8108 10.4999 24.7874C10.3596 24.7874 10.1024 24.7406 10.0322 24.8809C10.0322 24.9043 10.0322 24.9043 10.0322 24.9277C10.0556 24.9277 10.1491 24.8809 10.2427 24.8576ZM13.306 25.3486C13.0722 25.3954 13.1657 25.5357 13.0488 25.5825C13.002 25.6058 12.9319 25.5591 12.8851 25.5123L12.7682 25.3954C12.7214 25.372 12.6045 25.2551 12.5577 25.2785C12.5344 25.3019 12.511 25.3252 12.4876 25.3486C12.394 25.4889 12.2537 25.5591 12.2304 25.5825C12.2304 25.6058 12.3707 26.0268 12.3707 26.0502C12.4174 26.1203 12.4408 26.1905 12.4642 26.2606L12.5577 26.4711C12.5811 26.5178 12.5811 26.5412 12.6045 26.588C12.698 26.7517 12.7682 26.892 12.8851 27.0323C12.9163 27.0635 12.9397 27.0947 12.9553 27.1258L13.0254 27.196L13.2359 27.0557C13.2827 27.0323 13.4463 26.9154 13.5165 26.8686C13.6334 26.7517 13.6568 26.7283 13.8673 26.7283C13.914 26.6348 13.8439 26.4477 13.8673 26.3775L13.8906 26.284L13.5165 26.0969C13.4931 26.0735 13.423 26.0502 13.3996 26.0268C13.3762 26.0034 13.3528 25.9566 13.3528 25.8865C13.3528 25.7462 13.4697 25.7695 13.4931 25.6526C13.4931 25.5825 13.4697 25.5357 13.5399 25.5357C13.5399 25.5123 13.5165 25.4889 13.5399 25.4422C13.5633 25.4422 13.5866 25.3954 13.61 25.372C13.61 25.3019 13.4697 25.2785 13.5633 25.2083C13.6802 25.0914 13.8673 25.0446 13.8906 25.0212C13.9374 24.9745 13.8673 24.9277 13.9374 24.8108C13.9608 24.7874 13.9842 24.764 14.0076 24.7406C14.1245 24.6471 14.0777 24.5769 14.2882 24.3665C14.218 24.3665 14.1479 24.4132 14.1479 24.4834C14.1011 24.46 14.1245 24.3899 14.1245 24.3665C14.1401 24.3353 14.1479 24.3119 14.1479 24.2963C14.1713 24.2729 14.1713 24.2729 14.1946 24.2496C14.1011 24.2963 14.0076 24.3431 13.8906 24.2729C13.8439 24.3665 13.8205 24.46 13.7503 24.5302C13.727 24.5769 13.727 24.5769 13.6802 24.6237C13.5165 24.8342 13.5866 24.8809 13.5866 25.0914C13.5866 25.2083 13.4463 25.0914 13.3996 25.1615C13.3996 25.1849 13.3996 25.2083 13.3996 25.2317C13.3294 25.2785 13.3996 25.2785 13.2827 25.2785C13.306 25.3019 13.306 25.3019 13.306 25.3486ZM11.8796 23.7351C11.7627 23.852 11.7159 23.9923 11.6691 24.0625C11.5756 24.2028 11.4821 24.2963 11.3417 24.3665L11.295 24.3899C11.3417 24.3899 11.3885 24.3665 11.4353 24.3665C11.5054 24.3665 11.5522 24.3665 11.599 24.3431C11.7159 24.2963 11.7861 24.156 11.8094 24.0391C11.8328 23.9456 11.8796 23.852 11.903 23.7585L11.9497 23.6416C11.9264 23.6649 11.903 23.7117 11.8796 23.7351Z" fill="url(#paint0_linear_11_18)"/>
<path fill-rule="evenodd" clip-rule="evenodd" d="M13.984 44.5939C14.0152 44.5939 14.0464 44.5861 14.0776 44.5706C14.062 44.5861 14.0386 44.5939 14.0074 44.5939H13.984ZM14.1477 44.5472C14.1633 44.5472 14.1711 44.5472 14.1711 44.5472H14.1477ZM14.2179 44.5238C14.2646 44.5082 14.3192 44.4848 14.3816 44.4536C14.3504 44.4692 14.3192 44.4848 14.288 44.5004C14.2724 44.5004 14.2491 44.5082 14.2179 44.5238ZM14.3816 44.4536C14.3972 44.4536 14.405 44.4536 14.405 44.4536H14.3816ZM31.4755 10.6398C31.4755 10.6866 31.4755 10.7334 31.4755 10.7802L31.4989 10.8971V11.0374V11.1543V11.318L31.5223 11.4115V11.5752V11.6688C31.5223 11.7311 31.5223 11.7935 31.5223 11.8558V11.926C31.5379 11.9883 31.5457 12.0585 31.5457 12.1364V12.1598C31.5769 12.9393 31.6158 13.7422 31.6626 14.5684C31.6938 15.0985 31.7172 15.6285 31.7328 16.1586L31.7561 16.2989V16.4392L31.7795 16.6964V16.8367V16.977V17.1173L31.8029 17.2342V17.2576V17.3745V17.3979V17.4213V17.5148L31.8263 17.6552V17.7019V17.7253V17.7955V17.8188V17.9358V17.9592V18.0059V18.0293V18.0995L31.8497 18.2398V18.2865V18.3567V18.3801V18.5204V18.5438V18.5905L31.8731 18.6607V18.6841V18.8244V18.9179V18.9647V18.9881V19.1284L31.8965 19.2219V19.2687V19.2921V19.4324V19.5961L31.9198 19.7364V19.7597V19.9001V19.9234V20.0637V20.0871V20.2041V20.2274V20.2508V20.2976L31.9432 20.4145V20.5314V20.5782V20.625V20.7419V20.7653V20.8354L31.9666 20.929V20.9524V21.116V21.1394V21.2563V21.3031V21.3265V21.4434V21.4902V21.5136L31.99 21.5603V21.6773V21.7007V21.7474C31.99 21.7942 31.99 21.841 31.99 21.8877C31.99 21.9501 31.99 22.0124 31.99 22.0748V22.0982V22.1917L32.0134 22.3086V22.332V22.3788C32.0134 22.4256 32.0134 22.4645 32.0134 22.4957V22.5191V22.5659V22.6828V22.7529V22.7763V22.8231C32.0134 22.8855 32.0134 22.94 32.0134 22.9868V23.0102C32.0134 23.0414 32.0212 23.0803 32.0368 23.1271V23.244V23.2674C32.0368 23.3142 32.0368 23.3687 32.0368 23.4311V23.5012V23.548V23.5948C32.0368 23.6416 32.0368 23.6883 32.0368 23.7351V23.8052V23.852V23.8988C32.0368 23.9455 32.0368 24.0001 32.0368 24.0625L32.0601 24.1092V24.156V24.2028C32.0601 24.2651 32.0601 24.3197 32.0601 24.3665V24.46V24.4834V24.5302C32.0601 24.5769 32.0601 24.6237 32.0601 24.6705C32.0601 24.7328 32.0601 24.7874 32.0601 24.8342V24.9277V24.9978C32.0601 25.0446 32.0601 25.0992 32.0601 25.1615C32.0601 25.2083 32.0601 25.2551 32.0601 25.3018V25.372V25.4655C32.0601 25.5123 32.0679 25.5669 32.0835 25.6292C32.0835 25.676 32.0835 25.7228 32.0835 25.7695C32.0835 25.8319 32.0835 25.8865 32.0835 25.9332V26.0969C32.0835 26.1437 32.0835 26.1904 32.0835 26.2372C32.0835 26.2996 32.0835 26.3541 32.0835 26.4009C32.0835 26.4477 32.0835 26.4944 32.0835 26.5412C32.0835 26.7595 32.0835 26.9699 32.0835 27.1726C32.0835 27.2194 32.0835 27.2739 32.0835 27.3363C32.0835 27.3831 32.0835 27.4376 32.0835 27.5C32.0835 27.5467 32.0835 27.5935 32.0835 27.6403C32.0835 27.7026 32.0835 27.7572 32.0835 27.804V27.8274V27.9209C32.0601 27.9677 31.8965 28.3652 31.5457 29.0433C31.4521 29.246 31.3352 29.4721 31.1949 29.7215C31.1014 29.893 31.0001 30.0723 30.8909 30.2593C30.8442 30.3217 30.7974 30.3918 30.7506 30.4698C30.7194 30.5166 30.6961 30.5633 30.6805 30.6101C30.6181 30.688 30.5635 30.7738 30.5168 30.8673C30.5012 30.8829 30.4856 30.9063 30.47 30.9375C30.4388 30.9687 30.4154 30.9998 30.3999 31.031C30.3687 31.0778 30.3375 31.1245 30.3063 31.1713V31.1947C30.3063 31.1947 30.2985 31.1947 30.2829 31.1947C30.2362 31.2727 30.1816 31.3584 30.1192 31.4519L30.0959 31.4753C30.0491 31.5533 30.0023 31.6234 29.9556 31.6858C29.9556 31.7014 29.9478 31.7092 29.9322 31.7092C29.9166 31.7403 29.901 31.7637 29.8854 31.7793C29.8386 31.8417 29.7919 31.9118 29.7451 31.9898C29.7451 32.0054 29.7373 32.0209 29.7217 32.0365C29.7061 32.0521 29.6905 32.0677 29.6749 32.0833C29.6438 32.1301 29.6048 32.1846 29.558 32.247C29.5112 32.3094 29.4645 32.3717 29.4177 32.4341C29.3865 32.4808 29.3476 32.5354 29.3008 32.5978C29.2696 32.6289 29.2384 32.6679 29.2072 32.7147C29.1917 32.7303 29.1761 32.7459 29.1605 32.7615C29.1449 32.7926 29.1215 32.8238 29.0903 32.855C29.0436 32.9173 29.0046 32.9719 28.9734 33.0187C28.9266 33.0655 28.8877 33.1122 28.8565 33.159C28.8097 33.2058 28.7707 33.2525 28.7396 33.2993C28.724 33.3149 28.7084 33.3305 28.6928 33.3461C28.6928 33.3617 28.685 33.3772 28.6694 33.3928C28.6538 33.3928 28.6382 33.4006 28.6226 33.4162C28.6226 33.4318 28.6148 33.4474 28.5993 33.463C28.5525 33.5253 28.5057 33.5877 28.459 33.6501C28.4434 33.6657 28.4278 33.6812 28.4122 33.6968C28.3966 33.7124 28.381 33.728 28.3654 33.7436C28.3498 33.7592 28.3342 33.7748 28.3186 33.7904C28.2719 33.8371 28.2251 33.8917 28.1783 33.9541C28.1472 33.9852 28.1238 34.0086 28.1082 34.0242C28.0926 34.0398 28.077 34.0632 28.0614 34.0944C28.0458 34.11 28.0302 34.1255 28.0146 34.1411C28.0614 30.4698 27.8977 25.4421 27.243 19.105C27.1494 16.7899 27.0091 14.5684 26.8454 12.5807C26.7753 11.622 26.6817 10.71 26.6116 9.86816H21.9347H31.4521C31.4521 9.9617 31.4521 10.0474 31.4521 10.1254V10.2189C31.4521 10.2813 31.4599 10.3359 31.4755 10.3826V10.4995C31.4755 10.5463 31.4755 10.5931 31.4755 10.6398ZM22.6129 38.4906C22.644 38.475 22.6674 38.4672 22.683 38.4672C22.6674 38.4672 22.6518 38.475 22.6362 38.4906H22.6129ZM23.1039 38.21C23.1351 38.1944 23.1585 38.1788 23.1741 38.1632C23.1741 38.1788 23.1663 38.1866 23.1507 38.1866C23.1351 38.2022 23.1195 38.21 23.1039 38.21ZM23.1741 38.1632C23.2364 38.1477 23.291 38.1243 23.3378 38.0931C23.3066 38.1087 23.2832 38.1165 23.2676 38.1165C23.2364 38.1321 23.2053 38.1477 23.1741 38.1632ZM23.4079 38.0463C23.4235 38.0307 23.4391 38.0229 23.4547 38.0229H23.4313L23.4079 38.0463ZM23.4547 38.0229L23.4781 37.9996C23.4781 37.9996 23.4703 38.0073 23.4547 38.0229ZM23.5249 37.9762C23.5404 37.9606 23.5638 37.945 23.595 37.9294C23.5794 37.9294 23.5638 37.9372 23.5482 37.9528C23.5326 37.9528 23.5249 37.9606 23.5249 37.9762ZM23.595 37.9294C23.6418 37.8982 23.6885 37.867 23.7353 37.8359L23.7119 37.8592C23.6807 37.8748 23.6418 37.8982 23.595 37.9294ZM23.8055 37.7891C23.8211 37.7735 23.8444 37.7579 23.8756 37.7423L23.8522 37.7657C23.8366 37.7813 23.8211 37.7891 23.8055 37.7891ZM23.8756 37.7423C23.9847 37.68 24.0939 37.6098 24.203 37.5319C24.125 37.5786 24.0471 37.6332 23.9692 37.6956C23.938 37.7111 23.9068 37.7267 23.8756 37.7423ZM24.2498 37.5085C24.2498 37.4929 24.2576 37.4851 24.2732 37.4851L24.2498 37.5085ZM24.2732 37.4851C24.3043 37.4539 24.3433 37.4305 24.3901 37.4149C24.3589 37.4305 24.3277 37.4461 24.2965 37.4617V37.4851H24.2732ZM24.3901 37.4149C24.4213 37.3994 24.4446 37.3838 24.4602 37.3682C24.4446 37.3682 24.429 37.376 24.4135 37.3916C24.4135 37.3916 24.4057 37.3994 24.3901 37.4149ZM24.5304 37.3214C24.546 37.3058 24.5694 37.2902 24.6005 37.2746C24.5849 37.2746 24.5694 37.2824 24.5538 37.298L24.5304 37.3214ZM24.6005 37.2746C24.6629 37.2123 24.733 37.1577 24.811 37.1109L24.7876 37.1343C24.7252 37.1811 24.6629 37.2279 24.6005 37.2746ZM24.811 37.1109C24.8266 37.0954 24.85 37.0798 24.8811 37.0642L24.8578 37.0876C24.8422 37.0876 24.8266 37.0954 24.811 37.1109ZM24.8811 37.0642C24.9903 36.9862 25.0994 36.9083 25.2085 36.8303C25.1773 36.8459 25.1462 36.8615 25.115 36.8771L25.0916 36.9005L25.0682 36.9239C25.0526 36.9395 25.037 36.9473 25.0215 36.9473C24.9747 36.9784 24.9279 37.0174 24.8811 37.0642ZM25.2085 36.8303C25.2709 36.768 25.3332 36.7134 25.3956 36.6666L25.3722 36.69C25.3254 36.7212 25.2787 36.7602 25.2319 36.807C25.2163 36.807 25.2085 36.8147 25.2085 36.8303ZM25.4424 36.6433C25.5671 36.5341 25.6918 36.4328 25.8165 36.3393C25.8009 36.3393 25.7853 36.3471 25.7697 36.3626C25.7542 36.3782 25.7308 36.4016 25.6996 36.4328C25.684 36.4484 25.6606 36.464 25.6294 36.4796C25.6139 36.4952 25.5905 36.5107 25.5593 36.5263C25.5437 36.5419 25.5359 36.5575 25.5359 36.5731C25.5203 36.5731 25.5047 36.5809 25.4891 36.5965C25.4891 36.5965 25.4813 36.6043 25.4658 36.6199C25.4502 36.6199 25.4424 36.6277 25.4424 36.6433ZM25.8165 36.3393C25.8789 36.2769 25.949 36.2145 26.027 36.1522C26.0114 36.1678 25.9958 36.1834 25.9802 36.199C25.9179 36.2457 25.8633 36.2925 25.8165 36.3393ZM26.027 36.1522C26.0426 36.1366 26.0582 36.1288 26.0737 36.1288H26.0504C26.0504 36.1444 26.0426 36.1522 26.027 36.1522ZM26.0737 36.1288C26.2141 36.0041 26.3544 35.8794 26.4947 35.7547C26.5103 35.6767 26.5258 35.5988 26.5414 35.5208L26.5181 35.5676C26.5181 35.5832 26.5181 35.6066 26.5181 35.6377L26.4947 35.6845C26.4947 35.7001 26.4947 35.7235 26.4947 35.7547C26.4791 35.7702 26.4557 35.7858 26.4245 35.8014C26.4089 35.817 26.3933 35.8326 26.3777 35.8482C26.3622 35.8638 26.3388 35.8794 26.3076 35.895C26.292 35.9105 26.2764 35.9261 26.2608 35.9417C26.2141 35.9885 26.1595 36.0353 26.0971 36.082C26.0971 36.0976 26.0893 36.1132 26.0737 36.1288ZM26.5414 35.5208V35.474V35.4974V35.5208ZM26.5414 35.474C26.5414 35.4429 26.5492 35.4117 26.5648 35.3805V35.4039H26.5414V35.4507C26.5414 35.4662 26.5414 35.474 26.5414 35.474ZM26.5648 35.3571C26.5804 35.2168 26.6038 35.0765 26.635 34.9362C26.635 34.9674 26.6272 34.9908 26.6116 35.0064C26.6116 35.0219 26.6116 35.0375 26.6116 35.0531V35.0999C26.596 35.1311 26.5882 35.17 26.5882 35.2168V35.2636C26.5726 35.2948 26.5648 35.3259 26.5648 35.3571ZM26.635 34.8894C26.6506 34.8427 26.6584 34.8037 26.6584 34.7725V34.8193C26.6584 34.8349 26.6506 34.8427 26.635 34.8427C26.635 34.8583 26.635 34.8738 26.635 34.8894ZM26.6584 34.7725C26.6739 34.6478 26.6895 34.5309 26.7051 34.4217V34.4685C26.6895 34.5465 26.6739 34.6322 26.6584 34.7257V34.7725ZM26.7051 34.4217C26.7207 34.375 26.7285 34.3282 26.7285 34.2814V34.3282C26.7285 34.3594 26.7207 34.3906 26.7051 34.4217ZM26.7519 34.1411V34.0944V34.1177V34.1411ZM26.7519 34.0944C26.7675 33.9852 26.7831 33.8761 26.7987 33.767C26.7987 33.7982 26.7987 33.8293 26.7987 33.8605C26.7831 33.9385 26.7675 34.0164 26.7519 34.0944ZM26.822 33.5799L26.8454 33.5098V33.5331L26.822 33.5799ZM26.8454 33.5098C26.8454 33.4786 26.8454 33.4474 26.8454 33.4162V33.463V33.5098ZM26.9156 32.9953V32.9251V32.9485V32.9953ZM26.9624 32.4808V32.4107C26.9624 32.4263 26.9624 32.4497 26.9624 32.4808ZM26.9624 32.4107L26.9857 32.3405V32.3639L26.9624 32.4107ZM27.0325 31.8962V31.8261V31.8495C27.0325 31.8651 27.0325 31.8806 27.0325 31.8962ZM27.1027 31.2882V31.2181C27.1027 31.2337 27.1027 31.2571 27.1027 31.2882ZM27.1728 30.3061V30.2126C27.1728 30.2437 27.1728 30.2749 27.1728 30.3061Z" fill="#FF4A1B"/>
<path d="M19.6196 39.7067C20.2978 38.4907 20.8122 37.1345 21.2332 35.6612C21.2332 35.6612 23.1507 30.7505 23.1039 22.7998C23.0805 18.6608 23.9457 16.907 24.8343 16.907C25.6762 16.907 26.5414 18.4036 26.7752 20.9057C27.2663 26.1204 26.7519 33.2059 26.4011 35.6846C24.9045 37.0175 23.0805 38.3037 20.859 39.2157C20.859 39.2157 20.859 39.2235 20.859 39.239C20.8434 39.239 20.8356 39.239 20.8356 39.239C20.82 39.239 20.8122 39.239 20.8122 39.239C20.8122 39.2546 20.8044 39.2624 20.7888 39.2624C20.4303 39.4183 20.0561 39.5586 19.6664 39.6833C19.6664 39.6833 19.6586 39.6833 19.643 39.6833C19.643 39.6833 19.6352 39.6833 19.6196 39.6833C19.6196 39.6989 19.6196 39.7067 19.6196 39.7067Z" fill="url(#paint1_linear_11_18)"/>
<path d="M21.2332 35.6611C23.1273 28.9498 22.5427 19.9702 22.0984 13.0251C22.0984 13.0251 22.0984 13.0173 22.0984 13.0017C22.0984 12.9861 22.0984 12.9705 22.0984 12.9549C22.0828 12.8614 22.075 12.7756 22.075 12.6977C22.075 12.6821 22.075 12.6743 22.075 12.6743C22.075 12.6743 22.075 12.6665 22.075 12.6509C22.0438 12.1053 22.0126 11.5752 21.9815 11.0608C22.4258 18.2164 23.3144 28.3184 21.2332 35.6611Z" fill="url(#paint2_linear_11_18)"/>
<path d="M26.4011 35.6845C26.7519 33.2058 27.2663 26.1203 26.7752 20.9056C26.5414 18.4035 25.6762 16.9069 24.8343 16.9069C23.9457 16.9069 23.0805 18.6607 23.1039 22.7997C23.1507 30.7504 21.2332 35.6611 21.2332 35.6611C23.3144 28.3184 22.4258 18.2164 21.9815 11.0608C21.9581 10.6632 21.9347 10.4294 21.9113 10.0319L26.5648 9.86816C26.6583 10.71 26.7285 11.5986 26.7986 12.5807C26.9623 14.545 27.1026 16.7666 27.1962 19.105C27.2663 21.1394 27.3131 23.244 27.2897 25.372C27.2897 25.3876 27.2897 25.4032 27.2897 25.4188C27.2897 25.4344 27.2897 25.4422 27.2897 25.4422C27.2897 25.4422 27.2897 25.4499 27.2897 25.4655C27.2897 25.4811 27.2897 25.4889 27.2897 25.4889C27.2897 25.5045 27.2897 25.5123 27.2897 25.5123C27.2195 29.02 26.9857 32.551 26.4011 35.6845Z" fill="#FF7123"/>
<path d="M15.644 55H15.5973C15.4881 55 15.3712 55 15.2465 55H15.2231C15.1608 55 15.1062 55 15.0594 55H15.036C14.9893 55 14.9503 54.9922 14.9191 54.9766H14.8723C14.8412 54.9766 14.81 54.9766 14.7788 54.9766H14.7554C14.7242 54.9766 14.6931 54.9766 14.6619 54.9766H14.6385C14.6229 54.9766 14.5995 54.9766 14.5683 54.9766H14.545C14.5294 54.961 14.506 54.9532 14.4748 54.9532H14.4514C14.4358 54.9532 14.4202 54.9532 14.4047 54.9532H14.3813C14.3657 54.9532 14.3501 54.9532 14.3345 54.9532H14.3111C14.2799 54.9532 14.2566 54.9455 14.241 54.9299H14.2176C14.202 54.9299 14.1864 54.9299 14.1708 54.9299H14.1474C14.1318 54.9299 14.1163 54.9299 14.1007 54.9299C14.0695 54.9299 14.0461 54.9299 14.0305 54.9299C14.0149 54.9143 13.9993 54.9065 13.9837 54.9065H13.9604C13.9448 54.9065 13.9292 54.9065 13.9136 54.9065C13.898 54.9065 13.8824 54.9065 13.8668 54.9065H13.8434C13.8278 54.9065 13.8123 54.9065 13.7967 54.9065V54.8831C13.7811 54.8831 13.7655 54.8831 13.7499 54.8831H13.7265C13.7265 54.8831 13.7187 54.8831 13.7031 54.8831H13.6797C13.6642 54.8831 13.6486 54.8831 13.633 54.8831C13.6174 54.8675 13.6018 54.8597 13.5862 54.8597C13.5706 54.8597 13.555 54.8597 13.5394 54.8597C13.5238 54.8597 13.5083 54.8597 13.4927 54.8597C13.4771 54.8597 13.4615 54.8597 13.4459 54.8597V54.8363C13.4303 54.8363 13.4147 54.8363 13.3991 54.8363C13.3835 54.8363 13.3679 54.8363 13.3524 54.8363C13.3368 54.8363 13.329 54.8363 13.329 54.8363H13.3056L13.2822 54.8129H13.2588H13.2354H13.2121H13.1887H13.1419V54.7896H13.0951H13.0717H13.0484H13.025L12.9782 54.7662H12.9548H12.9314H12.9081H12.8847V54.7428H12.8613H12.8379H12.7911H12.7678L12.721 54.7194H12.6976H12.6742H12.6508H12.6274L12.5807 54.696H12.5573C15.8077 53.7373 19.8064 51.9367 23.3609 48.6161C24.7639 47.3066 26.1202 45.7398 27.3128 43.8691L27.3362 43.8457L27.3596 43.8223V43.7989H27.383V43.7755L27.4064 43.7521L27.4297 43.7288V43.7054L27.4531 43.682V43.6586H27.4765V43.6352L27.4999 43.6118L27.5233 43.5885V43.5651L27.5467 43.5417V43.5183H27.5701V43.4949L27.5934 43.4715C27.609 43.4403 27.6324 43.4092 27.6636 43.378V43.3546L27.687 43.3312L27.7104 43.3078L27.7337 43.2611H27.7571V43.2143H27.7805L27.8039 43.1909V43.1675L27.8273 43.1441L27.8507 43.1208C27.8663 43.1052 27.874 43.0896 27.874 43.074C27.8896 43.0428 27.9052 43.0194 27.9208 43.0038C27.952 42.9727 27.9754 42.9337 27.991 42.8869C31.1712 37.9762 31.8494 32.9018 31.9663 30.7271V30.7738C31.9663 30.8362 31.9663 30.8907 31.9663 30.9375C31.9663 30.9999 31.9663 31.0622 31.9663 31.1246C31.9663 31.1714 31.9663 31.2103 31.9663 31.2415C31.9507 31.3039 31.9429 31.3662 31.9429 31.4286C31.9429 31.4754 31.9429 31.5221 31.9429 31.5689V31.5923C31.9429 31.6235 31.9429 31.6546 31.9429 31.6858C31.9273 31.7482 31.9195 31.8105 31.9195 31.8729C31.9195 31.9197 31.9195 31.9742 31.9195 32.0366C31.9195 32.0678 31.9195 32.0989 31.9195 32.1301L31.8962 32.247V32.2704C31.8962 32.3328 31.8962 32.4029 31.8962 32.4809C31.8962 32.5121 31.8962 32.5432 31.8962 32.5744V32.6212C31.8806 32.6524 31.8728 32.6913 31.8728 32.7381C31.8728 32.7693 31.8728 32.8005 31.8728 32.8316C31.8728 32.8628 31.8728 32.894 31.8728 32.9252C31.8728 32.9564 31.8728 32.9875 31.8728 33.0187C31.8572 33.0967 31.8494 33.1746 31.8494 33.2526C31.8494 33.2837 31.8494 33.3227 31.8494 33.3695C31.8338 33.4007 31.826 33.424 31.826 33.4396C31.826 33.5644 31.8182 33.6891 31.8026 33.8138C31.8026 33.8294 31.8026 33.8372 31.8026 33.8372C31.787 34.0087 31.7714 34.1723 31.7559 34.3282V34.4218V34.4919C31.7247 34.8037 31.6935 35.1155 31.6623 35.4273V35.4741C31.6623 35.5053 31.6623 35.5286 31.6623 35.5442C31.6623 35.5754 31.6545 35.6066 31.6389 35.6378C31.6389 35.6845 31.6389 35.7235 31.6389 35.7547L31.6155 35.8482C31.6155 35.895 31.6155 35.9418 31.6155 35.9885C31.6155 36.0197 31.6078 36.0509 31.5922 36.0821C31.5922 36.1444 31.5844 36.2068 31.5688 36.2691C31.5688 36.3159 31.5688 36.3705 31.5688 36.4328C31.5532 36.464 31.5454 36.4952 31.5454 36.5264C31.5454 36.5731 31.5376 36.6277 31.522 36.6901C31.522 36.7524 31.5142 36.807 31.4986 36.8538C31.4986 36.9317 31.4908 37.0174 31.4752 37.111C31.4752 37.1733 31.4674 37.2357 31.4519 37.2981C31.4519 37.3292 31.4519 37.3526 31.4519 37.3682C31.4363 37.4306 31.4285 37.4851 31.4285 37.5319C31.4129 37.5943 31.4051 37.6566 31.4051 37.719C31.3895 37.7502 31.3817 37.7813 31.3817 37.8125V37.8593L31.3583 37.9528C31.3583 38.0152 31.3505 38.0697 31.3349 38.1165V38.1399C31.3193 38.2178 31.3038 38.2958 31.2882 38.3737C31.2882 38.4361 31.2804 38.4985 31.2648 38.5608C31.2492 38.6388 31.2414 38.7167 31.2414 38.7947L31.218 38.8414V38.8882C31.218 38.9194 31.2102 38.9505 31.1946 38.9817C31.179 39.0597 31.1712 39.1298 31.1712 39.1922C31.1557 39.239 31.1401 39.2935 31.1245 39.3559V39.4026C31.1089 39.465 31.0933 39.5352 31.0777 39.6131C31.0777 39.6755 31.0699 39.7456 31.0543 39.8236C31.0387 39.8859 31.0231 39.9561 31.0076 40.034C30.992 40.0964 30.9764 40.1587 30.9608 40.2211V40.2679V40.2913C30.9452 40.338 30.9374 40.3848 30.9374 40.4316C30.9218 40.4783 30.914 40.5173 30.914 40.5485C30.8984 40.5797 30.8906 40.603 30.8906 40.6186C30.875 40.6966 30.8595 40.7667 30.8439 40.8291C30.8283 40.8915 30.8127 40.9616 30.7971 41.0396C30.7815 41.1019 30.7659 41.1643 30.7503 41.2266C30.7347 41.3046 30.7191 41.3747 30.7036 41.4371C30.688 41.4994 30.6724 41.5618 30.6568 41.6242C30.6412 41.7021 30.6256 41.7723 30.61 41.8346C30.5944 41.897 30.5788 41.9593 30.5633 42.0217C30.5633 42.0529 30.5555 42.0841 30.5399 42.1152C30.5399 42.1464 30.5321 42.1854 30.5165 42.2322C30.5009 42.2477 30.4931 42.2711 30.4931 42.3023C30.4775 42.3491 30.4697 42.3881 30.4697 42.4192V42.4426H30.4463C30.4307 42.4894 30.4151 42.5439 30.3996 42.6063C30.384 42.6687 30.3684 42.731 30.3528 42.7934C30.3372 42.8557 30.3216 42.9259 30.306 43.0038C30.2904 43.0662 30.2748 43.1208 30.2593 43.1675C30.2281 43.2455 30.2047 43.3156 30.1891 43.378C30.1735 43.4403 30.1579 43.5027 30.1423 43.5651C30.1112 43.6274 30.0878 43.6898 30.0722 43.7521C30.0566 43.8145 30.041 43.8769 30.0254 43.9392C30.0098 43.9392 30.002 43.947 30.002 43.9626V43.986V44.0094C29.9864 44.0405 29.9708 44.0795 29.9553 44.1263C29.9397 44.1886 29.9241 44.2432 29.9085 44.29C29.8929 44.3056 29.8851 44.3212 29.8851 44.3368C29.8695 44.3991 29.8539 44.4537 29.8383 44.5004C29.8072 44.5472 29.7838 44.594 29.7682 44.6407V44.6641C29.737 44.7265 29.7136 44.7966 29.698 44.8746C29.6824 44.8902 29.6746 44.9136 29.6746 44.9447C29.6591 44.9759 29.6435 44.9993 29.6279 45.0149C29.6123 45.0617 29.5967 45.1084 29.5811 45.1552C29.5811 45.1864 29.5733 45.2176 29.5577 45.2487V45.2721C29.5421 45.3033 29.5265 45.3345 29.511 45.3657C29.4954 45.3968 29.4798 45.4202 29.4642 45.4358V45.4826L29.4408 45.506V45.5527L29.4174 45.5761C29.4018 45.6229 29.3862 45.6697 29.3706 45.7164C29.3551 45.7476 29.3395 45.7788 29.3239 45.81L29.3005 45.8801C29.2849 45.9269 29.2693 45.9737 29.2537 46.0204C29.2381 46.036 29.2303 46.0516 29.2303 46.0672C29.1992 46.114 29.1758 46.1529 29.1602 46.1841C29.1446 46.2309 29.129 46.2777 29.1134 46.3244C29.0978 46.3556 29.0822 46.379 29.0667 46.3946C29.0511 46.4413 29.0277 46.4881 28.9965 46.5349C28.9809 46.5816 28.9653 46.6206 28.9497 46.6518C28.9341 46.683 28.9186 46.7142 28.903 46.7453C28.8874 46.7921 28.8718 46.8389 28.8562 46.8856L28.8094 46.9558C28.7938 46.987 28.7782 47.026 28.7627 47.0727C28.7315 47.1195 28.7081 47.1663 28.6925 47.213L28.6457 47.2598C28.6301 47.3066 28.6146 47.3455 28.599 47.3767C28.5834 47.4079 28.5678 47.4313 28.5522 47.4469C28.5366 47.4781 28.521 47.5092 28.5054 47.5404C28.4898 47.5716 28.4742 47.6106 28.4587 47.6573C28.4431 47.6729 28.4275 47.6885 28.4119 47.7041C28.3963 47.7509 28.3729 47.7976 28.3417 47.8444C28.3261 47.8756 28.3106 47.9068 28.295 47.9379C28.2794 47.9691 28.2638 47.9925 28.2482 48.0081C28.217 48.0549 28.1858 48.1016 28.1547 48.1484L28.1313 48.1952C28.1157 48.2419 28.0923 48.2809 28.0611 48.3121C28.0299 48.3589 27.9988 48.4056 27.9676 48.4524C27.952 48.4992 27.9364 48.5381 27.9208 48.5693C27.9052 48.5849 27.8896 48.6005 27.874 48.6161C27.8429 48.6629 27.8117 48.7096 27.7805 48.7564C27.7805 48.7876 27.7727 48.811 27.7571 48.8265C27.7259 48.8577 27.7026 48.8889 27.687 48.9201C27.6558 48.9669 27.6246 49.0136 27.5934 49.0604C27.5623 49.0916 27.5389 49.1305 27.5233 49.1773C27.5077 49.1773 27.4999 49.1851 27.4999 49.2007C27.4687 49.2475 27.4375 49.2942 27.4064 49.341C27.3596 49.3878 27.3206 49.4345 27.2894 49.4813C27.2583 49.5281 27.2271 49.5748 27.1959 49.6216C27.1647 49.6684 27.1258 49.7152 27.079 49.7619C27.0478 49.8087 27.0166 49.8477 26.9854 49.8788C26.9543 49.9256 26.9153 49.9724 26.8685 50.0192C26.8529 50.0503 26.8373 50.0737 26.8218 50.0893C26.8062 50.1049 26.7906 50.1283 26.775 50.1595C26.7438 50.1906 26.7126 50.2218 26.6814 50.253C26.6814 50.2686 26.6737 50.2842 26.6581 50.2998C26.6269 50.3309 26.5957 50.3621 26.5645 50.3933C26.5645 50.3933 26.5567 50.4011 26.5411 50.4167C26.5411 50.4167 26.5333 50.4245 26.5178 50.4401C26.5022 50.4557 26.4866 50.4712 26.471 50.4868C26.4554 50.518 26.4398 50.5414 26.4242 50.557C26.393 50.5882 26.3619 50.6271 26.3307 50.6739C26.2995 50.6895 26.2761 50.7051 26.2605 50.7207C26.2449 50.7519 26.2216 50.7752 26.1904 50.7908C26.1748 50.8064 26.1592 50.822 26.1436 50.8376V50.861C26.128 50.8766 26.1124 50.8922 26.0968 50.9078C26.0501 50.9545 26.0033 51.0013 25.9565 51.0481C25.9254 51.0792 25.8864 51.1104 25.8396 51.1416C25.824 51.1572 25.8084 51.1806 25.7928 51.2118C25.7617 51.2273 25.7383 51.2507 25.7227 51.2819C25.7071 51.2975 25.6915 51.3131 25.6759 51.3287C25.6447 51.3443 25.6214 51.3599 25.6058 51.3754C25.5902 51.391 25.5824 51.3988 25.5824 51.3988C25.5512 51.43 25.5278 51.4534 25.5122 51.469L25.4655 51.4924C25.4343 51.5391 25.3953 51.5781 25.3485 51.6093C25.3329 51.6249 25.3096 51.6405 25.2784 51.6561C25.2628 51.6872 25.2394 51.7106 25.2082 51.7262C25.1771 51.7574 25.1381 51.7886 25.0913 51.8197C25.0445 51.8665 24.9978 51.9055 24.951 51.9367C24.9198 51.9523 24.8964 51.9678 24.8809 51.9834C24.8653 51.999 24.8497 52.0146 24.8341 52.0302C24.7873 52.0614 24.7327 52.1004 24.6704 52.1471C24.6392 52.1783 24.6002 52.2095 24.5535 52.2407C24.5379 52.2407 24.5223 52.2485 24.5067 52.264C24.4755 52.2952 24.4365 52.3264 24.3898 52.3576C24.3742 52.3732 24.3586 52.3888 24.343 52.4044C24.3274 52.4044 24.3118 52.4121 24.2962 52.4277C24.2339 52.4745 24.1637 52.5135 24.0858 52.5447C24.0702 52.5602 24.0468 52.5836 24.0156 52.6148C24 52.6148 23.9845 52.6226 23.9689 52.6382L23.9455 52.6616C23.9299 52.6616 23.9143 52.6616 23.8987 52.6616V52.685H23.8753C23.8753 52.685 23.8675 52.6928 23.8519 52.7084C23.8363 52.7084 23.8286 52.7161 23.8286 52.7317H23.8052C23.7896 52.7473 23.774 52.7551 23.7584 52.7551C23.7428 52.7707 23.7272 52.7785 23.7116 52.7785C23.696 52.7941 23.6805 52.8097 23.6649 52.8253L23.6415 52.8487H23.6181L23.5947 52.872H23.5713L23.5479 52.8954H23.5246L23.5012 52.9188H23.4778C23.4778 52.9344 23.47 52.9422 23.4544 52.9422C23.4388 52.9578 23.4232 52.9656 23.4076 52.9656C23.392 52.9812 23.3765 52.989 23.3609 52.989C23.3453 53.0046 23.3297 53.0123 23.3141 53.0123V53.0357C23.2673 53.0513 23.2284 53.0669 23.1972 53.0825C23.1816 53.0825 23.1738 53.0903 23.1738 53.1059C23.1582 53.1059 23.1426 53.1137 23.127 53.1293H23.1036L23.0803 53.1527H23.0569C23.0569 53.1682 23.0491 53.176 23.0335 53.176H23.0101V53.1994H22.9867H22.9633V53.2228H22.9399C22.9244 53.2228 22.9088 53.2306 22.8932 53.2462C22.8932 53.2462 22.8854 53.2462 22.8698 53.2462V53.2696H22.8464C22.7685 53.3008 22.6983 53.3397 22.636 53.3865H22.6126H22.5892V53.4099H22.5658L22.5424 53.4333H22.519H22.4956V53.4567H22.4723C22.4567 53.4567 22.4489 53.4567 22.4489 53.4567C22.4177 53.4722 22.3865 53.4878 22.3553 53.5034V53.5268H22.332C22.3008 53.5424 22.2696 53.558 22.2384 53.5736C22.2228 53.5736 22.2072 53.5814 22.1916 53.597H22.1683H22.1449C22.1449 53.6125 22.1371 53.6203 22.1215 53.6203H22.0981V53.6437H22.0747H22.0513L22.028 53.6671C22.028 53.6671 22.0202 53.6671 22.0046 53.6671L21.9812 53.6905C21.9656 53.6905 21.95 53.6905 21.9344 53.6905V53.7139C21.9188 53.7139 21.9032 53.7217 21.8877 53.7373H21.8643C21.8175 53.7529 21.7785 53.7684 21.7473 53.784C21.7318 53.784 21.7162 53.7918 21.7006 53.8074C21.685 53.8074 21.6694 53.8152 21.6538 53.8308C21.6538 53.8308 21.646 53.8308 21.6304 53.8308L21.607 53.8542H21.5837H21.5603L21.5369 53.8776H21.5135H21.4901V53.901H21.4667H21.4433C21.4278 53.901 21.42 53.9087 21.42 53.9243C21.4044 53.9243 21.3888 53.9243 21.3732 53.9243C21.3264 53.9399 21.2797 53.9633 21.2329 53.9945H21.2095C21.2095 53.9945 21.2017 53.9945 21.1861 53.9945L21.1627 54.0179H21.1394L21.116 54.0413C21.1004 54.0413 21.0926 54.0413 21.0926 54.0413H21.0692C21.0536 54.0569 21.0458 54.0646 21.0458 54.0646H21.0224H20.999V54.088H20.9757C20.9601 54.088 20.9445 54.088 20.9289 54.088C20.9289 54.1036 20.9289 54.1114 20.9289 54.1114H20.9055C20.8432 54.127 20.773 54.1504 20.6951 54.1816H20.6717L20.6483 54.205C20.6327 54.205 20.6249 54.205 20.6249 54.205C20.6249 54.205 20.6171 54.205 20.6015 54.205L20.5781 54.2283H20.5547H20.5314L20.508 54.2517H20.4846C20.4846 54.2517 20.4768 54.2517 20.4612 54.2517C20.4612 54.2517 20.4534 54.2595 20.4378 54.2751C20.4378 54.2751 20.43 54.2751 20.4144 54.2751C20.3833 54.2907 20.3443 54.2985 20.2975 54.2985C20.2819 54.3141 20.2585 54.3219 20.2274 54.3219C20.2118 54.3375 20.1962 54.3453 20.1806 54.3453H20.1572C20.1572 54.3453 20.1494 54.3453 20.1338 54.3453V54.3686H20.1104H20.0871H20.0637V54.392H20.0403H20.0169C20.0013 54.392 19.9935 54.392 19.9935 54.392H19.9701V54.4154C19.9545 54.4154 19.939 54.4154 19.9234 54.4154C19.9078 54.431 19.8922 54.4388 19.8766 54.4388C19.8142 54.4544 19.7597 54.47 19.7129 54.4856H19.6895C19.6895 54.4856 19.6817 54.4856 19.6661 54.4856C19.6661 54.4856 19.6583 54.4856 19.6428 54.4856V54.5089C19.6272 54.5089 19.6194 54.5089 19.6194 54.5089H19.596H19.5726L19.5492 54.5323C19.5336 54.5323 19.5258 54.5323 19.5258 54.5323H19.5024C19.5024 54.5323 19.4947 54.5323 19.4791 54.5323C19.4791 54.5323 19.4713 54.5323 19.4557 54.5323C19.4557 54.5479 19.4479 54.5557 19.4323 54.5557H19.4089H19.3855C19.3699 54.5557 19.3621 54.5635 19.3621 54.5791C19.3466 54.5791 19.3388 54.5791 19.3388 54.5791C19.3076 54.5791 19.2764 54.5869 19.2452 54.6025C19.2296 54.6025 19.2218 54.6025 19.2218 54.6025C19.2062 54.6025 19.1907 54.6025 19.1751 54.6025L19.1517 54.6259C19.1517 54.6259 19.1439 54.6259 19.1283 54.6259H19.1049H19.0581C19.0581 54.6415 19.0504 54.6493 19.0348 54.6493C19.0192 54.6493 19.0114 54.6493 19.0114 54.6493C18.9958 54.6493 18.988 54.6493 18.988 54.6493H18.9646C18.9646 54.6493 18.9568 54.657 18.9412 54.6726H18.9178C18.9022 54.6726 18.8945 54.6726 18.8945 54.6726H18.8711C18.8711 54.6726 18.8633 54.6726 18.8477 54.6726C18.8009 54.6882 18.7619 54.7038 18.7308 54.7194H18.7074C18.7074 54.7194 18.6996 54.7194 18.684 54.7194C18.6684 54.7194 18.6606 54.7194 18.6606 54.7194C18.645 54.7194 18.6294 54.7194 18.6138 54.7194L18.5905 54.7428H18.5671C18.5671 54.7428 18.5593 54.7428 18.5437 54.7428C18.5281 54.7428 18.5203 54.7428 18.5203 54.7428H18.4969C18.4969 54.7428 18.4891 54.7428 18.4735 54.7428V54.7662H18.4268C18.4268 54.7662 18.419 54.7662 18.4034 54.7662C18.3878 54.7662 18.3722 54.7662 18.3566 54.7662C18.341 54.7818 18.3332 54.7896 18.3332 54.7896C18.2865 54.7896 18.2475 54.7896 18.2163 54.7896C18.2007 54.8051 18.1851 54.8129 18.1695 54.8129C18.1539 54.8129 18.1384 54.8129 18.1228 54.8129C18.1072 54.8129 18.0916 54.8129 18.076 54.8129C18.0604 54.8285 18.0448 54.8363 18.0292 54.8363C18.0136 54.8363 17.9981 54.8363 17.9825 54.8363H17.9591H17.9357C17.9201 54.8363 17.9123 54.8363 17.9123 54.8363H17.8889C17.8889 54.8519 17.8811 54.8597 17.8655 54.8597H17.8422C17.8422 54.8597 17.8344 54.8597 17.8188 54.8597H17.7954C17.7642 54.8597 17.733 54.8675 17.7019 54.8831C17.6863 54.8831 17.6707 54.8831 17.6551 54.8831C17.6395 54.8831 17.6239 54.8831 17.6083 54.8831H17.5849C17.5693 54.8831 17.5615 54.8831 17.5615 54.8831H17.5382V54.9065C17.5226 54.9065 17.507 54.9065 17.4914 54.9065C17.4758 54.9065 17.4602 54.9065 17.4446 54.9065H17.4212C17.4057 54.9065 17.3901 54.9065 17.3745 54.9065C17.3589 54.9065 17.3433 54.9143 17.3277 54.9299H17.3043C17.2731 54.9299 17.2342 54.9299 17.1874 54.9299C17.1562 54.9299 17.1328 54.9299 17.1172 54.9299H17.0939C17.0783 54.9455 17.0627 54.9532 17.0471 54.9532H17.0237C17.0081 54.9532 16.9847 54.9532 16.9536 54.9532C16.9224 54.9532 16.899 54.9532 16.8834 54.9532H16.86C16.8444 54.9532 16.821 54.961 16.7899 54.9766C16.7587 54.9766 16.7275 54.9766 16.6963 54.9766C16.6651 54.9766 16.6262 54.9766 16.5794 54.9766H16.556C16.5248 54.9766 16.4937 54.9766 16.4625 54.9766H16.4157V55C16.3845 55 16.3534 55 16.3222 55H16.2988C16.2364 55 16.1819 55 16.1351 55H16.0883C15.948 55 15.7999 55 15.644 55ZM11.2712 54.392V54.3686L11.2945 54.392C11.2945 54.392 11.2867 54.392 11.2712 54.392ZM10.289 54.0646V54.0413H10.2656C10.2812 54.0413 10.289 54.0491 10.289 54.0646Z" fill="#E52815"/>
<path fill-rule="evenodd" clip-rule="evenodd" d="M11.0608 45.1551C11.7623 45.1084 12.4716 44.9992 13.1888 44.8277C13.6876 44.6874 14.1553 44.5315 14.5918 44.3601V44.3367H14.6152C14.6308 44.3367 14.6386 44.3367 14.6386 44.3367C16.8367 43.4013 18.4269 41.7878 19.6195 39.7066C19.6195 39.7066 19.6195 39.6988 19.6195 39.6832C19.6351 39.6832 19.6429 39.6832 19.6429 39.6832C19.6584 39.6832 19.6662 39.6832 19.6662 39.6832C20.056 39.5585 20.4301 39.4182 20.7887 39.2623C20.8043 39.2623 20.8121 39.2545 20.8121 39.2389C20.8121 39.2389 20.8199 39.2389 20.8355 39.2389C20.8355 39.2389 20.8432 39.2389 20.8588 39.2389C20.8588 39.2233 20.8588 39.2155 20.8588 39.2155C23.0804 38.3035 24.9043 37.0174 26.4009 35.6845C26.4009 35.7312 26.2606 37.2278 25.8865 39.122C21.9111 42.7699 16.673 44.9914 11.0608 45.1551ZM27.8741 37.0174C27.9209 36.1755 27.9521 35.2168 27.9677 34.1411C30.8206 30.9842 32.0366 27.9208 32.0366 27.8975C32.0366 27.9286 32.0366 27.9598 32.0366 27.991C32.0366 28.3028 32.0288 28.6146 32.0132 28.9264C32.0132 28.942 32.0132 28.9498 32.0132 28.9498C32.0132 28.9653 32.0132 28.9731 32.0132 28.9731C32.0132 29.1914 32.0132 29.4096 32.0132 29.6279C31.0778 32.3873 29.6747 34.8894 27.8741 37.0174Z" fill="url(#paint3_linear_11_18)"/>
<path d="M12.5573 54.6959C11.2244 54.4152 9.91491 53.9709 8.67554 53.3629C11.926 53.246 15.3401 52.638 18.6139 51.118C18.6139 51.1025 18.6139 51.0947 18.6139 51.0947C18.6295 51.0947 18.6373 51.0947 18.6373 51.0947C18.6529 51.0947 18.6607 51.0947 18.6607 51.0947C19.6428 50.627 20.6249 50.0658 21.5837 49.4344C21.5837 49.4188 21.5837 49.411 21.5837 49.411C21.5993 49.411 21.6071 49.411 21.6071 49.411C21.6071 49.411 21.6149 49.411 21.6305 49.411C24.0391 47.7507 25.8864 45.8566 27.3129 43.8689C26.1203 45.7396 24.764 47.3064 23.3609 48.6159C19.8065 51.9365 15.8078 53.7371 12.5573 54.6959Z" fill="#AB533E"/>
<path fill-rule="evenodd" clip-rule="evenodd" d="M8.6756 53.3633C8.62883 53.3321 8.57427 53.3087 8.51191 53.2931C8.51191 53.2931 8.51191 53.2853 8.51191 53.2697C8.38719 53.2074 8.26248 53.145 8.13776 53.0826C8.13776 53.0826 8.12996 53.0826 8.11437 53.0826C8.11437 53.067 8.11437 53.0593 8.11437 53.0593C8.09878 53.0593 8.09099 53.0593 8.09099 53.0593C8.09099 53.0593 8.08319 53.0515 8.06761 53.0359C8.05202 53.0359 8.04422 53.0359 8.04422 53.0359C8.04422 53.0359 8.03643 53.0281 8.02084 53.0125C8.00525 53.0125 7.99745 53.0125 7.99745 53.0125C7.99745 52.9969 7.98966 52.9891 7.97407 52.9891C7.86494 52.9267 7.75581 52.8644 7.64669 52.802C7.6311 52.802 7.6233 52.7942 7.6233 52.7786C2.87628 49.9491 0 44.8513 0 39.3794C0 39.13 0.00779488 38.8805 0.0233845 38.6311C0.53784 39.7302 1.21599 40.7123 2.01106 41.5541C4.11565 44.4538 7.45961 45.5996 11.0608 45.5996C14.1709 45.5996 17.4447 44.7578 20.2509 43.4483C22.0748 42.5831 23.5013 42.2089 24.4834 42.2089C26.7517 42.2089 26.6816 44.22 23.8754 46.9793C19.8533 50.9079 13.4928 52.7786 13.3992 52.8254C14.6152 52.5682 15.8078 52.2408 17.0004 51.7965C14.2411 52.8254 11.3882 53.2697 8.6756 53.3633Z" fill="#FF7123"/>
<path d="M18.6605 51.0948C19.6583 50.6271 20.6326 50.0737 21.5836 49.4345C20.6248 50.0659 19.6427 50.6271 18.6605 51.0948Z" fill="url(#paint4_linear_11_18)"/>
<path d="M31.9668 30.727C31.9824 30.3528 31.998 29.9865 32.0136 29.6279C31.998 29.9865 31.9824 30.3451 31.9668 30.7036C31.9668 30.7036 31.9668 30.7114 31.9668 30.727Z" fill="url(#paint5_linear_11_18)"/>
<path d="M13.3992 52.8252C13.4927 52.7785 19.8533 50.9077 23.8754 46.9791C26.6815 44.2198 26.7516 42.2087 24.4834 42.2087C23.5012 42.2087 22.0748 42.5829 20.2508 43.4481C17.4447 44.7576 14.1709 45.5995 11.0607 45.5995C7.45954 45.5995 4.11558 44.4536 2.01099 41.554C3.9285 43.5884 6.52417 44.8745 9.30691 45.1318C9.3225 45.1318 9.33029 45.1318 9.33029 45.1318C9.34588 45.1318 9.35368 45.1318 9.35368 45.1318C9.36927 45.1318 9.37706 45.1318 9.37706 45.1318C9.39265 45.1318 9.40044 45.1318 9.40044 45.1318C9.40044 45.1318 9.40824 45.1318 9.42383 45.1318C9.43942 45.1318 9.44721 45.1318 9.44721 45.1318C9.4628 45.1318 9.4706 45.1318 9.4706 45.1318C9.48619 45.1318 9.49398 45.1318 9.49398 45.1318C9.50957 45.1318 9.51737 45.1318 9.51737 45.1318C9.79798 45.1629 10.0786 45.1785 10.3592 45.1785C10.593 45.1785 10.8269 45.1707 11.0607 45.1551C16.8601 44.9915 22.2618 42.6296 26.2606 38.7478C26.2762 38.7478 26.284 38.74 26.284 38.7244C26.8452 38.1788 27.3752 37.6098 27.8741 37.0174C29.6747 34.8894 31.0777 32.3873 32.0131 29.6279C31.9975 29.9865 31.9819 30.3528 31.9664 30.727C31.8494 32.8784 31.1713 37.9762 27.991 42.8869C27.9754 42.9336 27.952 42.9726 27.9209 43.0038C27.7182 43.2844 27.5155 43.5728 27.3129 43.869C25.8864 45.8567 24.0391 47.7508 21.6305 49.4111C21.6149 49.4111 21.6071 49.4111 21.6071 49.4111C21.6071 49.4111 21.5993 49.4111 21.5837 49.4111C21.5837 49.4111 21.5837 49.4189 21.5837 49.4345C20.6327 50.0737 19.6584 50.6271 18.6607 51.0948C18.6607 51.0948 18.6529 51.0948 18.6373 51.0948C18.6373 51.0948 18.6295 51.0948 18.6139 51.0948C18.6139 51.0948 18.6139 51.1026 18.6139 51.1182C16.9068 51.9132 15.153 52.4511 13.3992 52.8252Z" fill="#FF7D24"/>
<path d="M26.4011 35.6845C26.9857 32.551 27.2196 29.02 27.2897 25.5123C27.2897 25.5123 27.2897 25.5045 27.2897 25.4889C27.2897 25.4889 27.2897 25.4811 27.2897 25.4655C27.2897 25.4499 27.2897 25.4421 27.2897 25.4421C27.2897 25.4421 27.2897 25.4343 27.2897 25.4188C27.2897 25.4032 27.2897 25.3876 27.2897 25.372C27.2897 24.8887 27.2897 24.4054 27.2897 23.9222C27.2897 22.2853 27.2663 20.6717 27.1962 19.105C27.851 25.4421 28.0146 30.4698 27.9679 34.1411C27.4846 34.6556 26.9623 35.17 26.4011 35.6845Z" fill="url(#paint6_linear_11_18)"/>
<path d="M27.2896 25.372C27.313 23.244 27.2662 21.1394 27.196 19.105C27.2662 20.6717 27.2896 22.2853 27.2896 23.9222C27.2896 24.4054 27.2896 24.8887 27.2896 25.372Z" fill="url(#paint7_linear_11_18)"/>
<path d="M25.8867 39.122C26.2609 37.2278 26.4012 35.7313 26.4012 35.6845C26.9624 35.17 27.4847 34.6556 27.9679 34.1411C27.9523 35.2168 27.9212 36.1756 27.8744 37.0174C27.3755 37.6098 26.8455 38.1788 26.2843 38.7244C26.2843 38.74 26.2765 38.7478 26.2609 38.7478C26.1362 38.8725 26.0114 38.9973 25.8867 39.122Z" fill="url(#paint8_linear_11_18)"/>
<path fill-rule="evenodd" clip-rule="evenodd" d="M33.2999 5.44856C33.2999 5.70578 33.0894 5.93963 32.8088 5.96301C32.8088 5.94742 32.801 5.93963 32.7854 5.93963L31.967 8.6756L21.4207 8.93283L20.4619 6.22024C20.4151 6.25142 20.3684 6.26701 20.3216 6.26701C20.041 6.26701 19.8071 6.05655 19.8071 5.77594C19.8071 5.49533 20.0176 5.26148 20.2982 5.26148C20.5554 5.26148 20.7893 5.47194 20.8127 5.75255C20.8127 5.96301 20.6724 6.15009 20.5087 6.22024C20.6957 6.38393 21.5142 7.01531 22.8237 6.85162C24.2969 6.64116 26.2612 3.85842 26.4951 1.00553C26.2144 1.00553 26.004 0.795068 26.004 0.514456C25.9806 0.257228 26.2144 0.0233844 26.4717 0C26.7523 0 26.9861 0.210459 26.9861 0.491071C27.0095 0.771684 26.7991 0.982143 26.5184 1.00553C26.8926 3.83504 28.9972 6.52424 30.4938 6.66454C31.7332 6.75808 32.5048 6.15009 32.7387 5.93963C32.5048 5.91624 32.3178 5.70578 32.2944 5.47194C32.2944 5.19133 32.5048 4.95749 32.7854 4.95749C33.0661 4.95749 33.2999 5.16794 33.2999 5.44856ZM32.0372 9.35374V9.51744C32.0372 9.61097 31.967 9.68113 31.8735 9.68113L21.6077 9.93835C21.5142 9.93835 21.444 9.8682 21.444 9.77466V9.61097C21.444 9.51744 21.5142 9.44728 21.6077 9.44728L31.8735 9.19005C31.967 9.19005 32.0372 9.26021 32.0372 9.35374ZM32.0605 9.8682C32.0605 9.91497 32.0138 9.96174 31.9436 9.96174L21.561 10.219C21.5142 10.219 21.4674 10.1722 21.444 10.1254C21.444 10.0787 21.4908 10.0319 21.561 10.0319L31.9436 9.77466C31.9904 9.77466 32.0372 9.79805 32.0605 9.8682ZM32.0372 8.93283C32.0372 8.9796 31.9904 9.02636 31.9202 9.04975L21.5376 9.30698C21.4908 9.30698 21.444 9.26021 21.4207 9.19005C21.4207 9.14329 21.4674 9.09652 21.5376 9.09652L31.9202 8.83929C31.967 8.83929 32.0138 8.88606 32.0372 8.93283ZM29.231 5.61225C29.231 5.61225 30.0495 4.6301 30.2599 3.57781C30.0027 3.57781 29.7923 3.36735 29.7689 3.11012C29.7689 2.82951 29.9793 2.59566 30.2599 2.59566C30.5406 2.59566 30.7744 2.80612 30.7744 3.08674C30.7744 3.34396 30.5639 3.57781 30.2833 3.57781C30.2833 3.57781 30.2755 3.57781 30.2599 3.57781C30.3067 3.85842 30.4704 5.54209 31.1485 6.38393C31.1485 6.38393 29.8858 6.47747 29.231 5.61225ZM31.9202 7.01531C31.9202 7.01531 31.5461 7.41284 31.1719 7.52976C30.7744 7.6233 29.9793 7.74022 29.839 8.34822L31.5227 8.32483L31.9202 7.01531ZM28.0384 6.75808C27.1966 6.19686 26.8458 5.42517 26.8458 5.42517L26.916 8.41837L29.0673 8.3716C29.2076 7.88053 28.9036 7.3193 28.0384 6.75808ZM26.3781 5.44856C26.3781 5.44856 26.0741 6.22024 25.2557 6.82823C24.4372 7.43623 24.1566 7.99745 24.3203 8.48852L26.4717 8.44175L26.3781 5.44856ZM23.5252 8.51191C23.3616 7.88053 22.5431 7.83376 22.169 7.74022C21.7714 7.64669 21.3739 7.27254 21.3739 7.27254L21.8416 8.53529L23.5252 8.51191ZM22.169 6.61777C22.8003 5.75255 22.8939 4.04549 22.9172 3.76488C22.9017 3.78047 22.8939 3.78827 22.8939 3.78827C22.6133 3.78827 22.3794 3.57781 22.3794 3.29719C22.3794 3.01658 22.5899 2.78274 22.8705 2.78274C23.1511 2.78274 23.3616 2.9932 23.3849 3.27381C23.3849 3.53104 23.1745 3.7415 22.9172 3.76488C23.1979 4.79379 24.0397 5.75255 24.0397 5.75255C23.4551 6.66454 22.169 6.61777 22.169 6.61777Z" fill="url(#paint9_linear_11_18)"/>
<path fill-rule="evenodd" clip-rule="evenodd" d="M41.2837 31.7367H41.4203C41.2382 31.7367 41.056 31.7367 40.8739 31.7367C40.6918 31.7367 40.5096 31.7367 40.3275 31.7367C39.69 31.7367 39.0981 31.8278 38.5517 32.01C38.0053 32.2833 37.5044 32.6478 37.049 33.1033C36.7758 33.4678 36.5937 33.8322 36.5026 34.1967C36.4116 34.5611 36.366 34.9256 36.366 35.29C36.366 35.3811 36.366 35.4722 36.366 35.5633C36.366 35.6544 36.366 35.7456 36.366 35.8367C36.366 35.9278 36.366 36.0189 36.366 36.11C36.366 36.11 36.366 36.1555 36.366 36.2467C36.366 36.6111 36.3205 36.8844 36.2294 37.0667C36.1384 37.2489 36.0473 37.34 35.9562 37.34C35.9562 37.34 35.9107 37.34 35.8196 37.34C35.6375 37.34 35.5009 37.2945 35.4098 37.2033C35.2277 37.0211 35.1366 36.7022 35.1366 36.2467C35.1366 36.1555 35.0911 36.0645 35 35.9734C35 35.8822 35 35.7911 35 35.7C35 35.5178 35 35.3356 35 35.1533C35 34.88 35 34.6522 35 34.47C35 34.2878 35 34.1056 35 33.9233C35 33.65 35.0455 33.4222 35.1366 33.24C35.2277 32.9667 35.3643 32.6933 35.5464 32.42C35.7285 32.0556 36.0018 31.7367 36.366 31.4633C36.8214 31.0078 37.3678 30.6433 38.0053 30.37C38.5517 30.0967 39.1436 29.9145 39.7811 29.8234C40.0543 29.7322 40.3275 29.6867 40.6007 29.6867C40.8739 29.6867 41.1471 29.6867 41.4203 29.6867C41.6025 29.6867 41.7846 29.6867 41.9667 29.6867C42.1489 29.6867 42.331 29.6867 42.5131 29.6867C42.6953 29.7778 42.8774 29.8234 43.0595 29.8234C43.2417 29.8234 43.4238 29.8689 43.606 29.96C43.8792 29.96 44.1068 30.0055 44.289 30.0967C44.4711 30.0967 44.6077 30.1422 44.6988 30.2333C45.1541 30.4156 45.5184 30.5522 45.7916 30.6433C46.0648 30.7344 46.2014 30.78 46.2014 30.78L46.338 30.5067L57.2662 7.13668L64.7793 21.76L76.3905 45.13L80.7618 44.9933V46.4967H58.7688V45.13H64.5061L59.7251 35.5633C59.634 35.5633 59.4974 35.6089 59.3152 35.7C59.042 35.7 58.6778 35.7456 58.2224 35.8367C57.8581 35.9278 57.4028 36.0189 56.8564 36.11C56.2189 36.2011 55.5814 36.2467 54.944 36.2467C54.6708 36.2467 54.3975 36.2467 54.1243 36.2467C53.8511 36.1555 53.5779 36.11 53.3047 36.11C52.5762 36.0189 51.8021 35.8822 50.9825 35.7C50.2539 35.4267 49.6165 35.1989 49.0701 35.0167C48.3415 34.6522 47.7496 34.3789 47.2942 34.1967C46.8389 33.9233 46.6112 33.7867 46.6112 33.7867L41.1471 44.9933H47.1576V46.36H35V44.9933H39.0981L45.1086 33.1033C45.0175 33.1033 44.8354 33.0578 44.5622 32.9667C44.289 32.7844 43.9247 32.6022 43.4694 32.42C43.3783 32.42 43.2417 32.3744 43.0595 32.2833C42.9685 32.2833 42.8319 32.2378 42.6497 32.1467C42.3765 32.0555 42.1489 32.01 41.9667 32.01C41.6935 31.9189 41.4659 31.8734 41.2837 31.8734V31.7367ZM67.9212 44.9933L65.8722 40.8933L54.3976 17.5233L53.3047 19.5733L54.3976 21.76L66.0088 44.9933H67.9212ZM74.8879 44.9933L69.1506 33.7867L57.4028 10.4167L56.4466 12.6033L61.0911 21.76L72.7023 44.9933H74.8879ZM54.261 34.3333C54.1699 34.3333 54.1243 34.3333 54.1243 34.3333H54.261ZM54.1243 34.3333C54.4886 34.4244 54.8529 34.47 55.2172 34.47C55.5814 34.5611 55.9002 34.6067 56.1734 34.6067C56.5377 34.6067 56.9019 34.5611 57.2662 34.47C57.6305 34.47 57.9037 34.4244 58.0858 34.3333C58.359 34.3333 58.5867 34.2878 58.7688 34.1967C58.8599 34.1967 58.9054 34.1967 58.9054 34.1967L52.4851 21.0766L47.5674 31.4633C47.5674 31.4633 47.8406 31.6455 48.387 32.01C48.9335 32.2833 49.6165 32.6022 50.4361 32.9667C50.9825 33.24 51.5744 33.5133 52.2119 33.7867C52.8494 33.9689 53.4869 34.1511 54.1243 34.3333ZM98.6567 11.1L98.5201 21.76V45.13H106.99C109.084 45.13 110.769 44.9478 112.044 44.5833C113.319 44.1278 114.412 43.6267 115.322 43.08C116.506 42.3511 117.371 41.44 117.918 40.3467C118.373 39.3444 118.601 38.2511 118.601 37.0667C118.601 36.7933 118.601 36.52 118.601 36.2467C118.601 35.9733 118.555 35.7 118.464 35.4267C118.191 33.8778 117.553 32.6933 116.552 31.8734C115.55 31.0534 114.457 30.6433 113.273 30.6433C113 30.6433 112.727 30.6433 112.454 30.6433C112.18 30.7344 111.862 30.8256 111.497 30.9167C111.406 31.0078 111.315 31.0533 111.224 31.0533C111.133 31.1445 111.042 31.2355 110.951 31.3267C110.496 31.5089 110.086 31.8278 109.722 32.2833C109.357 32.7389 109.175 33.2856 109.175 33.9233C109.175 33.9233 109.175 33.9689 109.175 34.06C109.266 34.6066 109.403 35.0167 109.585 35.29C109.858 35.5634 110.222 35.7456 110.678 35.8367C110.86 35.8367 110.997 35.8822 111.088 35.9734C111.27 36.0645 111.361 36.1555 111.361 36.2467C111.361 36.4289 111.27 36.5656 111.088 36.6567C110.997 36.7478 110.814 36.7933 110.541 36.7933C110.086 36.7933 109.722 36.7478 109.448 36.6567C109.084 36.5656 108.765 36.3833 108.492 36.11C108.31 35.8367 108.173 35.5178 108.082 35.1533C107.991 34.7889 107.946 34.4244 107.946 34.06C107.946 33.9689 107.946 33.9233 107.946 33.9233C107.946 33.8322 107.946 33.7411 107.946 33.65C107.946 33.2856 108.037 32.9211 108.219 32.5567C108.31 32.1922 108.447 31.8733 108.629 31.6C109.266 30.78 109.995 30.1878 110.814 29.8234C111.634 29.4589 112.59 29.2766 113.683 29.2766C113.865 29.2766 114.047 29.2766 114.229 29.2766C114.503 29.2766 114.73 29.3222 114.912 29.4133C115.914 29.5955 116.87 30.0055 117.781 30.6433C118.692 31.3722 119.42 32.3744 119.967 33.65C120.24 34.1967 120.422 34.7434 120.513 35.29C120.604 35.7456 120.65 36.2467 120.65 36.7933C120.65 37.7044 120.513 38.57 120.24 39.39C119.967 40.1189 119.648 40.7567 119.284 41.3033C119.193 41.4856 119.102 41.6678 119.011 41.85C118.828 42.0322 118.692 42.1689 118.601 42.26C118.419 42.4422 118.191 42.67 117.918 42.9433C117.644 43.2167 117.326 43.49 116.961 43.7633C115.96 44.4011 114.639 44.9934 113 45.54C111.361 46.0867 109.175 46.36 106.443 46.36H82.1279V45.13H87.7286V11.1H82.2645V9.59666H105.35V11.1H98.6567ZM89.0946 45.13H91.007V11.1H89.0946V45.13ZM95.2417 45.13H97.2907V11.1H95.2417V45.13ZM113.41 11.1H109.858V9.59666H131.441V10.9633H125.841L127.07 13.15L139.911 36.52L144.419 29.2766C144.692 28.73 145.056 28.1378 145.511 27.5C145.876 26.7711 146.285 25.9967 146.741 25.1767C147.014 24.63 147.287 24.0378 147.56 23.4C147.925 22.8533 148.243 22.2611 148.517 21.6234C148.881 20.53 149.245 19.4822 149.609 18.48C149.883 17.3867 150.019 16.43 150.019 15.61C150.019 15.61 150.019 15.5645 150.019 15.4734C150.019 15.3822 150.019 15.2911 150.019 15.2C150.019 15.0178 150.019 14.79 150.019 14.5167C150.019 14.2433 150.019 14.0156 150.019 13.8333C149.837 12.8311 149.518 11.92 149.063 11.1C148.517 10.28 147.697 9.68779 146.604 9.32335C146.331 9.23224 146.058 9.18668 145.785 9.18668C145.511 9.09556 145.238 9.05 144.965 9.05C143.781 9.05 142.734 9.45999 141.823 10.28C140.912 11.0089 140.412 11.92 140.32 13.0133C140.32 13.0133 140.275 13.0589 140.184 13.15C140.184 13.2411 140.184 13.3322 140.184 13.4233C140.184 13.4233 140.184 13.4689 140.184 13.56C140.184 13.6511 140.184 13.7422 140.184 13.8333C140.184 14.5622 140.366 15.2456 140.73 15.8833C141.095 16.5211 141.687 16.84 142.506 16.84C142.506 16.84 142.552 16.84 142.643 16.84C143.007 16.84 143.28 16.8855 143.462 16.9767C143.644 17.1589 143.736 17.2956 143.736 17.3867C143.736 17.5689 143.644 17.7511 143.462 17.9333C143.28 18.0244 143.053 18.1156 142.779 18.2067C142.779 18.2067 142.734 18.2067 142.643 18.2067C142.643 18.2067 142.597 18.2067 142.506 18.2067C141.687 18.2067 141.004 17.9333 140.457 17.3867C139.911 16.9311 139.501 16.43 139.228 15.8833C139.137 15.5189 139.046 15.1545 138.954 14.79C138.863 14.4256 138.818 14.0611 138.818 13.6967C138.818 13.5144 138.818 13.3322 138.818 13.15C138.818 12.9678 138.863 12.8311 138.954 12.74C139.046 12.1933 139.182 11.6922 139.364 11.2367C139.637 10.7811 139.956 10.3256 140.32 9.87001C140.412 9.7789 140.503 9.68777 140.594 9.59666C140.685 9.50555 140.776 9.41446 140.867 9.32335C141.595 8.68557 142.324 8.27554 143.053 8.09332C143.781 7.81998 144.737 7.68333 145.921 7.68333C147.743 7.68333 149.245 8.41223 150.429 9.87001C151.613 11.2367 152.25 12.7856 152.342 14.5167C152.342 14.6078 152.342 14.6989 152.342 14.79C152.342 14.79 152.342 14.8355 152.342 14.9267C152.342 15.0178 152.342 15.1089 152.342 15.2C152.342 15.2911 152.342 15.3367 152.342 15.3367C152.342 15.4278 152.342 15.5189 152.342 15.61C152.342 15.7011 152.342 15.7922 152.342 15.8833C152.159 17.7056 151.567 19.5733 150.566 21.4867C149.564 23.4911 148.061 26.0422 146.058 29.14L134.037 48L126.387 34.47L113.41 11.1ZM114.912 10.9633L121.06 22.0333L133.9 45.4033L135.13 43.49L129.939 34.3333L117.235 10.9633H114.912ZM122.152 10.9633L125.021 16.2933L137.862 39.5266L139.091 37.6133L137.315 34.3333L124.475 10.9633H122.152ZM151.659 31.6H151.795C151.613 31.6 151.431 31.6 151.249 31.6C151.067 31.6 150.884 31.6 150.702 31.6C150.065 31.6 149.473 31.6911 148.926 31.8734C148.38 32.1467 147.879 32.5111 147.424 32.9667C147.151 33.3311 146.968 33.6955 146.877 34.06C146.786 34.4244 146.741 34.7889 146.741 35.1533C146.741 35.2445 146.741 35.3355 146.741 35.4267C146.741 35.5178 146.741 35.6089 146.741 35.7C146.741 35.7911 146.741 35.8822 146.741 35.9734C146.741 35.9734 146.741 36.0189 146.741 36.11C146.741 36.4744 146.695 36.7478 146.604 36.93C146.513 37.1122 146.422 37.2033 146.331 37.2033C146.331 37.2033 146.285 37.2033 146.194 37.2033C146.012 37.2033 145.876 37.1578 145.785 37.0667C145.602 36.8844 145.466 36.5655 145.375 36.11C145.375 36.0189 145.375 35.9278 145.375 35.8367C145.375 35.7456 145.375 35.6544 145.375 35.5633C145.375 35.3811 145.375 35.1989 145.375 35.0167C145.284 34.7433 145.238 34.5156 145.238 34.3333C145.238 34.1511 145.284 33.9689 145.375 33.7867C145.375 33.5133 145.42 33.2856 145.511 33.1033C145.602 32.83 145.739 32.5567 145.921 32.2833C146.103 31.9189 146.377 31.6 146.741 31.3267C147.196 30.8711 147.743 30.5067 148.38 30.2333C148.926 29.96 149.518 29.7778 150.156 29.6867C150.429 29.5956 150.702 29.55 150.975 29.55C151.249 29.55 151.522 29.55 151.795 29.55C151.977 29.55 152.159 29.55 152.342 29.55C152.524 29.55 152.706 29.55 152.888 29.55C153.07 29.6411 153.252 29.6867 153.434 29.6867C153.616 29.6867 153.799 29.7322 153.981 29.8234C154.254 29.8234 154.482 29.8689 154.664 29.96C154.846 29.96 154.982 30.0055 155.074 30.0967C155.529 30.2789 155.893 30.4156 156.166 30.5067C156.44 30.5978 156.576 30.6433 156.576 30.6433L156.713 30.37L167.641 7L175.018 21.6234L186.765 44.9933L191 44.8567V46.36H169.144V44.9933H174.744L170.1 35.4267C170.009 35.4267 169.872 35.4722 169.69 35.5633C169.417 35.5633 169.053 35.6089 168.597 35.7C168.233 35.7911 167.732 35.8822 167.095 35.9734C166.548 36.0645 165.956 36.11 165.319 36.11C165.046 36.11 164.772 36.11 164.499 36.11C164.226 36.0189 163.953 35.9734 163.68 35.9734C162.951 35.8822 162.177 35.7455 161.357 35.5633C160.629 35.29 159.991 35.0622 159.445 34.88C158.716 34.5155 158.124 34.2422 157.669 34.06C157.214 33.7866 156.986 33.65 156.986 33.65L151.522 44.8567H157.532V46.2234H145.375V44.8567H149.473L155.483 32.9667C155.392 32.9667 155.21 32.9211 154.937 32.83C154.664 32.6478 154.299 32.4656 153.844 32.2833C153.753 32.2833 153.616 32.2378 153.434 32.1467C153.343 32.1467 153.207 32.1011 153.025 32.01C152.751 31.9189 152.524 31.8734 152.342 31.8734C152.068 31.7822 151.841 31.7367 151.659 31.7367V31.6ZM178.296 44.8567L176.247 40.7567L164.772 17.3867L163.68 19.4367L164.772 21.6234L176.384 44.8567H178.296ZM185.263 44.8567L179.525 33.65L167.778 10.28L166.821 12.4667L171.466 21.6234L183.077 44.8567H185.263ZM164.636 34.1967C164.545 34.1967 164.499 34.1967 164.499 34.1967H164.636ZM164.499 34.1967C164.863 34.2878 165.228 34.3333 165.592 34.3333C165.956 34.4244 166.275 34.47 166.548 34.47C166.912 34.47 167.277 34.4244 167.641 34.3333C168.005 34.3333 168.278 34.2878 168.461 34.1967C168.734 34.1967 168.961 34.1511 169.144 34.06C169.235 34.06 169.28 34.06 169.28 34.06L162.86 20.94L157.942 31.3267C157.942 31.3267 158.215 31.5089 158.762 31.8734C159.308 32.1467 159.991 32.4655 160.811 32.83C161.357 33.1033 161.949 33.3767 162.587 33.65C163.224 33.8322 163.862 34.0144 164.499 34.1967Z" fill="white"/>
<defs>
<linearGradient id="paint0_linear_11_18" x1="10.8787" y1="43.8597" x2="10.8787" y2="23.085" gradientUnits="userSpaceOnUse">
<stop stop-color="#C22622"/>
<stop offset="0.36" stop-color="#FF3837"/>
<stop offset="0.97" stop-color="#FFB32F"/>
<stop offset="1" stop-color="#FFB32F"/>
</linearGradient>
<linearGradient id="paint1_linear_11_18" x1="24.4087" y1="61.5898" x2="18.6845" y2="-1.18786" gradientUnits="userSpaceOnUse">
<stop stop-color="#AC5AAD"/>
<stop offset="0.48" stop-color="#FF9CA4"/>
<stop offset="1" stop-color="#FFEB61"/>
</linearGradient>
<linearGradient id="paint2_linear_11_18" x1="23.3658" y1="61.5897" x2="19.595" y2="-1.18787" gradientUnits="userSpaceOnUse">
<stop stop-color="#AC5AAD"/>
<stop offset="0.48" stop-color="#FF9CA4"/>
<stop offset="1" stop-color="#FFEB61"/>
</linearGradient>
<linearGradient id="paint3_linear_11_18" x1="24.6003" y1="61.5896" x2="18.6466" y2="-1.18801" gradientUnits="userSpaceOnUse">
<stop stop-color="#A3369C"/>
<stop offset="0.48" stop-color="#F0566A"/>
<stop offset="1" stop-color="#E6AD2F"/>
</linearGradient>
<linearGradient id="paint4_linear_11_18" x1="30.2732" y1="22.3928" x2="-13.2404" y2="83.7347" gradientUnits="userSpaceOnUse">
<stop stop-color="#B3D687"/>
<stop offset="1" stop-color="#489FD5"/>
</linearGradient>
<linearGradient id="paint5_linear_11_18" x1="30.2738" y1="22.3928" x2="-13.2402" y2="83.7341" gradientUnits="userSpaceOnUse">
<stop stop-color="#B3D687"/>
<stop offset="1" stop-color="#489FD5"/>
</linearGradient>
<linearGradient id="paint6_linear_11_18" x1="24.6426" y1="61.5897" x2="18.8389" y2="-1.188" gradientUnits="userSpaceOnUse">
<stop stop-color="#A3369C"/>
<stop offset="0.48" stop-color="#F0566A"/>
<stop offset="1" stop-color="#E6AD2F"/>
</linearGradient>
<linearGradient id="paint7_linear_11_18" x1="25.0354" y1="61.5897" x2="20.0727" y2="-1.18792" gradientUnits="userSpaceOnUse">
<stop stop-color="#BA5DAE"/>
<stop offset="0.48" stop-color="#E58094"/>
<stop offset="1" stop-color="#E1AD67"/>
</linearGradient>
<linearGradient id="paint8_linear_11_18" x1="24.6006" y1="61.5897" x2="18.6469" y2="-1.18799" gradientUnits="userSpaceOnUse">
<stop stop-color="#AE2B97"/>
<stop offset="0.48" stop-color="#D13954"/>
<stop offset="1" stop-color="#CF771F"/>
</linearGradient>
<linearGradient id="paint9_linear_11_18" x1="26.6915" y1="10.2236" x2="26.6915" y2="0.0093539" gradientUnits="userSpaceOnUse">
<stop stop-color="#C22622"/>
<stop offset="0.36" stop-color="#FF3837"/>
<stop offset="0.97" stop-color="#FFB32F"/>
<stop offset="1" stop-color="#FFB32F"/>
</linearGradient>
</defs>
</svg>
