<svg width="27" height="26" viewBox="0 0 27 26" fill="none" xmlns="http://www.w3.org/2000/svg">
<g clip-path="url(#clip0_11_890)">
<path d="M13.5 0C6.33177 0 0.5 5.83177 0.5 13C0.5 20.1682 6.33177 26 13.5 26C20.6682 26 26.5 20.1682 26.5 13C26.5 5.83177 20.6682 0 13.5 0ZM13.5 24.7812C7.00381 24.7812 1.71875 19.4962 1.71875 13C1.71875 6.50381 7.00381 1.21875 13.5 1.21875C19.9962 1.21875 25.2812 6.50381 25.2812 13C25.2812 19.4962 19.9962 24.7812 13.5 24.7812ZM19.6096 7.64258H7.39036C6.57308 7.64258 5.90815 8.30751 5.90815 9.12478V16.8753C5.90815 17.6925 6.57303 18.3575 7.39036 18.3575H19.6096C20.4269 18.3575 21.0918 17.6925 21.0918 16.8753V9.12478C21.0918 8.30751 20.4269 7.64258 19.6096 7.64258ZM18.691 8.86133L13.5 12.9836L8.30894 8.86133H18.691ZM19.6096 17.1387H7.39036C7.24512 17.1387 7.1269 17.0205 7.1269 16.8752V9.47893L13.121 14.2389C13.232 14.327 13.366 14.3711 13.4999 14.3711C13.6339 14.3711 13.768 14.3271 13.8789 14.2389L19.873 9.47893V16.8752C19.873 17.0205 19.7548 17.1387 19.6096 17.1387Z" fill="white"/>
</g>
<defs>
<clipPath id="clip0_11_890">
<rect width="26" height="26" fill="white" transform="translate(0.5)"/>
</clipPath>
</defs>
</svg>
