<svg width="897" height="143" viewBox="0 0 897 143" fill="none" xmlns="http://www.w3.org/2000/svg">
<path d="M36.3119 118.28C30.1252 118.28 24.6852 117.053 19.9919 114.6C15.2985 112.147 11.6719 108.733 9.11186 104.36C6.55186 99.88 5.27186 94.76 5.27186 89V84.36C5.27186 83.8267 5.43186 83.4 5.75186 83.08C6.17853 82.6533 6.65853 82.44 7.19186 82.44H25.5919C26.1252 82.44 26.5519 82.6533 26.8719 83.08C27.2985 83.4 27.5119 83.8267 27.5119 84.36V87.88C27.5119 91.1867 28.3652 93.8533 30.0719 95.88C31.7785 97.9067 33.9119 98.92 36.4719 98.92C39.0319 98.92 41.1652 97.96 42.8719 96.04C44.5785 94.12 45.4319 91.6133 45.4319 88.52C45.4319 85.32 44.3652 82.6 42.2319 80.36C40.0985 78.0133 35.9385 74.6 29.7519 70.12C24.4185 66.28 20.0985 62.8667 16.7919 59.88C13.4852 56.8933 10.6585 53.2133 8.31186 48.84C5.9652 44.4667 4.79186 39.4 4.79186 33.64C4.79186 24.5733 7.61853 17.32 13.2719 11.88C18.9252 6.44 26.3919 3.72 35.6719 3.72C45.0585 3.72 52.5785 6.54666 58.2319 12.2C63.9919 17.8533 66.8719 25.2667 66.8719 34.44V38.28C66.8719 38.8133 66.6585 39.2933 66.2319 39.72C65.9119 40.04 65.4852 40.2 64.9519 40.2H46.5519C46.0185 40.2 45.5385 40.04 45.1119 39.72C44.7919 39.2933 44.6319 38.8133 44.6319 38.28V33.96C44.6319 30.6533 43.7785 28.04 42.0719 26.12C40.4719 24.0933 38.3385 23.08 35.6719 23.08C33.1119 23.08 31.0319 24.04 29.4319 25.96C27.8319 27.7733 27.0319 30.3333 27.0319 33.64C27.0319 36.84 28.0452 39.6667 30.0719 42.12C32.0985 44.5733 36.0985 47.9867 42.0719 52.36C48.6852 57.2667 53.6452 61.2667 56.9519 64.36C60.3652 67.3467 62.9785 70.7067 64.7919 74.44C66.7119 78.0667 67.6719 82.44 67.6719 87.56C67.6719 96.9467 64.7919 104.413 59.0319 109.96C53.2719 115.507 45.6985 118.28 36.3119 118.28ZM117.646 36.68C117.646 36.1467 117.806 35.72 118.126 35.4C118.552 34.9733 119.032 34.76 119.566 34.76H138.286C138.819 34.76 139.246 34.9733 139.566 35.4C139.992 35.72 140.206 36.1467 140.206 36.68V115.08C140.206 115.613 139.992 116.093 139.566 116.52C139.246 116.84 138.819 117 138.286 117H119.566C119.032 117 118.552 116.84 118.126 116.52C117.806 116.093 117.646 115.613 117.646 115.08V112.36C117.646 112.04 117.539 111.827 117.326 111.72C117.112 111.613 116.899 111.72 116.686 112.04C115.086 114.28 113.059 115.88 110.606 116.84C108.259 117.693 105.486 118.12 102.286 118.12C95.8856 118.12 90.6056 116.2 86.4456 112.36C82.2856 108.413 80.2056 102.387 80.2056 94.28V36.68C80.2056 36.1467 80.3656 35.72 80.6856 35.4C81.1123 34.9733 81.5923 34.76 82.1256 34.76H100.846C101.379 34.76 101.806 34.9733 102.126 35.4C102.552 35.72 102.766 36.1467 102.766 36.68V89.32C102.766 92.4133 103.352 94.8133 104.526 96.52C105.806 98.12 107.619 98.92 109.966 98.92C112.312 98.92 114.179 98.0133 115.566 96.2C116.952 94.3867 117.646 91.9333 117.646 88.84V36.68ZM193.528 33.48C200.781 33.48 206.275 35.8267 210.008 40.52C213.848 45.1067 215.768 51.72 215.768 60.36V91.4C215.768 99.8267 213.901 106.44 210.168 111.24C206.435 115.933 200.888 118.28 193.528 118.28C187.555 118.28 182.755 116.253 179.128 112.2C178.915 111.987 178.701 111.933 178.488 112.04C178.275 112.04 178.168 112.2 178.168 112.52V115.08C178.168 115.613 177.955 116.093 177.528 116.52C177.208 116.84 176.781 117 176.248 117H157.528C156.995 117 156.515 116.84 156.088 116.52C155.768 116.093 155.608 115.613 155.608 115.08V6.92C155.608 6.38666 155.768 5.96 156.088 5.63999C156.515 5.21333 156.995 4.99999 157.528 4.99999H176.248C176.781 4.99999 177.208 5.21333 177.528 5.63999C177.955 5.96 178.168 6.38666 178.168 6.92V39.4C178.168 39.6133 178.275 39.72 178.488 39.72C178.915 39.72 179.341 39.4533 179.768 38.92C183.395 35.2933 187.981 33.48 193.528 33.48ZM193.208 61.96C193.208 59.2933 192.515 57.1067 191.128 55.4C189.741 53.6933 187.928 52.84 185.688 52.84C183.768 52.84 182.115 53.48 180.728 54.76C179.341 56.04 178.488 57.7467 178.168 59.88V91.88C178.488 94.0133 179.341 95.72 180.728 97C182.115 98.28 183.768 98.92 185.688 98.92C187.928 98.92 189.741 98.0667 191.128 96.36C192.515 94.6533 193.208 92.4667 193.208 89.8V61.96ZM257.578 118.12C248.511 118.12 241.258 115.987 235.818 111.72C230.485 107.347 227.818 101.533 227.818 94.28V93.16C227.818 92.6267 227.978 92.2 228.298 91.88C228.725 91.4533 229.205 91.24 229.738 91.24H247.338C247.871 91.24 248.298 91.4533 248.618 91.88C249.045 92.2 249.258 92.6267 249.258 93.16V93.64C249.258 95.88 250.058 97.7467 251.658 99.24C253.258 100.627 255.231 101.32 257.578 101.32C259.711 101.32 261.365 100.733 262.538 99.56C263.818 98.28 264.458 96.68 264.458 94.76C264.458 92.4133 263.445 90.6 261.418 89.32C259.391 87.9333 257.098 86.8133 254.538 85.96C252.085 85 250.378 84.36 249.418 84.04C243.551 81.9067 238.591 78.9733 234.538 75.24C230.591 71.4 228.618 65.9067 228.618 58.76C228.618 50.9733 231.178 44.84 236.298 40.36C241.418 35.88 248.245 33.64 256.778 33.64C265.631 33.64 272.618 35.9867 277.738 40.68C282.965 45.3733 285.578 51.72 285.578 59.72C285.578 60.2533 285.365 60.7333 284.938 61.16C284.618 61.48 284.191 61.64 283.658 61.64H266.538C266.005 61.64 265.525 61.48 265.098 61.16C264.778 60.7333 264.618 60.2533 264.618 59.72V58.44C264.618 56.3067 263.925 54.6 262.538 53.32C261.258 51.9333 259.551 51.24 257.418 51.24C255.178 51.24 253.418 51.9867 252.138 53.48C250.858 54.8667 250.218 56.52 250.218 58.44C250.218 61 251.285 63.0267 253.418 64.52C255.658 65.9067 259.018 67.4533 263.498 69.16C268.085 70.8667 271.978 72.6267 275.178 74.44C278.485 76.1467 281.311 78.6533 283.658 81.96C286.005 85.16 287.178 89.2133 287.178 94.12C287.178 101.48 284.458 107.347 279.018 111.72C273.685 115.987 266.538 118.12 257.578 118.12ZM328.316 118.28C318.929 118.28 311.516 115.88 306.076 111.08C300.742 106.28 298.076 99.72 298.076 91.4V60.36C298.076 52.2533 300.742 45.7467 306.076 40.84C311.516 35.9333 318.929 33.48 328.316 33.48C337.702 33.48 345.062 35.88 350.396 40.68C355.836 45.48 358.556 51.72 358.556 59.4V62.28C358.556 62.8133 358.342 63.2933 357.916 63.72C357.596 64.04 357.169 64.2 356.636 64.2L337.916 65C336.636 65 335.996 64.36 335.996 63.08V61.16C335.996 58.8133 335.249 56.84 333.756 55.24C332.369 53.64 330.556 52.84 328.316 52.84C325.969 52.84 324.102 53.6933 322.716 55.4C321.329 57.1067 320.636 59.3467 320.636 62.12V89.64C320.636 92.4133 321.329 94.6533 322.716 96.36C324.102 98.0667 325.969 98.92 328.316 98.92C330.556 98.92 332.369 98.12 333.756 96.52C335.249 94.8133 335.996 92.84 335.996 90.6V88.52C335.996 87.9867 336.156 87.56 336.476 87.24C336.902 86.8133 337.382 86.6 337.916 86.6L356.636 86.76C357.169 86.76 357.596 86.9733 357.916 87.4C358.342 87.72 358.556 88.1467 358.556 88.68V92.36C358.556 100.253 355.836 106.547 350.396 111.24C345.062 115.933 337.702 118.28 328.316 118.28ZM408.571 33.8C411.451 33.8 413.691 34.3333 415.291 35.4C416.144 35.9333 416.464 36.7333 416.251 37.8L413.211 56.52C413.104 57.6933 412.357 58.12 410.971 57.8C409.797 57.3733 408.357 57.16 406.651 57.16C405.051 57.16 403.664 57.3733 402.491 57.8C400.037 58.2267 398.064 59.72 396.571 62.28C395.077 64.7333 394.331 67.6133 394.331 70.92V114.92C394.331 115.453 394.117 115.933 393.691 116.36C393.371 116.68 392.944 116.84 392.411 116.84H373.691C373.157 116.84 372.677 116.68 372.251 116.36C371.931 115.933 371.771 115.453 371.771 114.92V36.68C371.771 36.1467 371.931 35.72 372.251 35.4C372.677 34.9733 373.157 34.76 373.691 34.76H392.411C392.944 34.76 393.371 34.9733 393.691 35.4C394.117 35.72 394.331 36.1467 394.331 36.68V42.92C394.331 43.3467 394.384 43.6133 394.491 43.72C394.704 43.72 394.917 43.56 395.131 43.24C398.011 36.9467 402.491 33.8 408.571 33.8ZM438.206 25.48C434.579 25.48 431.539 24.3067 429.086 21.96C426.739 19.5067 425.566 16.4667 425.566 12.84C425.566 9.10666 426.739 6.06666 429.086 3.72C431.432 1.37333 434.472 0.199997 438.206 0.199997C441.939 0.199997 444.926 1.37333 447.166 3.72C449.512 6.06666 450.686 9.10666 450.686 12.84C450.686 16.4667 449.512 19.5067 447.166 21.96C444.819 24.3067 441.832 25.48 438.206 25.48ZM429.086 117C428.552 117 428.072 116.84 427.646 116.52C427.326 116.093 427.166 115.613 427.166 115.08V36.68C427.166 36.1467 427.326 35.72 427.646 35.4C428.072 34.9733 428.552 34.76 429.086 34.76H447.806C448.339 34.76 448.766 34.9733 449.086 35.4C449.512 35.72 449.726 36.1467 449.726 36.68V115.08C449.726 115.613 449.512 116.093 449.086 116.52C448.766 116.84 448.339 117 447.806 117H429.086ZM502.966 33.48C510.219 33.48 515.712 35.8267 519.446 40.52C523.286 45.1067 525.206 51.72 525.206 60.36V91.4C525.206 99.8267 523.339 106.44 519.606 111.24C515.872 115.933 510.326 118.28 502.966 118.28C496.992 118.28 492.192 116.253 488.566 112.2C488.352 111.987 488.139 111.933 487.926 112.04C487.712 112.04 487.606 112.2 487.606 112.52V115.08C487.606 115.613 487.392 116.093 486.966 116.52C486.646 116.84 486.219 117 485.686 117H466.966C466.432 117 465.952 116.84 465.526 116.52C465.206 116.093 465.046 115.613 465.046 115.08V6.92C465.046 6.38666 465.206 5.96 465.526 5.63999C465.952 5.21333 466.432 4.99999 466.966 4.99999H485.686C486.219 4.99999 486.646 5.21333 486.966 5.63999C487.392 5.96 487.606 6.38666 487.606 6.92V39.4C487.606 39.6133 487.712 39.72 487.926 39.72C488.352 39.72 488.779 39.4533 489.206 38.92C492.832 35.2933 497.419 33.48 502.966 33.48ZM502.646 61.96C502.646 59.2933 501.952 57.1067 500.566 55.4C499.179 53.6933 497.366 52.84 495.126 52.84C493.206 52.84 491.552 53.48 490.166 54.76C488.779 56.04 487.926 57.7467 487.606 59.88V91.88C487.926 94.0133 488.779 95.72 490.166 97C491.552 98.28 493.206 98.92 495.126 98.92C497.366 98.92 499.179 98.0667 500.566 96.36C501.952 94.6533 502.646 92.4667 502.646 89.8V61.96ZM598.856 81C598.856 81.5333 598.642 82.0133 598.216 82.44C597.896 82.76 597.469 82.92 596.936 82.92H561.736C561.202 82.92 560.936 83.1867 560.936 83.72V89.64C560.936 92.3067 561.629 94.5467 563.016 96.36C564.509 98.0667 566.376 98.92 568.616 98.92C570.642 98.92 572.296 98.28 573.576 97C574.856 95.6133 575.709 93.9067 576.136 91.88C576.456 90.8133 577.149 90.28 578.216 90.28L596.616 91.24C597.149 91.24 597.576 91.4533 597.896 91.88C598.322 92.2 598.482 92.68 598.376 93.32C597.629 101.533 594.749 107.773 589.736 112.04C584.829 116.2 577.789 118.28 568.616 118.28C559.122 118.28 551.709 115.933 546.376 111.24C541.042 106.44 538.376 99.8267 538.376 91.4V60.36C538.376 52.2533 541.042 45.7467 546.376 40.84C551.816 35.9333 559.229 33.48 568.616 33.48C578.002 33.48 585.362 35.9333 590.696 40.84C596.136 45.7467 598.856 52.2533 598.856 60.36V81ZM568.616 52.84C566.376 52.84 564.509 53.6933 563.016 55.4C561.629 57.1067 560.936 59.2933 560.936 61.96V68.2C560.936 68.7333 561.202 69 561.736 69H575.496C576.029 69 576.296 68.7333 576.296 68.2V61.96C576.296 59.2933 575.549 57.1067 574.056 55.4C572.669 53.6933 570.856 52.84 568.616 52.84ZM694.334 6.92C694.334 6.38666 694.494 5.96 694.814 5.63999C695.241 5.21333 695.721 4.99999 696.254 4.99999H714.814C715.348 4.99999 715.774 5.21333 716.094 5.63999C716.521 5.96 716.734 6.38666 716.734 6.92V115.08C716.734 115.613 716.521 116.093 716.094 116.52C715.774 116.84 715.348 117 714.814 117H693.694C692.628 117 691.934 116.467 691.614 115.4L671.774 53.48C671.668 53.16 671.454 53.0533 671.134 53.16C670.921 53.16 670.814 53.32 670.814 53.64L670.974 115.08C670.974 115.613 670.761 116.093 670.334 116.52C670.014 116.84 669.588 117 669.054 117H650.494C649.961 117 649.481 116.84 649.054 116.52C648.734 116.093 648.574 115.613 648.574 115.08V6.92C648.574 6.38666 648.734 5.96 649.054 5.63999C649.481 5.21333 649.961 4.99999 650.494 4.99999H671.454C672.521 4.99999 673.214 5.53333 673.534 6.59999L693.534 68.52C693.641 68.84 693.801 69 694.014 69C694.334 68.8933 694.494 68.68 694.494 68.36L694.334 6.92ZM762.282 118.28C752.789 118.28 745.322 115.88 739.882 111.08C734.549 106.28 731.882 99.72 731.882 91.4V60.36C731.882 52.2533 734.602 45.7467 740.042 40.84C745.482 35.9333 752.895 33.48 762.282 33.48C771.775 33.48 779.242 35.9333 784.682 40.84C790.122 45.7467 792.842 52.2533 792.842 60.36V91.4C792.842 99.72 790.122 106.28 784.682 111.08C779.349 115.88 771.882 118.28 762.282 118.28ZM762.282 98.76C764.629 98.76 766.549 97.9067 768.042 96.2C769.535 94.4933 770.282 92.3067 770.282 89.64V61.96C770.282 59.2933 769.535 57.1067 768.042 55.4C766.549 53.6933 764.629 52.84 762.282 52.84C759.935 52.84 758.015 53.6933 756.522 55.4C755.135 57.1067 754.442 59.2933 754.442 61.96V89.64C754.442 92.3067 755.135 94.4933 756.522 96.2C758.015 97.9067 759.935 98.76 762.282 98.76ZM820.323 117C819.15 117 818.456 116.413 818.243 115.24L800.963 36.68V36.04C800.963 35.08 801.55 34.6 802.723 34.6H820.483C821.763 34.6 822.456 35.1867 822.563 36.36L829.443 80.2C829.55 80.52 829.71 80.68 829.923 80.68C830.136 80.68 830.296 80.52 830.403 80.2L837.443 36.36C837.55 35.1867 838.243 34.6 839.523 34.6H855.363C856.643 34.6 857.336 35.1867 857.443 36.36L864.963 80.36C865.07 80.68 865.23 80.84 865.443 80.84C865.656 80.7333 865.816 80.52 865.923 80.2L872.643 36.36C872.75 35.1867 873.443 34.6 874.723 34.6L892.323 34.92C893.71 34.92 894.243 35.6133 893.923 37L876.803 115.24C876.59 116.413 875.896 117 874.723 117H856.483C855.203 117 854.51 116.413 854.403 115.24L847.523 74.6C847.416 74.28 847.256 74.12 847.043 74.12C846.83 74.12 846.67 74.28 846.563 74.6L840.003 115.24C839.896 116.413 839.203 117 837.923 117H820.323Z" fill="white" fill-opacity="0.05"/>
<path d="M337.365 93.48C333.685 93.48 330.745 92.4 328.545 90.24C326.345 88.08 325.245 85.2 325.245 81.6V62.4C325.245 58.8 326.345 55.92 328.545 53.76C330.745 51.6 333.685 50.52 337.365 50.52C341.045 50.52 343.985 51.6 346.185 53.76C348.425 55.92 349.545 58.8 349.545 62.4V81.6C349.545 85.2 348.425 88.08 346.185 90.24C343.985 92.4 341.045 93.48 337.365 93.48ZM337.365 86.22C338.485 86.22 339.385 85.84 340.065 85.08C340.745 84.28 341.085 83.24 341.085 81.96V62.04C341.085 60.76 340.745 59.74 340.065 58.98C339.385 58.18 338.485 57.78 337.365 57.78C336.245 57.78 335.345 58.18 334.665 58.98C334.025 59.74 333.705 60.76 333.705 62.04V81.96C333.705 83.24 334.025 84.28 334.665 85.08C335.345 85.84 336.245 86.22 337.365 86.22ZM368.844 62.88C368.844 62.68 368.904 62.52 369.024 62.4C369.184 62.24 369.364 62.16 369.564 62.16H376.584C376.784 62.16 376.944 62.24 377.064 62.4C377.224 62.52 377.304 62.68 377.304 62.88V92.28C377.304 92.48 377.224 92.66 377.064 92.82C376.944 92.94 376.784 93 376.584 93H369.564C369.364 93 369.184 92.94 369.024 92.82C368.904 92.66 368.844 92.48 368.844 92.28V91.26C368.844 91.14 368.804 91.06 368.724 91.02C368.644 90.98 368.564 91.02 368.484 91.14C367.884 91.98 367.124 92.58 366.204 92.94C365.324 93.26 364.284 93.42 363.084 93.42C360.684 93.42 358.704 92.7 357.144 91.26C355.584 89.78 354.804 87.52 354.804 84.48V62.88C354.804 62.68 354.864 62.52 354.984 62.4C355.144 62.24 355.324 62.16 355.524 62.16H362.544C362.744 62.16 362.904 62.24 363.024 62.4C363.184 62.52 363.264 62.68 363.264 62.88V82.62C363.264 83.78 363.484 84.68 363.924 85.32C364.404 85.92 365.084 86.22 365.964 86.22C366.844 86.22 367.544 85.88 368.064 85.2C368.584 84.52 368.844 83.6 368.844 82.44V62.88ZM396.88 61.8C397.96 61.8 398.8 62 399.4 62.4C399.72 62.6 399.84 62.9 399.76 63.3L398.62 70.32C398.58 70.76 398.3 70.92 397.78 70.8C397.34 70.64 396.8 70.56 396.16 70.56C395.56 70.56 395.04 70.64 394.6 70.8C393.68 70.96 392.94 71.52 392.38 72.48C391.82 73.4 391.54 74.48 391.54 75.72V92.22C391.54 92.42 391.46 92.6 391.3 92.76C391.18 92.88 391.02 92.94 390.82 92.94H383.8C383.6 92.94 383.42 92.88 383.26 92.76C383.14 92.6 383.08 92.42 383.08 92.22V62.88C383.08 62.68 383.14 62.52 383.26 62.4C383.42 62.24 383.6 62.16 383.8 62.16H390.82C391.02 62.16 391.18 62.24 391.3 62.4C391.46 62.52 391.54 62.68 391.54 62.88V65.22C391.54 65.38 391.56 65.48 391.6 65.52C391.68 65.52 391.76 65.46 391.84 65.34C392.92 62.98 394.6 61.8 396.88 61.8ZM430.085 50.94C432.285 50.94 434.245 51.48 435.965 52.56C437.685 53.64 439.005 55.16 439.925 57.12C440.885 59.04 441.365 61.24 441.365 63.72C441.365 67.44 440.365 70.42 438.365 72.66C436.365 74.9 433.745 76.02 430.505 76.02H426.005C425.805 76.02 425.705 76.12 425.705 76.32V92.28C425.705 92.48 425.625 92.66 425.465 92.82C425.345 92.94 425.185 93 424.985 93H417.965C417.765 93 417.585 92.94 417.425 92.82C417.305 92.66 417.245 92.48 417.245 92.28V51.66C417.245 51.46 417.305 51.3 417.425 51.18C417.585 51.02 417.765 50.94 417.965 50.94H430.085ZM428.645 69.42C429.925 69.42 430.945 68.94 431.705 67.98C432.505 66.98 432.905 65.62 432.905 63.9C432.905 62.14 432.505 60.76 431.705 59.76C430.945 58.76 429.925 58.26 428.645 58.26H426.005C425.805 58.26 425.705 58.36 425.705 58.56V69.12C425.705 69.32 425.805 69.42 426.005 69.42H428.645ZM459.836 61.8C460.916 61.8 461.756 62 462.356 62.4C462.676 62.6 462.796 62.9 462.716 63.3L461.576 70.32C461.536 70.76 461.256 70.92 460.736 70.8C460.296 70.64 459.756 70.56 459.116 70.56C458.516 70.56 457.996 70.64 457.556 70.8C456.636 70.96 455.896 71.52 455.336 72.48C454.776 73.4 454.496 74.48 454.496 75.72V92.22C454.496 92.42 454.416 92.6 454.256 92.76C454.136 92.88 453.976 92.94 453.776 92.94H446.756C446.556 92.94 446.376 92.88 446.216 92.76C446.096 92.6 446.036 92.42 446.036 92.22V62.88C446.036 62.68 446.096 62.52 446.216 62.4C446.376 62.24 446.556 62.16 446.756 62.16H453.776C453.976 62.16 454.136 62.24 454.256 62.4C454.416 62.52 454.496 62.68 454.496 62.88V65.22C454.496 65.38 454.516 65.48 454.556 65.52C454.636 65.52 454.716 65.46 454.796 65.34C455.876 62.98 457.556 61.8 459.836 61.8ZM470.949 58.68C469.589 58.68 468.449 58.24 467.529 57.36C466.649 56.44 466.209 55.3 466.209 53.94C466.209 52.54 466.649 51.4 467.529 50.52C468.409 49.64 469.549 49.2 470.949 49.2C472.349 49.2 473.469 49.64 474.309 50.52C475.189 51.4 475.629 52.54 475.629 53.94C475.629 55.3 475.189 56.44 474.309 57.36C473.429 58.24 472.309 58.68 470.949 58.68ZM467.529 93C467.329 93 467.149 92.94 466.989 92.82C466.869 92.66 466.809 92.48 466.809 92.28V62.88C466.809 62.68 466.869 62.52 466.989 62.4C467.149 62.24 467.329 62.16 467.529 62.16H474.549C474.749 62.16 474.909 62.24 475.029 62.4C475.189 62.52 475.269 62.68 475.269 62.88V92.28C475.269 92.48 475.189 92.66 475.029 92.82C474.909 92.94 474.749 93 474.549 93H467.529ZM491.934 93.48C488.414 93.48 485.634 92.58 483.594 90.78C481.594 88.98 480.594 86.52 480.594 83.4V71.76C480.594 68.72 481.594 66.28 483.594 64.44C485.634 62.6 488.414 61.68 491.934 61.68C495.454 61.68 498.214 62.58 500.214 64.38C502.254 66.18 503.274 68.52 503.274 71.4V72.48C503.274 72.68 503.194 72.86 503.034 73.02C502.914 73.14 502.754 73.2 502.554 73.2L495.534 73.5C495.054 73.5 494.814 73.26 494.814 72.78V72.06C494.814 71.18 494.534 70.44 493.974 69.84C493.454 69.24 492.774 68.94 491.934 68.94C491.054 68.94 490.354 69.26 489.834 69.9C489.314 70.54 489.054 71.38 489.054 72.42V82.74C489.054 83.78 489.314 84.62 489.834 85.26C490.354 85.9 491.054 86.22 491.934 86.22C492.774 86.22 493.454 85.92 493.974 85.32C494.534 84.68 494.814 83.94 494.814 83.1V82.32C494.814 82.12 494.874 81.96 494.994 81.84C495.154 81.68 495.334 81.6 495.534 81.6L502.554 81.66C502.754 81.66 502.914 81.74 503.034 81.9C503.194 82.02 503.274 82.18 503.274 82.38V83.76C503.274 86.72 502.254 89.08 500.214 90.84C498.214 92.6 495.454 93.48 491.934 93.48ZM512.49 58.68C511.13 58.68 509.99 58.24 509.07 57.36C508.19 56.44 507.75 55.3 507.75 53.94C507.75 52.54 508.19 51.4 509.07 50.52C509.95 49.64 511.09 49.2 512.49 49.2C513.89 49.2 515.01 49.64 515.85 50.52C516.73 51.4 517.17 52.54 517.17 53.94C517.17 55.3 516.73 56.44 515.85 57.36C514.97 58.24 513.85 58.68 512.49 58.68ZM509.07 93C508.87 93 508.69 92.94 508.53 92.82C508.41 92.66 508.35 92.48 508.35 92.28V62.88C508.35 62.68 508.41 62.52 508.53 62.4C508.69 62.24 508.87 62.16 509.07 62.16H516.09C516.29 62.16 516.45 62.24 516.57 62.4C516.73 62.52 516.81 62.68 516.81 62.88V92.28C516.81 92.48 516.73 92.66 516.57 92.82C516.45 92.94 516.29 93 516.09 93H509.07ZM536.895 61.68C539.615 61.68 541.655 62.58 543.015 64.38C544.375 66.18 545.055 68.7 545.055 71.94V92.28C545.055 92.48 544.975 92.66 544.815 92.82C544.695 92.94 544.535 93 544.335 93H537.315C537.115 93 536.935 92.94 536.775 92.82C536.655 92.66 536.595 92.48 536.595 92.28V72.6C536.595 71.44 536.355 70.54 535.875 69.9C535.435 69.26 534.775 68.94 533.895 68.94C532.975 68.94 532.255 69.28 531.735 69.96C531.255 70.6 531.015 71.52 531.015 72.72V92.28C531.015 92.48 530.935 92.66 530.775 92.82C530.655 92.94 530.495 93 530.295 93H523.275C523.075 93 522.895 92.94 522.735 92.82C522.615 92.66 522.555 92.48 522.555 92.28V62.88C522.555 62.68 522.615 62.52 522.735 62.4C522.895 62.24 523.075 62.16 523.275 62.16H530.295C530.495 62.16 530.655 62.24 530.775 62.4C530.935 62.52 531.015 62.68 531.015 62.88V64.02C531.015 64.14 531.055 64.2 531.135 64.2C531.255 64.2 531.395 64.12 531.555 63.96C532.835 62.44 534.615 61.68 536.895 61.68ZM564.331 62.88C564.331 62.68 564.391 62.52 564.511 62.4C564.671 62.24 564.851 62.16 565.051 62.16H572.071C572.271 62.16 572.431 62.24 572.551 62.4C572.711 62.52 572.791 62.68 572.791 62.88V91.56C572.791 96 571.731 99.42 569.611 101.82C567.531 104.22 563.771 105.42 558.331 105.42C557.251 105.42 556.411 105.4 555.811 105.36C555.331 105.32 555.091 105.06 555.091 104.58V98.7C555.091 98.18 555.351 97.96 555.871 98.04C558.231 98.12 560.011 97.88 561.211 97.32C562.451 96.8 563.271 96 563.671 94.92C564.111 93.84 564.331 92.42 564.331 90.66C564.331 90.54 564.291 90.48 564.211 90.48C564.131 90.48 564.051 90.54 563.971 90.66C563.251 91.62 562.371 92.3 561.331 92.7C560.331 93.06 559.351 93.24 558.391 93.24C555.631 93.24 553.571 92.36 552.211 90.6C550.851 88.8 550.171 86.32 550.171 83.16V71.76C550.171 68.52 550.851 66.04 552.211 64.32C553.611 62.56 555.671 61.68 558.391 61.68C560.831 61.68 562.691 62.58 563.971 64.38C564.051 64.5 564.131 64.54 564.211 64.5C564.291 64.46 564.331 64.38 564.331 64.26V62.88ZM561.451 85.92C562.291 85.92 562.971 85.6 563.491 84.96C564.051 84.32 564.331 83.5 564.331 82.5V72.36C564.331 71.36 564.051 70.54 563.491 69.9C562.971 69.26 562.291 68.94 561.451 68.94C560.611 68.94 559.931 69.26 559.411 69.9C558.891 70.54 558.631 71.36 558.631 72.36V82.5C558.631 83.5 558.891 84.32 559.411 84.96C559.931 85.6 560.611 85.92 561.451 85.92Z" fill="white"/>
<rect x="294" y="127.5" width="125" height="1" rx="0.5" fill="url(#paint0_linear_11_254)"/>
<path fill-rule="evenodd" clip-rule="evenodd" d="M469 128.995C469 129.751 468.376 130.437 467.544 130.506C467.544 130.46 467.521 130.437 467.475 130.437L465.049 138.469L433.783 139.224L430.941 131.261C430.802 131.352 430.664 131.398 430.525 131.398C429.693 131.398 429 130.78 429 129.957C429 129.133 429.624 128.446 430.456 128.446C431.218 128.446 431.912 129.064 431.981 129.888C431.981 130.506 431.565 131.055 431.08 131.261C431.634 131.741 434.061 133.595 437.943 133.114C442.31 132.497 448.133 124.327 448.827 115.952C447.995 115.952 447.371 115.334 447.371 114.51C447.302 113.755 447.995 113.069 448.757 113C449.589 113 450.282 113.618 450.282 114.442C450.352 115.265 449.728 115.883 448.896 115.952C450.005 124.259 456.244 132.153 460.681 132.565C464.355 132.84 466.643 131.055 467.336 130.437C466.643 130.368 466.088 129.751 466.019 129.064C466.019 128.24 466.643 127.554 467.475 127.554C468.307 127.554 469 128.172 469 128.995ZM465.257 140.46V140.941C465.257 141.215 465.049 141.421 464.771 141.421L434.338 142.176C434.061 142.176 433.853 141.97 433.853 141.696V141.215C433.853 140.941 434.061 140.735 434.338 140.735L464.771 139.979C465.049 139.979 465.257 140.185 465.257 140.46ZM465.326 141.97C465.326 142.108 465.187 142.245 464.979 142.245L434.199 143C434.061 143 433.922 142.863 433.853 142.725C433.853 142.588 433.991 142.451 434.199 142.451L464.979 141.696C465.118 141.696 465.257 141.764 465.326 141.97ZM465.257 139.224C465.257 139.362 465.118 139.499 464.91 139.568L434.13 140.323C433.991 140.323 433.853 140.185 433.783 139.979C433.783 139.842 433.922 139.705 434.13 139.705L464.91 138.95C465.049 138.95 465.187 139.087 465.257 139.224ZM456.938 129.476C456.938 129.476 459.364 126.593 459.988 123.503C459.225 123.503 458.601 122.886 458.532 122.13C458.532 121.307 459.156 120.62 459.988 120.62C460.82 120.62 461.513 121.238 461.513 122.062C461.513 122.817 460.889 123.503 460.057 123.503C460.057 123.503 460.034 123.503 459.988 123.503C460.127 124.327 460.612 129.27 462.622 131.741C462.622 131.741 458.879 132.016 456.938 129.476ZM464.91 133.595C464.91 133.595 463.801 134.762 462.692 135.105C461.513 135.38 459.156 135.723 458.74 137.508L463.731 137.439L464.91 133.595ZM453.402 132.84C450.906 131.192 449.867 128.927 449.867 128.927L450.075 137.714L456.452 137.577C456.868 136.135 455.967 134.487 453.402 132.84ZM448.48 128.995C448.48 128.995 447.579 131.261 445.153 133.046C442.726 134.831 441.894 136.478 442.38 137.92L448.757 137.783L448.48 128.995ZM440.023 137.989C439.537 136.135 437.111 135.998 436.002 135.723C434.823 135.449 433.645 134.35 433.645 134.35L435.031 138.057L440.023 137.989ZM436.002 132.428C437.873 129.888 438.151 124.876 438.22 124.053C438.174 124.098 438.151 124.121 438.151 124.121C437.319 124.121 436.626 123.503 436.626 122.68C436.626 121.856 437.25 121.169 438.081 121.169C438.913 121.169 439.537 121.787 439.607 122.611C439.607 123.366 438.983 123.984 438.22 124.053C439.052 127.073 441.548 129.888 441.548 129.888C439.815 132.565 436.002 132.428 436.002 132.428Z" fill="url(#paint1_linear_11_254)"/>
<rect x="479" y="127.5" width="125" height="1" rx="0.5" fill="url(#paint2_linear_11_254)"/>
<defs>
<linearGradient id="paint0_linear_11_254" x1="357.778" y1="128.5" x2="357.778" y2="127.501" gradientUnits="userSpaceOnUse">
<stop stop-color="#C22622"/>
<stop offset="0.36" stop-color="#FF3837"/>
<stop offset="0.97" stop-color="#FFB32F"/>
<stop offset="1" stop-color="#FFB32F"/>
</linearGradient>
<linearGradient id="paint1_linear_11_254" x1="449.409" y1="143.014" x2="449.409" y2="113.027" gradientUnits="userSpaceOnUse">
<stop stop-color="#C22622"/>
<stop offset="0.36" stop-color="#FF3837"/>
<stop offset="0.97" stop-color="#FFB32F"/>
<stop offset="1" stop-color="#FFB32F"/>
</linearGradient>
<linearGradient id="paint2_linear_11_254" x1="542.778" y1="128.5" x2="542.778" y2="127.501" gradientUnits="userSpaceOnUse">
<stop stop-color="#C22622"/>
<stop offset="0.36" stop-color="#FF3837"/>
<stop offset="0.97" stop-color="#FFB32F"/>
<stop offset="1" stop-color="#FFB32F"/>
</linearGradient>
</defs>
</svg>
