<svg width="270" height="345" viewBox="0 0 270 345" fill="none" xmlns="http://www.w3.org/2000/svg">
<g filter="url(#filter0_b_11_220)">
<path d="M0 15C0 6.71573 6.71573 0 15 0H255C263.284 0 270 6.71573 270 15V345L253.125 335L236.25 345L219.375 335L202.5 345L185.625 335L168.75 345L151.875 335L135 345L118.125 335L101.25 345L84.375 335L67.5 345L50.625 335L33.75 345L16.875 335L0 345V15Z" fill="url(#paint0_linear_11_220)" fill-opacity="0.2"/>
<path d="M16.6201 334.57L0.5 344.122V15C0.5 6.99187 6.99187 0.5 15 0.5H255C263.008 0.5 269.5 6.99187 269.5 15V344.122L253.38 334.57L253.125 334.419L252.87 334.57L236.25 344.419L219.63 334.57L219.375 334.419L219.12 334.57L202.5 344.419L185.88 334.57L185.625 334.419L185.37 334.57L168.75 344.419L152.13 334.57L151.875 334.419L151.62 334.57L135 344.419L118.38 334.57L118.125 334.419L117.87 334.57L101.25 344.419L84.6299 334.57L84.375 334.419L84.1201 334.57L67.5 344.419L50.8799 334.57L50.625 334.419L50.3701 334.57L33.75 344.419L17.1299 334.57L16.875 334.419L16.6201 334.57Z" stroke="url(#paint1_linear_11_220)"/>
</g>
<defs>
<filter id="filter0_b_11_220" x="-15" y="-15" width="300" height="375" filterUnits="userSpaceOnUse" color-interpolation-filters="sRGB">
<feFlood flood-opacity="0" result="BackgroundImageFix"/>
<feGaussianBlur in="BackgroundImageFix" stdDeviation="7.5"/>
<feComposite in2="SourceAlpha" operator="in" result="effect1_backgroundBlur_11_220"/>
<feBlend mode="normal" in="SourceGraphic" in2="effect1_backgroundBlur_11_220" result="shape"/>
</filter>
<linearGradient id="paint0_linear_11_220" x1="0" y1="0" x2="328.913" y2="274.378" gradientUnits="userSpaceOnUse">
<stop stop-color="#B70DD3"/>
<stop offset="1" stop-color="#250ACB"/>
</linearGradient>
<linearGradient id="paint1_linear_11_220" x1="0" y1="0" x2="330.644" y2="73.9881" gradientUnits="userSpaceOnUse">
<stop stop-color="#B70DD3"/>
<stop offset="1" stop-color="#250ACB"/>
</linearGradient>
</defs>
</svg>
