<svg width="37" height="30" viewBox="0 0 37 30" fill="none" xmlns="http://www.w3.org/2000/svg">
<path d="M21.4444 14.7253V30H37V19.8901C37 16.0806 36.3333 12.6007 35 9.45055C33.6667 6.30036 31.4074 3.15018 28.2222 0L22.4444 4.39561C24.2222 6.37363 25.6296 8.1685 26.6667 9.78022C27.6296 11.3919 28.2593 13.0403 28.5556 14.7253H21.4444ZM0 14.7253V30H15.5556V19.8901C15.5556 16.0806 14.8889 12.6007 13.5556 9.45055C12.2222 6.30036 9.96296 3.15018 6.77778 0L1 4.39561C2.77778 6.37363 4.18518 8.1685 5.22222 9.78022C6.18518 11.3919 6.81482 13.0403 7.11111 14.7253H0Z" fill="white" fill-opacity="0.26"/>
</svg>
