<svg width="894" height="143" viewBox="0 0 894 143" fill="none" xmlns="http://www.w3.org/2000/svg">
<path d="M9.18501 117C8.65167 117 8.17167 116.84 7.74501 116.52C7.42501 116.093 7.26501 115.613 7.26501 115.08V6.92C7.26501 6.38666 7.42501 5.96 7.74501 5.63999C8.17167 5.21333 8.65167 4.99999 9.18501 4.99999H27.905C28.4383 4.99999 28.865 5.21333 29.185 5.63999C29.6117 5.96 29.825 6.38666 29.825 6.92V96.84C29.825 97.3733 30.0917 97.64 30.625 97.64H64.225C64.7583 97.64 65.185 97.8533 65.505 98.28C65.9317 98.6 66.145 99.0267 66.145 99.56V115.08C66.145 115.613 65.9317 116.093 65.505 116.52C65.185 116.84 64.7583 117 64.225 117H9.18501ZM107.39 33.48C116.457 33.48 123.817 35.9333 129.47 40.84C135.123 45.7467 137.95 52.2 137.95 60.2V115.08C137.95 115.613 137.737 116.093 137.31 116.52C136.99 116.84 136.563 117 136.03 117H117.31C116.777 117 116.297 116.84 115.87 116.52C115.55 116.093 115.39 115.613 115.39 115.08V111.56C115.39 111.24 115.283 111.027 115.07 110.92C114.857 110.813 114.643 110.92 114.43 111.24C110.91 115.72 105.47 118.067 98.11 118.28C91.9233 118.28 86.5367 116.573 81.95 113.16C77.47 109.747 75.23 103.24 75.23 93.64C75.23 83.72 77.95 76.8933 83.39 73.16C88.9367 69.4267 96.8833 67.56 107.23 67.56H114.59C115.123 67.56 115.39 67.2933 115.39 66.76V62.76C115.39 59.88 114.59 57.5333 112.99 55.72C111.497 53.8 109.577 52.84 107.23 52.84C105.417 52.84 103.87 53.4267 102.59 54.6C101.417 55.6667 100.67 57.2133 100.35 59.24C100.243 60.52 99.55 61.16 98.27 61.16L79.07 61C77.79 61 77.15 60.36 77.15 59.08C77.6833 51.2933 80.7233 45.1067 86.27 40.52C91.8167 35.8267 98.8567 33.48 107.39 33.48ZM105.79 100.84C108.243 100.84 110.43 100.04 112.35 98.44C114.377 96.7333 115.39 94.4933 115.39 91.72V84.2C115.39 83.6667 115.123 83.4 114.59 83.4H108.03C105.15 83.4 102.803 84.2533 100.99 85.96C99.2833 87.56 98.43 89.8 98.43 92.68C98.43 95.3467 99.07 97.3733 100.35 98.76C101.737 100.147 103.55 100.84 105.79 100.84ZM189.676 48.68C189.676 49.2133 189.463 49.6933 189.036 50.12C188.716 50.44 188.29 50.6 187.756 50.6H178.796C178.263 50.6 177.996 50.8667 177.996 51.4V89.48C177.996 92.5733 178.583 94.7067 179.756 95.88C180.93 97.0533 182.69 97.5867 185.036 97.48H186.156C186.69 97.48 187.116 97.6933 187.436 98.12C187.863 98.44 188.076 98.8667 188.076 99.4V115.08C188.076 115.613 187.863 116.093 187.436 116.52C187.116 116.84 186.69 117 186.156 117H179.756C171.97 117 166.103 115.72 162.156 113.16C158.21 110.493 156.236 105.48 156.236 98.12V51.4C156.236 50.8667 155.97 50.6 155.436 50.6H150.156C149.623 50.6 149.143 50.44 148.716 50.12C148.396 49.6933 148.236 49.2133 148.236 48.68V36.68C148.236 36.1467 148.396 35.72 148.716 35.4C149.143 34.9733 149.623 34.76 150.156 34.76H155.436C155.97 34.76 156.236 34.4933 156.236 33.96V16.2C156.236 15.6667 156.396 15.24 156.716 14.92C157.143 14.4933 157.623 14.28 158.156 14.28H176.076C176.61 14.28 177.036 14.4933 177.356 14.92C177.783 15.24 177.996 15.6667 177.996 16.2V33.96C177.996 34.4933 178.263 34.76 178.796 34.76H187.756C188.29 34.76 188.716 34.9733 189.036 35.4C189.463 35.72 189.676 36.1467 189.676 36.68V48.68ZM261.359 81C261.359 81.5333 261.145 82.0133 260.719 82.44C260.399 82.76 259.972 82.92 259.439 82.92H224.239C223.705 82.92 223.439 83.1867 223.439 83.72V89.64C223.439 92.3067 224.132 94.5467 225.519 96.36C227.012 98.0667 228.879 98.92 231.119 98.92C233.145 98.92 234.799 98.28 236.079 97C237.359 95.6133 238.212 93.9067 238.639 91.88C238.959 90.8133 239.652 90.28 240.719 90.28L259.119 91.24C259.652 91.24 260.079 91.4533 260.399 91.88C260.825 92.2 260.985 92.68 260.879 93.32C260.132 101.533 257.252 107.773 252.239 112.04C247.332 116.2 240.292 118.28 231.119 118.28C221.625 118.28 214.212 115.933 208.879 111.24C203.545 106.44 200.879 99.8267 200.879 91.4V60.36C200.879 52.2533 203.545 45.7467 208.879 40.84C214.319 35.9333 221.732 33.48 231.119 33.48C240.505 33.48 247.865 35.9333 253.199 40.84C258.639 45.7467 261.359 52.2533 261.359 60.36V81ZM231.119 52.84C228.879 52.84 227.012 53.6933 225.519 55.4C224.132 57.1067 223.439 59.2933 223.439 61.96V68.2C223.439 68.7333 223.705 69 224.239 69H237.999C238.532 69 238.799 68.7333 238.799 68.2V61.96C238.799 59.2933 238.052 57.1067 236.559 55.4C235.172 53.6933 233.359 52.84 231.119 52.84ZM302.25 118.12C293.183 118.12 285.93 115.987 280.49 111.72C275.157 107.347 272.49 101.533 272.49 94.28V93.16C272.49 92.6267 272.65 92.2 272.97 91.88C273.397 91.4533 273.877 91.24 274.41 91.24H292.01C292.543 91.24 292.97 91.4533 293.29 91.88C293.717 92.2 293.93 92.6267 293.93 93.16V93.64C293.93 95.88 294.73 97.7467 296.33 99.24C297.93 100.627 299.903 101.32 302.25 101.32C304.383 101.32 306.037 100.733 307.21 99.56C308.49 98.28 309.13 96.68 309.13 94.76C309.13 92.4133 308.117 90.6 306.09 89.32C304.063 87.9333 301.77 86.8133 299.21 85.96C296.757 85 295.05 84.36 294.09 84.04C288.223 81.9067 283.263 78.9733 279.21 75.24C275.263 71.4 273.29 65.9067 273.29 58.76C273.29 50.9733 275.85 44.84 280.97 40.36C286.09 35.88 292.917 33.64 301.45 33.64C310.303 33.64 317.29 35.9867 322.41 40.68C327.637 45.3733 330.25 51.72 330.25 59.72C330.25 60.2533 330.037 60.7333 329.61 61.16C329.29 61.48 328.863 61.64 328.33 61.64H311.21C310.677 61.64 310.197 61.48 309.77 61.16C309.45 60.7333 309.29 60.2533 309.29 59.72V58.44C309.29 56.3067 308.597 54.6 307.21 53.32C305.93 51.9333 304.223 51.24 302.09 51.24C299.85 51.24 298.09 51.9867 296.81 53.48C295.53 54.8667 294.89 56.52 294.89 58.44C294.89 61 295.957 63.0267 298.09 64.52C300.33 65.9067 303.69 67.4533 308.17 69.16C312.757 70.8667 316.65 72.6267 319.85 74.44C323.157 76.1467 325.983 78.6533 328.33 81.96C330.677 85.16 331.85 89.2133 331.85 94.12C331.85 101.48 329.13 107.347 323.69 111.72C318.357 115.987 311.21 118.12 302.25 118.12ZM381.308 48.68C381.308 49.2133 381.094 49.6933 380.668 50.12C380.348 50.44 379.921 50.6 379.388 50.6H370.428C369.894 50.6 369.628 50.8667 369.628 51.4V89.48C369.628 92.5733 370.214 94.7067 371.388 95.88C372.561 97.0533 374.321 97.5867 376.668 97.48H377.788C378.321 97.48 378.748 97.6933 379.068 98.12C379.494 98.44 379.708 98.8667 379.708 99.4V115.08C379.708 115.613 379.494 116.093 379.068 116.52C378.748 116.84 378.321 117 377.788 117H371.388C363.601 117 357.734 115.72 353.788 113.16C349.841 110.493 347.868 105.48 347.868 98.12V51.4C347.868 50.8667 347.601 50.6 347.068 50.6H341.788C341.254 50.6 340.774 50.44 340.348 50.12C340.028 49.6933 339.868 49.2133 339.868 48.68V36.68C339.868 36.1467 340.028 35.72 340.348 35.4C340.774 34.9733 341.254 34.76 341.788 34.76H347.068C347.601 34.76 347.868 34.4933 347.868 33.96V16.2C347.868 15.6667 348.028 15.24 348.348 14.92C348.774 14.4933 349.254 14.28 349.788 14.28H367.708C368.241 14.28 368.668 14.4933 368.988 14.92C369.414 15.24 369.628 15.6667 369.628 16.2V33.96C369.628 34.4933 369.894 34.76 370.428 34.76H379.388C379.921 34.76 380.348 34.9733 380.668 35.4C381.094 35.72 381.308 36.1467 381.308 36.68V48.68ZM491.901 4.99999C492.435 4.99999 492.861 5.21333 493.181 5.63999C493.608 5.96 493.821 6.38666 493.821 6.92V22.44C493.821 22.9733 493.608 23.4533 493.181 23.88C492.861 24.2 492.435 24.36 491.901 24.36H471.901C471.368 24.36 471.101 24.6267 471.101 25.16V115.08C471.101 115.613 470.888 116.093 470.461 116.52C470.141 116.84 469.715 117 469.181 117H450.461C449.928 117 449.448 116.84 449.021 116.52C448.701 116.093 448.541 115.613 448.541 115.08V25.16C448.541 24.6267 448.275 24.36 447.741 24.36H428.541C428.008 24.36 427.528 24.2 427.101 23.88C426.781 23.4533 426.621 22.9733 426.621 22.44V6.92C426.621 6.38666 426.781 5.96 427.101 5.63999C427.528 5.21333 428.008 4.99999 428.541 4.99999H491.901ZM539.018 33.8C541.898 33.8 544.138 34.3333 545.738 35.4C546.591 35.9333 546.911 36.7333 546.698 37.8L543.658 56.52C543.551 57.6933 542.804 58.12 541.418 57.8C540.244 57.3733 538.804 57.16 537.098 57.16C535.498 57.16 534.111 57.3733 532.938 57.8C530.484 58.2267 528.511 59.72 527.018 62.28C525.524 64.7333 524.778 67.6133 524.778 70.92V114.92C524.778 115.453 524.564 115.933 524.138 116.36C523.818 116.68 523.391 116.84 522.858 116.84H504.138C503.604 116.84 503.124 116.68 502.698 116.36C502.378 115.933 502.218 115.453 502.218 114.92V36.68C502.218 36.1467 502.378 35.72 502.698 35.4C503.124 34.9733 503.604 34.76 504.138 34.76H522.858C523.391 34.76 523.818 34.9733 524.138 35.4C524.564 35.72 524.778 36.1467 524.778 36.68V42.92C524.778 43.3467 524.831 43.6133 524.938 43.72C525.151 43.72 525.364 43.56 525.578 43.24C528.458 36.9467 532.938 33.8 539.018 33.8ZM586.271 33.48C595.338 33.48 602.698 35.9333 608.351 40.84C614.005 45.7467 616.831 52.2 616.831 60.2V115.08C616.831 115.613 616.618 116.093 616.191 116.52C615.871 116.84 615.445 117 614.911 117H596.191C595.658 117 595.178 116.84 594.751 116.52C594.431 116.093 594.271 115.613 594.271 115.08V111.56C594.271 111.24 594.165 111.027 593.951 110.92C593.738 110.813 593.525 110.92 593.311 111.24C589.791 115.72 584.351 118.067 576.991 118.28C570.805 118.28 565.418 116.573 560.831 113.16C556.351 109.747 554.111 103.24 554.111 93.64C554.111 83.72 556.831 76.8933 562.271 73.16C567.818 69.4267 575.765 67.56 586.111 67.56H593.471C594.005 67.56 594.271 67.2933 594.271 66.76V62.76C594.271 59.88 593.471 57.5333 591.871 55.72C590.378 53.8 588.458 52.84 586.111 52.84C584.298 52.84 582.751 53.4267 581.471 54.6C580.298 55.6667 579.551 57.2133 579.231 59.24C579.125 60.52 578.431 61.16 577.151 61.16L557.951 61C556.671 61 556.031 60.36 556.031 59.08C556.565 51.2933 559.605 45.1067 565.151 40.52C570.698 35.8267 577.738 33.48 586.271 33.48ZM584.671 100.84C587.125 100.84 589.311 100.04 591.231 98.44C593.258 96.7333 594.271 94.4933 594.271 91.72V84.2C594.271 83.6667 594.005 83.4 593.471 83.4H586.911C584.031 83.4 581.685 84.2533 579.871 85.96C578.165 87.56 577.311 89.8 577.311 92.68C577.311 95.3467 577.951 97.3733 579.231 98.76C580.618 100.147 582.431 100.84 584.671 100.84ZM642.477 25.48C638.851 25.48 635.811 24.3067 633.357 21.96C631.011 19.5067 629.837 16.4667 629.837 12.84C629.837 9.10666 631.011 6.06666 633.357 3.72C635.704 1.37333 638.744 0.199997 642.477 0.199997C646.211 0.199997 649.197 1.37333 651.437 3.72C653.784 6.06666 654.957 9.10666 654.957 12.84C654.957 16.4667 653.784 19.5067 651.437 21.96C649.091 24.3067 646.104 25.48 642.477 25.48ZM633.357 117C632.824 117 632.344 116.84 631.917 116.52C631.597 116.093 631.437 115.613 631.437 115.08V36.68C631.437 36.1467 631.597 35.72 631.917 35.4C632.344 34.9733 632.824 34.76 633.357 34.76H652.077C652.611 34.76 653.037 34.9733 653.357 35.4C653.784 35.72 653.997 36.1467 653.997 36.68V115.08C653.997 115.613 653.784 116.093 653.357 116.52C653.037 116.84 652.611 117 652.077 117H633.357ZM670.598 117C670.064 117 669.584 116.84 669.158 116.52C668.838 116.093 668.678 115.613 668.678 115.08V6.92C668.678 6.38666 668.838 5.96 669.158 5.63999C669.584 5.21333 670.064 4.99999 670.598 4.99999H689.318C689.851 4.99999 690.278 5.21333 690.598 5.63999C691.024 5.96 691.238 6.38666 691.238 6.92V115.08C691.238 115.613 691.024 116.093 690.598 116.52C690.278 116.84 689.851 117 689.318 117H670.598ZM765.315 81C765.315 81.5333 765.102 82.0133 764.675 82.44C764.355 82.76 763.928 82.92 763.395 82.92H728.195C727.662 82.92 727.395 83.1867 727.395 83.72V89.64C727.395 92.3067 728.088 94.5467 729.475 96.36C730.968 98.0667 732.835 98.92 735.075 98.92C737.102 98.92 738.755 98.28 740.035 97C741.315 95.6133 742.168 93.9067 742.595 91.88C742.915 90.8133 743.608 90.28 744.675 90.28L763.075 91.24C763.608 91.24 764.035 91.4533 764.355 91.88C764.782 92.2 764.942 92.68 764.835 93.32C764.088 101.533 761.208 107.773 756.195 112.04C751.288 116.2 744.248 118.28 735.075 118.28C725.582 118.28 718.168 115.933 712.835 111.24C707.502 106.44 704.835 99.8267 704.835 91.4V60.36C704.835 52.2533 707.502 45.7467 712.835 40.84C718.275 35.9333 725.688 33.48 735.075 33.48C744.462 33.48 751.822 35.9333 757.155 40.84C762.595 45.7467 765.315 52.2533 765.315 60.36V81ZM735.075 52.84C732.835 52.84 730.968 53.6933 729.475 55.4C728.088 57.1067 727.395 59.2933 727.395 61.96V68.2C727.395 68.7333 727.662 69 728.195 69H741.955C742.488 69 742.755 68.7333 742.755 68.2V61.96C742.755 59.2933 742.008 57.1067 740.515 55.4C739.128 53.6933 737.315 52.84 735.075 52.84ZM815.642 33.8C818.522 33.8 820.762 34.3333 822.362 35.4C823.216 35.9333 823.536 36.7333 823.322 37.8L820.282 56.52C820.176 57.6933 819.429 58.12 818.042 57.8C816.869 57.3733 815.429 57.16 813.722 57.16C812.122 57.16 810.736 57.3733 809.562 57.8C807.109 58.2267 805.136 59.72 803.642 62.28C802.149 64.7333 801.402 67.6133 801.402 70.92V114.92C801.402 115.453 801.189 115.933 800.762 116.36C800.442 116.68 800.016 116.84 799.482 116.84H780.762C780.229 116.84 779.749 116.68 779.322 116.36C779.002 115.933 778.842 115.453 778.842 114.92V36.68C778.842 36.1467 779.002 35.72 779.322 35.4C779.749 34.9733 780.229 34.76 780.762 34.76H799.482C800.016 34.76 800.442 34.9733 800.762 35.4C801.189 35.72 801.402 36.1467 801.402 36.68V42.92C801.402 43.3467 801.456 43.6133 801.562 43.72C801.776 43.72 801.989 43.56 802.202 43.24C805.082 36.9467 809.562 33.8 815.642 33.8ZM861.438 118.12C852.371 118.12 845.118 115.987 839.678 111.72C834.344 107.347 831.678 101.533 831.678 94.28V93.16C831.678 92.6267 831.838 92.2 832.158 91.88C832.584 91.4533 833.064 91.24 833.598 91.24H851.198C851.731 91.24 852.158 91.4533 852.478 91.88C852.904 92.2 853.118 92.6267 853.118 93.16V93.64C853.118 95.88 853.918 97.7467 855.518 99.24C857.118 100.627 859.091 101.32 861.438 101.32C863.571 101.32 865.224 100.733 866.398 99.56C867.678 98.28 868.318 96.68 868.318 94.76C868.318 92.4133 867.304 90.6 865.278 89.32C863.251 87.9333 860.958 86.8133 858.398 85.96C855.944 85 854.238 84.36 853.278 84.04C847.411 81.9067 842.451 78.9733 838.398 75.24C834.451 71.4 832.478 65.9067 832.478 58.76C832.478 50.9733 835.038 44.84 840.158 40.36C845.278 35.88 852.104 33.64 860.638 33.64C869.491 33.64 876.478 35.9867 881.598 40.68C886.824 45.3733 889.438 51.72 889.438 59.72C889.438 60.2533 889.224 60.7333 888.798 61.16C888.478 61.48 888.051 61.64 887.518 61.64H870.398C869.864 61.64 869.384 61.48 868.958 61.16C868.638 60.7333 868.478 60.2533 868.478 59.72V58.44C868.478 56.3067 867.784 54.6 866.398 53.32C865.118 51.9333 863.411 51.24 861.278 51.24C859.038 51.24 857.278 51.9867 855.998 53.48C854.718 54.8667 854.078 56.52 854.078 58.44C854.078 61 855.144 63.0267 857.278 64.52C859.518 65.9067 862.878 67.4533 867.358 69.16C871.944 70.8667 875.838 72.6267 879.038 74.44C882.344 76.1467 885.171 78.6533 887.518 81.96C889.864 85.16 891.038 89.2133 891.038 94.12C891.038 101.48 888.318 107.347 882.878 111.72C877.544 115.987 870.398 118.12 861.438 118.12Z" fill="white" fill-opacity="0.05"/>
<path d="M145.59 93C145.39 93 145.21 92.94 145.05 92.82C144.93 92.66 144.87 92.48 144.87 92.28V51.72C144.87 51.52 144.93 51.36 145.05 51.24C145.21 51.08 145.39 51 145.59 51H152.61C152.81 51 152.97 51.08 153.09 51.24C153.25 51.36 153.33 51.52 153.33 51.72V85.44C153.33 85.64 153.43 85.74 153.63 85.74H166.23C166.43 85.74 166.59 85.82 166.71 85.98C166.87 86.1 166.95 86.26 166.95 86.46V92.28C166.95 92.48 166.87 92.66 166.71 92.82C166.59 92.94 166.43 93 166.23 93H145.59ZM182.417 61.68C185.817 61.68 188.577 62.6 190.697 64.44C192.817 66.28 193.877 68.7 193.877 71.7V92.28C193.877 92.48 193.797 92.66 193.637 92.82C193.517 92.94 193.357 93 193.157 93H186.137C185.937 93 185.757 92.94 185.597 92.82C185.477 92.66 185.417 92.48 185.417 92.28V90.96C185.417 90.84 185.377 90.76 185.297 90.72C185.217 90.68 185.137 90.72 185.057 90.84C183.737 92.52 181.697 93.4 178.937 93.48C176.617 93.48 174.597 92.84 172.877 91.56C171.197 90.28 170.357 87.84 170.357 84.24C170.357 80.52 171.377 77.96 173.417 76.56C175.497 75.16 178.477 74.46 182.357 74.46H185.117C185.317 74.46 185.417 74.36 185.417 74.16V72.66C185.417 71.58 185.117 70.7 184.517 70.02C183.957 69.3 183.237 68.94 182.357 68.94C181.677 68.94 181.097 69.16 180.617 69.6C180.177 70 179.897 70.58 179.777 71.34C179.737 71.82 179.477 72.06 178.997 72.06L171.797 72C171.317 72 171.077 71.76 171.077 71.28C171.277 68.36 172.417 66.04 174.497 64.32C176.577 62.56 179.217 61.68 182.417 61.68ZM181.817 86.94C182.737 86.94 183.557 86.64 184.277 86.04C185.037 85.4 185.417 84.56 185.417 83.52V80.7C185.417 80.5 185.317 80.4 185.117 80.4H182.657C181.577 80.4 180.697 80.72 180.017 81.36C179.377 81.96 179.057 82.8 179.057 83.88C179.057 84.88 179.297 85.64 179.777 86.16C180.297 86.68 180.977 86.94 181.817 86.94ZM213.275 67.38C213.275 67.58 213.195 67.76 213.035 67.92C212.915 68.04 212.755 68.1 212.555 68.1H209.195C208.995 68.1 208.895 68.2 208.895 68.4V82.68C208.895 83.84 209.115 84.64 209.555 85.08C209.995 85.52 210.655 85.72 211.535 85.68H211.955C212.155 85.68 212.315 85.76 212.435 85.92C212.595 86.04 212.675 86.2 212.675 86.4V92.28C212.675 92.48 212.595 92.66 212.435 92.82C212.315 92.94 212.155 93 211.955 93H209.555C206.635 93 204.435 92.52 202.955 91.56C201.475 90.56 200.735 88.68 200.735 85.92V68.4C200.735 68.2 200.635 68.1 200.435 68.1H198.455C198.255 68.1 198.075 68.04 197.915 67.92C197.795 67.76 197.735 67.58 197.735 67.38V62.88C197.735 62.68 197.795 62.52 197.915 62.4C198.075 62.24 198.255 62.16 198.455 62.16H200.435C200.635 62.16 200.735 62.06 200.735 61.86V55.2C200.735 55 200.795 54.84 200.915 54.72C201.075 54.56 201.255 54.48 201.455 54.48H208.175C208.375 54.48 208.535 54.56 208.655 54.72C208.815 54.84 208.895 55 208.895 55.2V61.86C208.895 62.06 208.995 62.16 209.195 62.16H212.555C212.755 62.16 212.915 62.24 213.035 62.4C213.195 62.52 213.275 62.68 213.275 62.88V67.38ZM240.156 79.5C240.156 79.7 240.076 79.88 239.916 80.04C239.796 80.16 239.636 80.22 239.436 80.22H226.236C226.036 80.22 225.936 80.32 225.936 80.52V82.74C225.936 83.74 226.196 84.58 226.716 85.26C227.276 85.9 227.976 86.22 228.816 86.22C229.576 86.22 230.196 85.98 230.676 85.5C231.156 84.98 231.476 84.34 231.636 83.58C231.756 83.18 232.016 82.98 232.416 82.98L239.316 83.34C239.516 83.34 239.676 83.42 239.796 83.58C239.956 83.7 240.016 83.88 239.976 84.12C239.696 87.2 238.616 89.54 236.736 91.14C234.896 92.7 232.256 93.48 228.816 93.48C225.256 93.48 222.476 92.6 220.476 90.84C218.476 89.04 217.476 86.56 217.476 83.4V71.76C217.476 68.72 218.476 66.28 220.476 64.44C222.516 62.6 225.296 61.68 228.816 61.68C232.336 61.68 235.096 62.6 237.096 64.44C239.136 66.28 240.156 68.72 240.156 71.76V79.5ZM228.816 68.94C227.976 68.94 227.276 69.26 226.716 69.9C226.196 70.54 225.936 71.36 225.936 72.36V74.7C225.936 74.9 226.036 75 226.236 75H231.396C231.596 75 231.696 74.9 231.696 74.7V72.36C231.696 71.36 231.416 70.54 230.856 69.9C230.336 69.26 229.656 68.94 228.816 68.94ZM255.49 93.42C252.09 93.42 249.37 92.62 247.33 91.02C245.33 89.38 244.33 87.2 244.33 84.48V84.06C244.33 83.86 244.39 83.7 244.51 83.58C244.67 83.42 244.85 83.34 245.05 83.34H251.65C251.85 83.34 252.01 83.42 252.13 83.58C252.29 83.7 252.37 83.86 252.37 84.06V84.24C252.37 85.08 252.67 85.78 253.27 86.34C253.87 86.86 254.61 87.12 255.49 87.12C256.29 87.12 256.91 86.9 257.35 86.46C257.83 85.98 258.07 85.38 258.07 84.66C258.07 83.78 257.69 83.1 256.93 82.62C256.17 82.1 255.31 81.68 254.35 81.36C253.43 81 252.79 80.76 252.43 80.64C250.23 79.84 248.37 78.74 246.85 77.34C245.37 75.9 244.63 73.84 244.63 71.16C244.63 68.24 245.59 65.94 247.51 64.26C249.43 62.58 251.99 61.74 255.19 61.74C258.51 61.74 261.13 62.62 263.05 64.38C265.01 66.14 265.99 68.52 265.99 71.52C265.99 71.72 265.91 71.9 265.75 72.06C265.63 72.18 265.47 72.24 265.27 72.24H258.85C258.65 72.24 258.47 72.18 258.31 72.06C258.19 71.9 258.13 71.72 258.13 71.52V71.04C258.13 70.24 257.87 69.6 257.35 69.12C256.87 68.6 256.23 68.34 255.43 68.34C254.59 68.34 253.93 68.62 253.45 69.18C252.97 69.7 252.73 70.32 252.73 71.04C252.73 72 253.13 72.76 253.93 73.32C254.77 73.84 256.03 74.42 257.71 75.06C259.43 75.7 260.89 76.36 262.09 77.04C263.33 77.68 264.39 78.62 265.27 79.86C266.15 81.06 266.59 82.58 266.59 84.42C266.59 87.18 265.57 89.38 263.53 91.02C261.53 92.62 258.85 93.42 255.49 93.42ZM285.136 67.38C285.136 67.58 285.056 67.76 284.896 67.92C284.776 68.04 284.616 68.1 284.416 68.1H281.056C280.856 68.1 280.756 68.2 280.756 68.4V82.68C280.756 83.84 280.976 84.64 281.416 85.08C281.856 85.52 282.516 85.72 283.396 85.68H283.816C284.016 85.68 284.176 85.76 284.296 85.92C284.456 86.04 284.536 86.2 284.536 86.4V92.28C284.536 92.48 284.456 92.66 284.296 92.82C284.176 92.94 284.016 93 283.816 93H281.416C278.496 93 276.296 92.52 274.816 91.56C273.336 90.56 272.596 88.68 272.596 85.92V68.4C272.596 68.2 272.496 68.1 272.296 68.1H270.316C270.116 68.1 269.936 68.04 269.776 67.92C269.656 67.76 269.596 67.58 269.596 67.38V62.88C269.596 62.68 269.656 62.52 269.776 62.4C269.936 62.24 270.116 62.16 270.316 62.16H272.296C272.496 62.16 272.596 62.06 272.596 61.86V55.2C272.596 55 272.656 54.84 272.776 54.72C272.936 54.56 273.116 54.48 273.316 54.48H280.036C280.236 54.48 280.396 54.56 280.516 54.72C280.676 54.84 280.756 55 280.756 55.2V61.86C280.756 62.06 280.856 62.16 281.056 62.16H284.416C284.616 62.16 284.776 62.24 284.896 62.4C285.056 62.52 285.136 62.68 285.136 62.88V67.38ZM326.609 51C326.809 51 326.969 51.08 327.089 51.24C327.249 51.36 327.329 51.52 327.329 51.72V57.54C327.329 57.74 327.249 57.92 327.089 58.08C326.969 58.2 326.809 58.26 326.609 58.26H319.109C318.909 58.26 318.809 58.36 318.809 58.56V92.28C318.809 92.48 318.729 92.66 318.569 92.82C318.449 92.94 318.289 93 318.089 93H311.069C310.869 93 310.689 92.94 310.529 92.82C310.409 92.66 310.349 92.48 310.349 92.28V58.56C310.349 58.36 310.249 58.26 310.049 58.26H302.849C302.649 58.26 302.469 58.2 302.309 58.08C302.189 57.92 302.129 57.74 302.129 57.54V51.72C302.129 51.52 302.189 51.36 302.309 51.24C302.469 51.08 302.649 51 302.849 51H326.609ZM344.278 61.8C345.358 61.8 346.198 62 346.798 62.4C347.118 62.6 347.238 62.9 347.158 63.3L346.018 70.32C345.978 70.76 345.698 70.92 345.178 70.8C344.738 70.64 344.198 70.56 343.558 70.56C342.958 70.56 342.438 70.64 341.998 70.8C341.078 70.96 340.338 71.52 339.778 72.48C339.218 73.4 338.938 74.48 338.938 75.72V92.22C338.938 92.42 338.858 92.6 338.698 92.76C338.578 92.88 338.418 92.94 338.218 92.94H331.198C330.998 92.94 330.818 92.88 330.658 92.76C330.538 92.6 330.478 92.42 330.478 92.22V62.88C330.478 62.68 330.538 62.52 330.658 62.4C330.818 62.24 330.998 62.16 331.198 62.16H338.218C338.418 62.16 338.578 62.24 338.698 62.4C338.858 62.52 338.938 62.68 338.938 62.88V65.22C338.938 65.38 338.958 65.48 338.998 65.52C339.078 65.52 339.158 65.46 339.238 65.34C340.318 62.98 341.998 61.8 344.278 61.8ZM361.998 61.68C365.398 61.68 368.158 62.6 370.278 64.44C372.398 66.28 373.458 68.7 373.458 71.7V92.28C373.458 92.48 373.378 92.66 373.218 92.82C373.098 92.94 372.938 93 372.738 93H365.718C365.518 93 365.338 92.94 365.178 92.82C365.058 92.66 364.998 92.48 364.998 92.28V90.96C364.998 90.84 364.958 90.76 364.878 90.72C364.798 90.68 364.718 90.72 364.638 90.84C363.318 92.52 361.278 93.4 358.518 93.48C356.198 93.48 354.178 92.84 352.458 91.56C350.778 90.28 349.938 87.84 349.938 84.24C349.938 80.52 350.958 77.96 352.998 76.56C355.078 75.16 358.058 74.46 361.938 74.46H364.698C364.898 74.46 364.998 74.36 364.998 74.16V72.66C364.998 71.58 364.698 70.7 364.098 70.02C363.538 69.3 362.818 68.94 361.938 68.94C361.258 68.94 360.678 69.16 360.198 69.6C359.758 70 359.478 70.58 359.358 71.34C359.318 71.82 359.058 72.06 358.578 72.06L351.378 72C350.898 72 350.658 71.76 350.658 71.28C350.858 68.36 351.998 66.04 354.078 64.32C356.158 62.56 358.798 61.68 361.998 61.68ZM361.398 86.94C362.318 86.94 363.138 86.64 363.858 86.04C364.618 85.4 364.998 84.56 364.998 83.52V80.7C364.998 80.5 364.898 80.4 364.698 80.4H362.238C361.158 80.4 360.278 80.72 359.598 81.36C358.958 81.96 358.638 82.8 358.638 83.88C358.638 84.88 358.878 85.64 359.358 86.16C359.878 86.68 360.558 86.94 361.398 86.94ZM383.075 58.68C381.715 58.68 380.575 58.24 379.655 57.36C378.775 56.44 378.335 55.3 378.335 53.94C378.335 52.54 378.775 51.4 379.655 50.52C380.535 49.64 381.675 49.2 383.075 49.2C384.475 49.2 385.595 49.64 386.435 50.52C387.315 51.4 387.755 52.54 387.755 53.94C387.755 55.3 387.315 56.44 386.435 57.36C385.555 58.24 384.435 58.68 383.075 58.68ZM379.655 93C379.455 93 379.275 92.94 379.115 92.82C378.995 92.66 378.935 92.48 378.935 92.28V62.88C378.935 62.68 378.995 62.52 379.115 62.4C379.275 62.24 379.455 62.16 379.655 62.16H386.675C386.875 62.16 387.035 62.24 387.155 62.4C387.315 62.52 387.395 62.68 387.395 62.88V92.28C387.395 92.48 387.315 92.66 387.155 92.82C387.035 92.94 386.875 93 386.675 93H379.655ZM393.62 93C393.42 93 393.24 92.94 393.08 92.82C392.96 92.66 392.9 92.48 392.9 92.28V51.72C392.9 51.52 392.96 51.36 393.08 51.24C393.24 51.08 393.42 51 393.62 51H400.64C400.84 51 401 51.08 401.12 51.24C401.28 51.36 401.36 51.52 401.36 51.72V92.28C401.36 92.48 401.28 92.66 401.12 92.82C401 92.94 400.84 93 400.64 93H393.62ZM429.139 79.5C429.139 79.7 429.059 79.88 428.899 80.04C428.779 80.16 428.619 80.22 428.419 80.22H415.219C415.019 80.22 414.919 80.32 414.919 80.52V82.74C414.919 83.74 415.179 84.58 415.699 85.26C416.259 85.9 416.959 86.22 417.799 86.22C418.559 86.22 419.179 85.98 419.659 85.5C420.139 84.98 420.459 84.34 420.619 83.58C420.739 83.18 420.999 82.98 421.399 82.98L428.299 83.34C428.499 83.34 428.659 83.42 428.779 83.58C428.939 83.7 428.999 83.88 428.959 84.12C428.679 87.2 427.599 89.54 425.719 91.14C423.879 92.7 421.239 93.48 417.799 93.48C414.239 93.48 411.459 92.6 409.459 90.84C407.459 89.04 406.459 86.56 406.459 83.4V71.76C406.459 68.72 407.459 66.28 409.459 64.44C411.499 62.6 414.279 61.68 417.799 61.68C421.319 61.68 424.079 62.6 426.079 64.44C428.119 66.28 429.139 68.72 429.139 71.76V79.5ZM417.799 68.94C416.959 68.94 416.259 69.26 415.699 69.9C415.179 70.54 414.919 71.36 414.919 72.36V74.7C414.919 74.9 415.019 75 415.219 75H420.379C420.579 75 420.679 74.9 420.679 74.7V72.36C420.679 71.36 420.399 70.54 419.839 69.9C419.319 69.26 418.639 68.94 417.799 68.94ZM448.012 61.8C449.092 61.8 449.932 62 450.532 62.4C450.852 62.6 450.972 62.9 450.892 63.3L449.752 70.32C449.712 70.76 449.432 70.92 448.912 70.8C448.472 70.64 447.932 70.56 447.292 70.56C446.692 70.56 446.172 70.64 445.732 70.8C444.812 70.96 444.072 71.52 443.512 72.48C442.952 73.4 442.672 74.48 442.672 75.72V92.22C442.672 92.42 442.592 92.6 442.432 92.76C442.312 92.88 442.152 92.94 441.952 92.94H434.932C434.732 92.94 434.552 92.88 434.392 92.76C434.272 92.6 434.212 92.42 434.212 92.22V62.88C434.212 62.68 434.272 62.52 434.392 62.4C434.552 62.24 434.732 62.16 434.932 62.16H441.952C442.152 62.16 442.312 62.24 442.432 62.4C442.592 62.52 442.672 62.68 442.672 62.88V65.22C442.672 65.38 442.692 65.48 442.732 65.52C442.812 65.52 442.892 65.46 442.972 65.34C444.052 62.98 445.732 61.8 448.012 61.8ZM465.185 93.42C461.785 93.42 459.065 92.62 457.025 91.02C455.025 89.38 454.025 87.2 454.025 84.48V84.06C454.025 83.86 454.085 83.7 454.205 83.58C454.365 83.42 454.545 83.34 454.745 83.34H461.345C461.545 83.34 461.705 83.42 461.825 83.58C461.985 83.7 462.065 83.86 462.065 84.06V84.24C462.065 85.08 462.365 85.78 462.965 86.34C463.565 86.86 464.305 87.12 465.185 87.12C465.985 87.12 466.605 86.9 467.045 86.46C467.525 85.98 467.765 85.38 467.765 84.66C467.765 83.78 467.385 83.1 466.625 82.62C465.865 82.1 465.005 81.68 464.045 81.36C463.125 81 462.485 80.76 462.125 80.64C459.925 79.84 458.065 78.74 456.545 77.34C455.065 75.9 454.325 73.84 454.325 71.16C454.325 68.24 455.285 65.94 457.205 64.26C459.125 62.58 461.685 61.74 464.885 61.74C468.205 61.74 470.825 62.62 472.745 64.38C474.705 66.14 475.685 68.52 475.685 71.52C475.685 71.72 475.605 71.9 475.445 72.06C475.325 72.18 475.165 72.24 474.965 72.24H468.545C468.345 72.24 468.165 72.18 468.005 72.06C467.885 71.9 467.825 71.72 467.825 71.52V71.04C467.825 70.24 467.565 69.6 467.045 69.12C466.565 68.6 465.925 68.34 465.125 68.34C464.285 68.34 463.625 68.62 463.145 69.18C462.665 69.7 462.425 70.32 462.425 71.04C462.425 72 462.825 72.76 463.625 73.32C464.465 73.84 465.725 74.42 467.405 75.06C469.125 75.7 470.585 76.36 471.785 77.04C473.025 77.68 474.085 78.62 474.965 79.86C475.845 81.06 476.285 82.58 476.285 84.42C476.285 87.18 475.265 89.38 473.225 91.02C471.225 92.62 468.545 93.42 465.185 93.42ZM505.883 93.48C502.203 93.48 499.263 92.4 497.063 90.24C494.863 88.08 493.763 85.2 493.763 81.6V62.4C493.763 58.8 494.863 55.92 497.063 53.76C499.263 51.6 502.203 50.52 505.883 50.52C509.563 50.52 512.503 51.6 514.703 53.76C516.943 55.92 518.063 58.8 518.063 62.4V81.6C518.063 85.2 516.943 88.08 514.703 90.24C512.503 92.4 509.563 93.48 505.883 93.48ZM505.883 86.22C507.003 86.22 507.903 85.84 508.583 85.08C509.263 84.28 509.603 83.24 509.603 81.96V62.04C509.603 60.76 509.263 59.74 508.583 58.98C507.903 58.18 507.003 57.78 505.883 57.78C504.763 57.78 503.863 58.18 503.183 58.98C502.543 59.74 502.223 60.76 502.223 62.04V81.96C502.223 83.24 502.543 84.28 503.183 85.08C503.863 85.84 504.763 86.22 505.883 86.22ZM537.903 61.68C540.623 61.68 542.663 62.58 544.023 64.38C545.383 66.18 546.063 68.7 546.063 71.94V92.28C546.063 92.48 545.983 92.66 545.823 92.82C545.703 92.94 545.543 93 545.343 93H538.323C538.123 93 537.943 92.94 537.783 92.82C537.663 92.66 537.603 92.48 537.603 92.28V72.6C537.603 71.44 537.363 70.54 536.883 69.9C536.443 69.26 535.783 68.94 534.903 68.94C533.983 68.94 533.263 69.28 532.743 69.96C532.263 70.6 532.023 71.52 532.023 72.72V92.28C532.023 92.48 531.943 92.66 531.783 92.82C531.663 92.94 531.503 93 531.303 93H524.283C524.083 93 523.903 92.94 523.743 92.82C523.623 92.66 523.563 92.48 523.563 92.28V62.88C523.563 62.68 523.623 62.52 523.743 62.4C523.903 62.24 524.083 62.16 524.283 62.16H531.303C531.503 62.16 531.663 62.24 531.783 62.4C531.943 62.52 532.023 62.68 532.023 62.88V64.02C532.023 64.14 532.063 64.2 532.143 64.2C532.263 64.2 532.403 64.12 532.563 63.96C533.843 62.44 535.623 61.68 537.903 61.68ZM573.21 92.94C573.01 92.94 572.83 92.88 572.67 92.76C572.55 92.6 572.49 92.42 572.49 92.22V76.62L572.43 76.26L564.03 51.84C563.99 51.76 563.97 51.66 563.97 51.54C563.97 51.18 564.19 51 564.63 51H572.01C572.45 51 572.73 51.2 572.85 51.6L576.57 65.94C576.61 66.06 576.67 66.12 576.75 66.12C576.83 66.12 576.89 66.06 576.93 65.94L580.65 51.6C580.77 51.2 581.05 51 581.49 51H588.87C589.11 51 589.29 51.08 589.41 51.24C589.53 51.36 589.55 51.56 589.47 51.84L581.01 76.26L580.95 76.62V92.22C580.95 92.42 580.87 92.6 580.71 92.76C580.59 92.88 580.43 92.94 580.23 92.94H573.21ZM601.893 93.48C598.333 93.48 595.533 92.58 593.493 90.78C591.493 88.98 590.493 86.52 590.493 83.4V71.76C590.493 68.72 591.513 66.28 593.553 64.44C595.593 62.6 598.373 61.68 601.893 61.68C605.453 61.68 608.253 62.6 610.293 64.44C612.333 66.28 613.353 68.72 613.353 71.76V83.4C613.353 86.52 612.333 88.98 610.293 90.78C608.293 92.58 605.493 93.48 601.893 93.48ZM601.893 86.16C602.773 86.16 603.493 85.84 604.053 85.2C604.613 84.56 604.893 83.74 604.893 82.74V72.36C604.893 71.36 604.613 70.54 604.053 69.9C603.493 69.26 602.773 68.94 601.893 68.94C601.013 68.94 600.293 69.26 599.733 69.9C599.213 70.54 598.953 71.36 598.953 72.36V82.74C598.953 83.74 599.213 84.56 599.733 85.2C600.293 85.84 601.013 86.16 601.893 86.16ZM632.456 62.88C632.456 62.68 632.516 62.52 632.636 62.4C632.796 62.24 632.976 62.16 633.176 62.16H640.196C640.396 62.16 640.556 62.24 640.676 62.4C640.836 62.52 640.916 62.68 640.916 62.88V92.28C640.916 92.48 640.836 92.66 640.676 92.82C640.556 92.94 640.396 93 640.196 93H633.176C632.976 93 632.796 92.94 632.636 92.82C632.516 92.66 632.456 92.48 632.456 92.28V91.26C632.456 91.14 632.416 91.06 632.336 91.02C632.256 90.98 632.176 91.02 632.096 91.14C631.496 91.98 630.736 92.58 629.816 92.94C628.936 93.26 627.896 93.42 626.696 93.42C624.296 93.42 622.316 92.7 620.756 91.26C619.196 89.78 618.416 87.52 618.416 84.48V62.88C618.416 62.68 618.476 62.52 618.596 62.4C618.756 62.24 618.936 62.16 619.136 62.16H626.156C626.356 62.16 626.516 62.24 626.636 62.4C626.796 62.52 626.876 62.68 626.876 62.88V82.62C626.876 83.78 627.096 84.68 627.536 85.32C628.016 85.92 628.696 86.22 629.576 86.22C630.456 86.22 631.156 85.88 631.676 85.2C632.196 84.52 632.456 83.6 632.456 82.44V62.88ZM670.332 51C670.532 51 670.692 51.08 670.812 51.24C670.972 51.36 671.052 51.52 671.052 51.72V57.54C671.052 57.74 670.972 57.92 670.812 58.08C670.692 58.2 670.532 58.26 670.332 58.26H662.832C662.632 58.26 662.532 58.36 662.532 58.56V92.28C662.532 92.48 662.452 92.66 662.292 92.82C662.172 92.94 662.012 93 661.812 93H654.792C654.592 93 654.412 92.94 654.252 92.82C654.132 92.66 654.072 92.48 654.072 92.28V58.56C654.072 58.36 653.972 58.26 653.772 58.26H646.572C646.372 58.26 646.192 58.2 646.032 58.08C645.912 57.92 645.852 57.74 645.852 57.54V51.72C645.852 51.52 645.912 51.36 646.032 51.24C646.192 51.08 646.372 51 646.572 51H670.332ZM688.762 62.88C688.762 62.68 688.822 62.52 688.942 62.4C689.102 62.24 689.282 62.16 689.482 62.16H696.502C696.702 62.16 696.862 62.24 696.982 62.4C697.142 62.52 697.222 62.68 697.222 62.88V92.28C697.222 92.48 697.142 92.66 696.982 92.82C696.862 92.94 696.702 93 696.502 93H689.482C689.282 93 689.102 92.94 688.942 92.82C688.822 92.66 688.762 92.48 688.762 92.28V91.26C688.762 91.14 688.722 91.06 688.642 91.02C688.562 90.98 688.482 91.02 688.402 91.14C687.802 91.98 687.042 92.58 686.122 92.94C685.242 93.26 684.202 93.42 683.002 93.42C680.602 93.42 678.622 92.7 677.062 91.26C675.502 89.78 674.722 87.52 674.722 84.48V62.88C674.722 62.68 674.782 62.52 674.902 62.4C675.062 62.24 675.242 62.16 675.442 62.16H682.462C682.662 62.16 682.822 62.24 682.942 62.4C683.102 62.52 683.182 62.68 683.182 62.88V82.62C683.182 83.78 683.402 84.68 683.842 85.32C684.322 85.92 685.002 86.22 685.882 86.22C686.762 86.22 687.462 85.88 687.982 85.2C688.502 84.52 688.762 83.6 688.762 82.44V62.88ZM717.218 61.68C719.938 61.68 721.998 62.56 723.398 64.32C724.838 66.04 725.558 68.52 725.558 71.76V83.4C725.558 86.56 724.858 89.04 723.458 90.84C722.058 92.6 719.978 93.48 717.218 93.48C714.978 93.48 713.178 92.72 711.818 91.2C711.738 91.12 711.658 91.1 711.578 91.14C711.498 91.14 711.458 91.2 711.458 91.32V92.28C711.458 92.48 711.378 92.66 711.218 92.82C711.098 92.94 710.938 93 710.738 93H703.718C703.518 93 703.338 92.94 703.178 92.82C703.058 92.66 702.998 92.48 702.998 92.28V51.72C702.998 51.52 703.058 51.36 703.178 51.24C703.338 51.08 703.518 51 703.718 51H710.738C710.938 51 711.098 51.08 711.218 51.24C711.378 51.36 711.458 51.52 711.458 51.72V63.9C711.458 63.98 711.498 64.02 711.578 64.02C711.738 64.02 711.898 63.92 712.058 63.72C713.418 62.36 715.138 61.68 717.218 61.68ZM717.098 72.36C717.098 71.36 716.838 70.54 716.318 69.9C715.798 69.26 715.118 68.94 714.278 68.94C713.558 68.94 712.938 69.18 712.418 69.66C711.898 70.14 711.578 70.78 711.458 71.58V83.58C711.578 84.38 711.898 85.02 712.418 85.5C712.938 85.98 713.558 86.22 714.278 86.22C715.118 86.22 715.798 85.9 716.318 85.26C716.838 84.62 717.098 83.8 717.098 82.8V72.36ZM753.177 79.5C753.177 79.7 753.097 79.88 752.937 80.04C752.817 80.16 752.657 80.22 752.457 80.22H739.257C739.057 80.22 738.957 80.32 738.957 80.52V82.74C738.957 83.74 739.217 84.58 739.737 85.26C740.297 85.9 740.997 86.22 741.837 86.22C742.597 86.22 743.217 85.98 743.697 85.5C744.177 84.98 744.497 84.34 744.657 83.58C744.777 83.18 745.037 82.98 745.437 82.98L752.337 83.34C752.537 83.34 752.697 83.42 752.817 83.58C752.977 83.7 753.037 83.88 752.997 84.12C752.717 87.2 751.637 89.54 749.757 91.14C747.917 92.7 745.277 93.48 741.837 93.48C738.277 93.48 735.497 92.6 733.497 90.84C731.497 89.04 730.497 86.56 730.497 83.4V71.76C730.497 68.72 731.497 66.28 733.497 64.44C735.537 62.6 738.317 61.68 741.837 61.68C745.357 61.68 748.117 62.6 750.117 64.44C752.157 66.28 753.177 68.72 753.177 71.76V79.5ZM741.837 68.94C740.997 68.94 740.297 69.26 739.737 69.9C739.217 70.54 738.957 71.36 738.957 72.36V74.7C738.957 74.9 739.057 75 739.257 75H744.417C744.617 75 744.717 74.9 744.717 74.7V72.36C744.717 71.36 744.437 70.54 743.877 69.9C743.357 69.26 742.677 68.94 741.837 68.94Z" fill="white"/>
<rect x="143" y="127.5" width="275" height="1" rx="0.5" fill="url(#paint0_linear_11_300)"/>
<path fill-rule="evenodd" clip-rule="evenodd" d="M468 128.995C468 129.751 467.376 130.437 466.544 130.506C466.544 130.46 466.521 130.437 466.475 130.437L464.049 138.469L432.783 139.224L429.941 131.261C429.802 131.352 429.664 131.398 429.525 131.398C428.693 131.398 428 130.78 428 129.957C428 129.133 428.624 128.446 429.456 128.446C430.218 128.446 430.912 129.064 430.981 129.888C430.981 130.506 430.565 131.055 430.08 131.261C430.634 131.741 433.061 133.595 436.943 133.114C441.31 132.497 447.133 124.327 447.827 115.952C446.995 115.952 446.371 115.334 446.371 114.51C446.302 113.755 446.995 113.069 447.757 113C448.589 113 449.282 113.618 449.282 114.442C449.352 115.265 448.728 115.883 447.896 115.952C449.005 124.259 455.244 132.153 459.681 132.565C463.355 132.84 465.643 131.055 466.336 130.437C465.643 130.368 465.088 129.751 465.019 129.064C465.019 128.24 465.643 127.554 466.475 127.554C467.307 127.554 468 128.172 468 128.995ZM464.257 140.46V140.941C464.257 141.215 464.049 141.421 463.771 141.421L433.338 142.176C433.061 142.176 432.853 141.97 432.853 141.696V141.215C432.853 140.941 433.061 140.735 433.338 140.735L463.771 139.979C464.049 139.979 464.257 140.185 464.257 140.46ZM464.326 141.97C464.326 142.108 464.187 142.245 463.979 142.245L433.199 143C433.061 143 432.922 142.863 432.853 142.725C432.853 142.588 432.991 142.451 433.199 142.451L463.979 141.696C464.118 141.696 464.257 141.764 464.326 141.97ZM464.257 139.224C464.257 139.362 464.118 139.499 463.91 139.568L433.13 140.323C432.991 140.323 432.853 140.185 432.783 139.979C432.783 139.842 432.922 139.705 433.13 139.705L463.91 138.95C464.049 138.95 464.187 139.087 464.257 139.224ZM455.938 129.476C455.938 129.476 458.364 126.593 458.988 123.503C458.225 123.503 457.601 122.886 457.532 122.13C457.532 121.307 458.156 120.62 458.988 120.62C459.82 120.62 460.513 121.238 460.513 122.062C460.513 122.817 459.889 123.503 459.057 123.503C459.057 123.503 459.034 123.503 458.988 123.503C459.127 124.327 459.612 129.27 461.622 131.741C461.622 131.741 457.879 132.016 455.938 129.476ZM463.91 133.595C463.91 133.595 462.801 134.762 461.692 135.105C460.513 135.38 458.156 135.723 457.74 137.508L462.731 137.439L463.91 133.595ZM452.402 132.84C449.906 131.192 448.867 128.927 448.867 128.927L449.075 137.714L455.452 137.577C455.868 136.135 454.967 134.487 452.402 132.84ZM447.48 128.995C447.48 128.995 446.579 131.261 444.153 133.046C441.726 134.831 440.894 136.478 441.38 137.92L447.757 137.783L447.48 128.995ZM439.023 137.989C438.537 136.135 436.111 135.998 435.002 135.723C433.823 135.449 432.645 134.35 432.645 134.35L434.031 138.057L439.023 137.989ZM435.002 132.428C436.873 129.888 437.151 124.876 437.22 124.053C437.174 124.098 437.151 124.121 437.151 124.121C436.319 124.121 435.626 123.503 435.626 122.68C435.626 121.856 436.25 121.169 437.081 121.169C437.913 121.169 438.537 121.787 438.607 122.611C438.607 123.366 437.983 123.984 437.22 124.053C438.052 127.073 440.548 129.888 440.548 129.888C438.815 132.565 435.002 132.428 435.002 132.428Z" fill="url(#paint1_linear_11_300)"/>
<rect x="478" y="127.5" width="275" height="1" rx="0.5" fill="url(#paint2_linear_11_300)"/>
<defs>
<linearGradient id="paint0_linear_11_300" x1="283.312" y1="128.5" x2="283.312" y2="127.501" gradientUnits="userSpaceOnUse">
<stop stop-color="#C22622"/>
<stop offset="0.36" stop-color="#FF3837"/>
<stop offset="0.97" stop-color="#FFB32F"/>
<stop offset="1" stop-color="#FFB32F"/>
</linearGradient>
<linearGradient id="paint1_linear_11_300" x1="448.409" y1="143.014" x2="448.409" y2="113.027" gradientUnits="userSpaceOnUse">
<stop stop-color="#C22622"/>
<stop offset="0.36" stop-color="#FF3837"/>
<stop offset="0.97" stop-color="#FFB32F"/>
<stop offset="1" stop-color="#FFB32F"/>
</linearGradient>
<linearGradient id="paint2_linear_11_300" x1="618.312" y1="128.5" x2="618.312" y2="127.501" gradientUnits="userSpaceOnUse">
<stop stop-color="#C22622"/>
<stop offset="0.36" stop-color="#FF3837"/>
<stop offset="0.97" stop-color="#FFB32F"/>
<stop offset="1" stop-color="#FFB32F"/>
</linearGradient>
</defs>
</svg>
