<svg width="1302" height="151" viewBox="0 0 1302 151" fill="none" xmlns="http://www.w3.org/2000/svg">
<path d="M38.4906 118.28C28.8906 118.28 21.1573 115.293 15.2906 109.32C9.53064 103.24 6.65064 95.1867 6.65064 85.16V6.92C6.65064 6.38666 6.81064 5.96 7.13064 5.63999C7.5573 5.21333 8.0373 4.99999 8.57064 4.99999H27.2906C27.824 4.99999 28.2506 5.21333 28.5706 5.63999C28.9973 5.96 29.2106 6.38666 29.2106 6.92V87.4C29.2106 90.8133 30.064 93.5867 31.7706 95.72C33.4773 97.8533 35.7173 98.92 38.4906 98.92C41.264 98.92 43.4506 97.8533 45.0506 95.72C46.7573 93.5867 47.6106 90.8133 47.6106 87.4V6.92C47.6106 6.38666 47.7706 5.96 48.0906 5.63999C48.5173 5.21333 48.9973 4.99999 49.5306 4.99999H68.2506C68.784 4.99999 69.2106 5.21333 69.5306 5.63999C69.9573 5.96 70.1706 6.38666 70.1706 6.92V85.16C70.1706 95.1867 67.2373 103.24 61.3706 109.32C55.6106 115.293 47.984 118.28 38.4906 118.28ZM124.333 33.48C131.693 33.48 137.24 35.88 140.973 40.68C144.813 45.3733 146.733 51.88 146.733 60.2V91.4C146.733 100.04 144.813 106.707 140.973 111.4C137.133 115.987 131.586 118.28 124.333 118.28C121.986 118.28 119.533 117.853 116.973 117C114.413 116.04 112.066 114.387 109.933 112.04C109.72 111.72 109.506 111.613 109.293 111.72C109.08 111.827 108.973 112.04 108.973 112.36V144.84C108.973 145.373 108.76 145.8 108.333 146.12C108.013 146.547 107.586 146.76 107.053 146.76H88.3331C87.7998 146.76 87.3198 146.547 86.8931 146.12C86.5731 145.8 86.4131 145.373 86.4131 144.84V36.68C86.4131 36.1467 86.5731 35.72 86.8931 35.4C87.3198 34.9733 87.7998 34.76 88.3331 34.76H107.053C107.586 34.76 108.013 34.9733 108.333 35.4C108.76 35.72 108.973 36.1467 108.973 36.68V39.24C108.973 39.4533 109.08 39.56 109.293 39.56C109.72 39.56 110.146 39.2933 110.573 38.76C114.2 35.24 118.786 33.48 124.333 33.48ZM124.173 61.96C124.173 59.1867 123.48 56.9467 122.093 55.24C120.706 53.5333 118.84 52.68 116.493 52.68C114.253 52.68 112.44 53.5333 111.053 55.24C109.666 56.9467 108.973 59.1867 108.973 61.96V89.64C108.973 92.4133 109.666 94.6533 111.053 96.36C112.44 98.0667 114.253 98.92 116.493 98.92C118.84 98.92 120.706 98.0667 122.093 96.36C123.48 94.6533 124.173 92.4133 124.173 89.64V61.96ZM189.972 118.28C180.585 118.28 173.172 115.88 167.732 111.08C162.399 106.28 159.732 99.72 159.732 91.4V60.36C159.732 52.2533 162.399 45.7467 167.732 40.84C173.172 35.9333 180.585 33.48 189.972 33.48C199.359 33.48 206.719 35.88 212.052 40.68C217.492 45.48 220.212 51.72 220.212 59.4V62.28C220.212 62.8133 219.999 63.2933 219.572 63.72C219.252 64.04 218.825 64.2 218.292 64.2L199.572 65C198.292 65 197.652 64.36 197.652 63.08V61.16C197.652 58.8133 196.905 56.84 195.412 55.24C194.025 53.64 192.212 52.84 189.972 52.84C187.625 52.84 185.759 53.6933 184.372 55.4C182.985 57.1067 182.292 59.3467 182.292 62.12V89.64C182.292 92.4133 182.985 94.6533 184.372 96.36C185.759 98.0667 187.625 98.92 189.972 98.92C192.212 98.92 194.025 98.12 195.412 96.52C196.905 94.8133 197.652 92.84 197.652 90.6V88.52C197.652 87.9867 197.812 87.56 198.132 87.24C198.559 86.8133 199.039 86.6 199.572 86.6L218.292 86.76C218.825 86.76 219.252 86.9733 219.572 87.4C219.999 87.72 220.212 88.1467 220.212 88.68V92.36C220.212 100.253 217.492 106.547 212.052 111.24C206.719 115.933 199.359 118.28 189.972 118.28ZM262.707 118.28C253.214 118.28 245.747 115.88 240.307 111.08C234.974 106.28 232.307 99.72 232.307 91.4V60.36C232.307 52.2533 235.027 45.7467 240.467 40.84C245.907 35.9333 253.32 33.48 262.707 33.48C272.2 33.48 279.667 35.9333 285.107 40.84C290.547 45.7467 293.267 52.2533 293.267 60.36V91.4C293.267 99.72 290.547 106.28 285.107 111.08C279.774 115.88 272.307 118.28 262.707 118.28ZM262.707 98.76C265.054 98.76 266.974 97.9067 268.467 96.2C269.96 94.4933 270.707 92.3067 270.707 89.64V61.96C270.707 59.2933 269.96 57.1067 268.467 55.4C266.974 53.6933 265.054 52.84 262.707 52.84C260.36 52.84 258.44 53.6933 256.947 55.4C255.56 57.1067 254.867 59.2933 254.867 61.96V89.64C254.867 92.3067 255.56 94.4933 256.947 96.2C258.44 97.9067 260.36 98.76 262.707 98.76ZM382.128 33.48C389.381 33.48 394.821 35.9333 398.448 40.84C402.075 45.7467 403.888 52.6267 403.888 61.48V115.08C403.888 115.613 403.675 116.093 403.248 116.52C402.928 116.84 402.501 117 401.968 117H383.248C382.715 117 382.235 116.84 381.808 116.52C381.488 116.093 381.328 115.613 381.328 115.08V62.92C381.328 59.72 380.688 57.2667 379.408 55.56C378.128 53.7467 376.421 52.84 374.288 52.84C371.941 52.84 370.075 53.7467 368.688 55.56C367.408 57.2667 366.768 59.72 366.768 62.92V115.08C366.768 115.613 366.555 116.093 366.128 116.52C365.808 116.84 365.381 117 364.848 117H346.288C345.755 117 345.275 116.84 344.848 116.52C344.528 116.093 344.368 115.613 344.368 115.08V62.92C344.368 59.72 343.728 57.2667 342.448 55.56C341.168 53.7467 339.461 52.84 337.328 52.84C334.981 52.84 333.115 53.7467 331.728 55.56C330.448 57.2667 329.808 59.72 329.808 62.92V115.08C329.808 115.613 329.595 116.093 329.168 116.52C328.848 116.84 328.421 117 327.888 117H309.168C308.635 117 308.155 116.84 307.728 116.52C307.408 116.093 307.248 115.613 307.248 115.08V36.68C307.248 36.1467 307.408 35.72 307.728 35.4C308.155 34.9733 308.635 34.76 309.168 34.76H327.888C328.421 34.76 328.848 34.9733 329.168 35.4C329.595 35.72 329.808 36.1467 329.808 36.68V38.76C329.808 39.08 329.915 39.2933 330.128 39.4C330.341 39.5067 330.555 39.4533 330.768 39.24C332.901 37.1067 335.248 35.6133 337.808 34.76C340.368 33.9067 342.821 33.48 345.168 33.48C353.488 33.48 359.461 36.7867 363.088 43.4L363.408 43.56C363.728 43.56 364.101 43.24 364.528 42.6C366.768 39.1867 369.435 36.84 372.528 35.56C375.728 34.1733 378.928 33.48 382.128 33.48ZM429.937 25.48C426.31 25.48 423.27 24.3067 420.817 21.96C418.47 19.5067 417.297 16.4667 417.297 12.84C417.297 9.10666 418.47 6.06666 420.817 3.72C423.164 1.37333 426.204 0.199997 429.937 0.199997C433.67 0.199997 436.657 1.37333 438.897 3.72C441.244 6.06666 442.417 9.10666 442.417 12.84C442.417 16.4667 441.244 19.5067 438.897 21.96C436.55 24.3067 433.564 25.48 429.937 25.48ZM420.817 117C420.284 117 419.804 116.84 419.377 116.52C419.057 116.093 418.897 115.613 418.897 115.08V36.68C418.897 36.1467 419.057 35.72 419.377 35.4C419.804 34.9733 420.284 34.76 420.817 34.76H439.537C440.07 34.76 440.497 34.9733 440.817 35.4C441.244 35.72 441.457 36.1467 441.457 36.68V115.08C441.457 115.613 441.244 116.093 440.817 116.52C440.497 116.84 440.07 117 439.537 117H420.817ZM495.017 33.48C502.27 33.48 507.71 35.88 511.337 40.68C514.964 45.48 516.777 52.2 516.777 60.84V115.08C516.777 115.613 516.564 116.093 516.137 116.52C515.817 116.84 515.39 117 514.857 117H496.137C495.604 117 495.124 116.84 494.697 116.52C494.377 116.093 494.217 115.613 494.217 115.08V62.6C494.217 59.5067 493.577 57.1067 492.297 55.4C491.124 53.6933 489.364 52.84 487.017 52.84C484.564 52.84 482.644 53.7467 481.257 55.56C479.977 57.2667 479.337 59.72 479.337 62.92V115.08C479.337 115.613 479.124 116.093 478.697 116.52C478.377 116.84 477.95 117 477.417 117H458.697C458.164 117 457.684 116.84 457.257 116.52C456.937 116.093 456.777 115.613 456.777 115.08V36.68C456.777 36.1467 456.937 35.72 457.257 35.4C457.684 34.9733 458.164 34.76 458.697 34.76H477.417C477.95 34.76 478.377 34.9733 478.697 35.4C479.124 35.72 479.337 36.1467 479.337 36.68V39.72C479.337 40.04 479.444 40.2 479.657 40.2C479.977 40.2 480.35 39.9867 480.777 39.56C484.19 35.5067 488.937 33.48 495.017 33.48ZM568.179 36.68C568.179 36.1467 568.339 35.72 568.659 35.4C569.086 34.9733 569.566 34.76 570.099 34.76H588.819C589.353 34.76 589.779 34.9733 590.099 35.4C590.526 35.72 590.739 36.1467 590.739 36.68V113.16C590.739 125 587.913 134.12 582.259 140.52C576.713 146.92 566.686 150.12 552.179 150.12C549.299 150.12 547.059 150.067 545.459 149.96C544.179 149.853 543.539 149.16 543.539 147.88V132.2C543.539 130.813 544.233 130.227 545.619 130.44C551.913 130.653 556.659 130.013 559.859 128.52C563.166 127.133 565.353 125 566.419 122.12C567.593 119.24 568.179 115.453 568.179 110.76C568.179 110.44 568.073 110.28 567.859 110.28C567.646 110.28 567.433 110.44 567.219 110.76C565.299 113.32 562.953 115.133 560.179 116.2C557.513 117.16 554.899 117.64 552.339 117.64C544.979 117.64 539.486 115.293 535.859 110.6C532.233 105.8 530.419 99.1867 530.419 90.76V60.36C530.419 51.72 532.233 45.1067 535.859 40.52C539.593 35.8267 545.086 33.48 552.339 33.48C558.846 33.48 563.806 35.88 567.219 40.68C567.433 41 567.646 41.1067 567.859 41C568.073 40.8933 568.179 40.68 568.179 40.36V36.68ZM560.499 98.12C562.739 98.12 564.553 97.2667 565.939 95.56C567.433 93.8533 568.179 91.6667 568.179 89V61.96C568.179 59.2933 567.433 57.1067 565.939 55.4C564.553 53.6933 562.739 52.84 560.499 52.84C558.259 52.84 556.446 53.6933 555.059 55.4C553.673 57.1067 552.979 59.2933 552.979 61.96V89C552.979 91.6667 553.673 93.8533 555.059 95.56C556.446 97.2667 558.259 98.12 560.499 98.12ZM661.556 117C660.382 117 659.689 116.413 659.476 115.24L637.876 7.07999L637.716 6.43999C637.716 5.47999 638.302 4.99999 639.476 4.99999H658.996C660.276 4.99999 660.969 5.58666 661.076 6.76L670.196 64.36C670.302 64.7867 670.462 65 670.676 65C670.889 65 671.049 64.7867 671.156 64.36L679.796 6.76C679.902 5.58666 680.596 4.99999 681.876 4.99999H698.036C699.316 4.99999 700.009 5.58666 700.116 6.76L709.556 64.36C709.662 64.7867 709.822 65 710.036 65C710.249 65 710.409 64.7867 710.516 64.36L718.676 6.76C718.782 5.58666 719.476 4.99999 720.756 4.99999H739.636C741.022 4.99999 741.609 5.69333 741.396 7.07999L721.076 115.24C720.969 116.413 720.276 117 718.996 117H701.716C700.436 117 699.742 116.413 699.636 115.24L690.196 56.04C690.089 55.6133 689.929 55.4 689.716 55.4C689.502 55.4 689.342 55.6133 689.236 56.04L680.756 115.24C680.649 116.413 679.956 117 678.676 117H661.556ZM805.656 81C805.656 81.5333 805.442 82.0133 805.016 82.44C804.696 82.76 804.269 82.92 803.736 82.92H768.536C768.002 82.92 767.736 83.1867 767.736 83.72V89.64C767.736 92.3067 768.429 94.5467 769.816 96.36C771.309 98.0667 773.176 98.92 775.416 98.92C777.442 98.92 779.096 98.28 780.376 97C781.656 95.6133 782.509 93.9067 782.936 91.88C783.256 90.8133 783.949 90.28 785.016 90.28L803.416 91.24C803.949 91.24 804.376 91.4533 804.696 91.88C805.122 92.2 805.282 92.68 805.176 93.32C804.429 101.533 801.549 107.773 796.536 112.04C791.629 116.2 784.589 118.28 775.416 118.28C765.922 118.28 758.509 115.933 753.176 111.24C747.842 106.44 745.176 99.8267 745.176 91.4V60.36C745.176 52.2533 747.842 45.7467 753.176 40.84C758.616 35.9333 766.029 33.48 775.416 33.48C784.802 33.48 792.162 35.9333 797.496 40.84C802.936 45.7467 805.656 52.2533 805.656 60.36V81ZM775.416 52.84C773.176 52.84 771.309 53.6933 769.816 55.4C768.429 57.1067 767.736 59.2933 767.736 61.96V68.2C767.736 68.7333 768.002 69 768.536 69H782.296C782.829 69 783.096 68.7333 783.096 68.2V61.96C783.096 59.2933 782.349 57.1067 780.856 55.4C779.469 53.6933 777.656 52.84 775.416 52.84ZM857.103 33.48C864.356 33.48 869.85 35.8267 873.583 40.52C877.423 45.1067 879.343 51.72 879.343 60.36V91.4C879.343 99.8267 877.476 106.44 873.743 111.24C870.01 115.933 864.463 118.28 857.103 118.28C851.13 118.28 846.33 116.253 842.703 112.2C842.49 111.987 842.276 111.933 842.063 112.04C841.85 112.04 841.743 112.2 841.743 112.52V115.08C841.743 115.613 841.53 116.093 841.103 116.52C840.783 116.84 840.356 117 839.823 117H821.103C820.57 117 820.09 116.84 819.663 116.52C819.343 116.093 819.183 115.613 819.183 115.08V6.92C819.183 6.38666 819.343 5.96 819.663 5.63999C820.09 5.21333 820.57 4.99999 821.103 4.99999H839.823C840.356 4.99999 840.783 5.21333 841.103 5.63999C841.53 5.96 841.743 6.38666 841.743 6.92V39.4C841.743 39.6133 841.85 39.72 842.063 39.72C842.49 39.72 842.916 39.4533 843.343 38.92C846.97 35.2933 851.556 33.48 857.103 33.48ZM856.783 61.96C856.783 59.2933 856.09 57.1067 854.703 55.4C853.316 53.6933 851.503 52.84 849.263 52.84C847.343 52.84 845.69 53.48 844.303 54.76C842.916 56.04 842.063 57.7467 841.743 59.88V91.88C842.063 94.0133 842.916 95.72 844.303 97C845.69 98.28 847.343 98.92 849.263 98.92C851.503 98.92 853.316 98.0667 854.703 96.36C856.09 94.6533 856.783 92.4667 856.783 89.8V61.96ZM958.624 118.28C952.438 118.28 946.998 117.053 942.304 114.6C937.611 112.147 933.984 108.733 931.424 104.36C928.864 99.88 927.584 94.76 927.584 89V84.36C927.584 83.8267 927.744 83.4 928.064 83.08C928.491 82.6533 928.971 82.44 929.504 82.44H947.904C948.438 82.44 948.864 82.6533 949.184 83.08C949.611 83.4 949.824 83.8267 949.824 84.36V87.88C949.824 91.1867 950.678 93.8533 952.384 95.88C954.091 97.9067 956.224 98.92 958.784 98.92C961.344 98.92 963.478 97.96 965.184 96.04C966.891 94.12 967.744 91.6133 967.744 88.52C967.744 85.32 966.678 82.6 964.544 80.36C962.411 78.0133 958.251 74.6 952.064 70.12C946.731 66.28 942.411 62.8667 939.104 59.88C935.798 56.8933 932.971 53.2133 930.624 48.84C928.278 44.4667 927.104 39.4 927.104 33.64C927.104 24.5733 929.931 17.32 935.584 11.88C941.238 6.44 948.704 3.72 957.984 3.72C967.371 3.72 974.891 6.54666 980.544 12.2C986.304 17.8533 989.184 25.2667 989.184 34.44V38.28C989.184 38.8133 988.971 39.2933 988.544 39.72C988.224 40.04 987.798 40.2 987.264 40.2H968.864C968.331 40.2 967.851 40.04 967.424 39.72C967.104 39.2933 966.944 38.8133 966.944 38.28V33.96C966.944 30.6533 966.091 28.04 964.384 26.12C962.784 24.0933 960.651 23.08 957.984 23.08C955.424 23.08 953.344 24.04 951.744 25.96C950.144 27.7733 949.344 30.3333 949.344 33.64C949.344 36.84 950.358 39.6667 952.384 42.12C954.411 44.5733 958.411 47.9867 964.384 52.36C970.998 57.2667 975.958 61.2667 979.264 64.36C982.678 67.3467 985.291 70.7067 987.104 74.44C989.024 78.0667 989.984 82.44 989.984 87.56C989.984 96.9467 987.104 104.413 981.344 109.96C975.584 115.507 968.011 118.28 958.624 118.28ZM1062.52 81C1062.52 81.5333 1062.3 82.0133 1061.88 82.44C1061.56 82.76 1061.13 82.92 1060.6 82.92H1025.4C1024.86 82.92 1024.6 83.1867 1024.6 83.72V89.64C1024.6 92.3067 1025.29 94.5467 1026.68 96.36C1028.17 98.0667 1030.04 98.92 1032.28 98.92C1034.3 98.92 1035.96 98.28 1037.24 97C1038.52 95.6133 1039.37 93.9067 1039.8 91.88C1040.12 90.8133 1040.81 90.28 1041.88 90.28L1060.28 91.24C1060.81 91.24 1061.24 91.4533 1061.56 91.88C1061.98 92.2 1062.14 92.68 1062.04 93.32C1061.29 101.533 1058.41 107.773 1053.4 112.04C1048.49 116.2 1041.45 118.28 1032.28 118.28C1022.78 118.28 1015.37 115.933 1010.04 111.24C1004.7 106.44 1002.04 99.8267 1002.04 91.4V60.36C1002.04 52.2533 1004.7 45.7467 1010.04 40.84C1015.48 35.9333 1022.89 33.48 1032.28 33.48C1041.66 33.48 1049.02 35.9333 1054.36 40.84C1059.8 45.7467 1062.52 52.2533 1062.52 60.36V81ZM1032.28 52.84C1030.04 52.84 1028.17 53.6933 1026.68 55.4C1025.29 57.1067 1024.6 59.2933 1024.6 61.96V68.2C1024.6 68.7333 1024.86 69 1025.4 69H1039.16C1039.69 69 1039.96 68.7333 1039.96 68.2V61.96C1039.96 59.2933 1039.21 57.1067 1037.72 55.4C1036.33 53.6933 1034.52 52.84 1032.28 52.84ZM1112.85 33.8C1115.73 33.8 1117.97 34.3333 1119.57 35.4C1120.42 35.9333 1120.74 36.7333 1120.53 37.8L1117.49 56.52C1117.38 57.6933 1116.63 58.12 1115.25 57.8C1114.07 57.3733 1112.63 57.16 1110.93 57.16C1109.33 57.16 1107.94 57.3733 1106.77 57.8C1104.31 58.2267 1102.34 59.72 1100.85 62.28C1099.35 64.7333 1098.61 67.6133 1098.61 70.92V114.92C1098.61 115.453 1098.39 115.933 1097.97 116.36C1097.65 116.68 1097.22 116.84 1096.69 116.84H1077.97C1077.43 116.84 1076.95 116.68 1076.53 116.36C1076.21 115.933 1076.05 115.453 1076.05 114.92V36.68C1076.05 36.1467 1076.21 35.72 1076.53 35.4C1076.95 34.9733 1077.43 34.76 1077.97 34.76H1096.69C1097.22 34.76 1097.65 34.9733 1097.97 35.4C1098.39 35.72 1098.61 36.1467 1098.61 36.68V42.92C1098.61 43.3467 1098.66 43.6133 1098.77 43.72C1098.98 43.72 1099.19 43.56 1099.41 43.24C1102.29 36.9467 1106.77 33.8 1112.85 33.8ZM1142.48 25.48C1138.85 25.48 1135.81 24.3067 1133.36 21.96C1131.01 19.5067 1129.84 16.4667 1129.84 12.84C1129.84 9.10666 1131.01 6.06666 1133.36 3.72C1135.71 1.37333 1138.75 0.199997 1142.48 0.199997C1146.21 0.199997 1149.2 1.37333 1151.44 3.72C1153.79 6.06666 1154.96 9.10666 1154.96 12.84C1154.96 16.4667 1153.79 19.5067 1151.44 21.96C1149.09 24.3067 1146.11 25.48 1142.48 25.48ZM1133.36 117C1132.83 117 1132.35 116.84 1131.92 116.52C1131.6 116.093 1131.44 115.613 1131.44 115.08V36.68C1131.44 36.1467 1131.6 35.72 1131.92 35.4C1132.35 34.9733 1132.83 34.76 1133.36 34.76H1152.08C1152.61 34.76 1153.04 34.9733 1153.36 35.4C1153.79 35.72 1154 36.1467 1154 36.68V115.08C1154 115.613 1153.79 116.093 1153.36 116.52C1153.04 116.84 1152.61 117 1152.08 117H1133.36ZM1228.68 81C1228.68 81.5333 1228.47 82.0133 1228.04 82.44C1227.72 82.76 1227.29 82.92 1226.76 82.92H1191.56C1191.03 82.92 1190.76 83.1867 1190.76 83.72V89.64C1190.76 92.3067 1191.45 94.5467 1192.84 96.36C1194.33 98.0667 1196.2 98.92 1198.44 98.92C1200.47 98.92 1202.12 98.28 1203.4 97C1204.68 95.6133 1205.53 93.9067 1205.96 91.88C1206.28 90.8133 1206.97 90.28 1208.04 90.28L1226.44 91.24C1226.97 91.24 1227.4 91.4533 1227.72 91.88C1228.15 92.2 1228.31 92.68 1228.2 93.32C1227.45 101.533 1224.57 107.773 1219.56 112.04C1214.65 116.2 1207.61 118.28 1198.44 118.28C1188.95 118.28 1181.53 115.933 1176.2 111.24C1170.87 106.44 1168.2 99.8267 1168.2 91.4V60.36C1168.2 52.2533 1170.87 45.7467 1176.2 40.84C1181.64 35.9333 1189.05 33.48 1198.44 33.48C1207.83 33.48 1215.19 35.9333 1220.52 40.84C1225.96 45.7467 1228.68 52.2533 1228.68 60.36V81ZM1198.44 52.84C1196.2 52.84 1194.33 53.6933 1192.84 55.4C1191.45 57.1067 1190.76 59.2933 1190.76 61.96V68.2C1190.76 68.7333 1191.03 69 1191.56 69H1205.32C1205.85 69 1206.12 68.7333 1206.12 68.2V61.96C1206.12 59.2933 1205.37 57.1067 1203.88 55.4C1202.49 53.6933 1200.68 52.84 1198.44 52.84ZM1269.57 118.12C1260.51 118.12 1253.25 115.987 1247.81 111.72C1242.48 107.347 1239.81 101.533 1239.81 94.28V93.16C1239.81 92.6267 1239.97 92.2 1240.29 91.88C1240.72 91.4533 1241.2 91.24 1241.73 91.24H1259.33C1259.87 91.24 1260.29 91.4533 1260.61 91.88C1261.04 92.2 1261.25 92.6267 1261.25 93.16V93.64C1261.25 95.88 1262.05 97.7467 1263.65 99.24C1265.25 100.627 1267.23 101.32 1269.57 101.32C1271.71 101.32 1273.36 100.733 1274.53 99.56C1275.81 98.28 1276.45 96.68 1276.45 94.76C1276.45 92.4133 1275.44 90.6 1273.41 89.32C1271.39 87.9333 1269.09 86.8133 1266.53 85.96C1264.08 85 1262.37 84.36 1261.41 84.04C1255.55 81.9067 1250.59 78.9733 1246.53 75.24C1242.59 71.4 1240.61 65.9067 1240.61 58.76C1240.61 50.9733 1243.17 44.84 1248.29 40.36C1253.41 35.88 1260.24 33.64 1268.77 33.64C1277.63 33.64 1284.61 35.9867 1289.73 40.68C1294.96 45.3733 1297.57 51.72 1297.57 59.72C1297.57 60.2533 1297.36 60.7333 1296.93 61.16C1296.61 61.48 1296.19 61.64 1295.65 61.64H1278.53C1278 61.64 1277.52 61.48 1277.09 61.16C1276.77 60.7333 1276.61 60.2533 1276.61 59.72V58.44C1276.61 56.3067 1275.92 54.6 1274.53 53.32C1273.25 51.9333 1271.55 51.24 1269.41 51.24C1267.17 51.24 1265.41 51.9867 1264.13 53.48C1262.85 54.8667 1262.21 56.52 1262.21 58.44C1262.21 61 1263.28 63.0267 1265.41 64.52C1267.65 65.9067 1271.01 67.4533 1275.49 69.16C1280.08 70.8667 1283.97 72.6267 1287.17 74.44C1290.48 76.1467 1293.31 78.6533 1295.65 81.96C1298 85.16 1299.17 89.2133 1299.17 94.12C1299.17 101.48 1296.45 107.347 1291.01 111.72C1285.68 115.987 1278.53 118.12 1269.57 118.12Z" fill="white" fill-opacity="0.05"/>
<path d="M422.809 93.48C419.209 93.48 416.309 92.36 414.109 90.12C411.949 87.84 410.869 84.82 410.869 81.06V51.72C410.869 51.52 410.929 51.36 411.049 51.24C411.209 51.08 411.389 51 411.589 51H418.609C418.809 51 418.969 51.08 419.089 51.24C419.249 51.36 419.329 51.52 419.329 51.72V81.9C419.329 83.18 419.649 84.22 420.289 85.02C420.929 85.82 421.769 86.22 422.809 86.22C423.849 86.22 424.669 85.82 425.269 85.02C425.909 84.22 426.229 83.18 426.229 81.9V51.72C426.229 51.52 426.289 51.36 426.409 51.24C426.569 51.08 426.749 51 426.949 51H433.969C434.169 51 434.329 51.08 434.449 51.24C434.609 51.36 434.689 51.52 434.689 51.72V81.06C434.689 84.82 433.589 87.84 431.389 90.12C429.229 92.36 426.369 93.48 422.809 93.48ZM455 61.68C457.76 61.68 459.84 62.58 461.24 64.38C462.68 66.14 463.4 68.58 463.4 71.7V83.4C463.4 86.64 462.68 89.14 461.24 90.9C459.8 92.62 457.72 93.48 455 93.48C454.12 93.48 453.2 93.32 452.24 93C451.28 92.64 450.4 92.02 449.6 91.14C449.52 91.02 449.44 90.98 449.36 91.02C449.28 91.06 449.24 91.14 449.24 91.26V103.44C449.24 103.64 449.16 103.8 449 103.92C448.88 104.08 448.72 104.16 448.52 104.16H441.5C441.3 104.16 441.12 104.08 440.96 103.92C440.84 103.8 440.78 103.64 440.78 103.44V62.88C440.78 62.68 440.84 62.52 440.96 62.4C441.12 62.24 441.3 62.16 441.5 62.16H448.52C448.72 62.16 448.88 62.24 449 62.4C449.16 62.52 449.24 62.68 449.24 62.88V63.84C449.24 63.92 449.28 63.96 449.36 63.96C449.52 63.96 449.68 63.86 449.84 63.66C451.2 62.34 452.92 61.68 455 61.68ZM454.94 72.36C454.94 71.32 454.68 70.48 454.16 69.84C453.64 69.2 452.94 68.88 452.06 68.88C451.22 68.88 450.54 69.2 450.02 69.84C449.5 70.48 449.24 71.32 449.24 72.36V82.74C449.24 83.78 449.5 84.62 450.02 85.26C450.54 85.9 451.22 86.22 452.06 86.22C452.94 86.22 453.64 85.9 454.16 85.26C454.68 84.62 454.94 83.78 454.94 82.74V72.36ZM479.614 93.48C476.094 93.48 473.314 92.58 471.274 90.78C469.274 88.98 468.274 86.52 468.274 83.4V71.76C468.274 68.72 469.274 66.28 471.274 64.44C473.314 62.6 476.094 61.68 479.614 61.68C483.134 61.68 485.894 62.58 487.894 64.38C489.934 66.18 490.954 68.52 490.954 71.4V72.48C490.954 72.68 490.874 72.86 490.714 73.02C490.594 73.14 490.434 73.2 490.234 73.2L483.214 73.5C482.734 73.5 482.494 73.26 482.494 72.78V72.06C482.494 71.18 482.214 70.44 481.654 69.84C481.134 69.24 480.454 68.94 479.614 68.94C478.734 68.94 478.034 69.26 477.514 69.9C476.994 70.54 476.734 71.38 476.734 72.42V82.74C476.734 83.78 476.994 84.62 477.514 85.26C478.034 85.9 478.734 86.22 479.614 86.22C480.454 86.22 481.134 85.92 481.654 85.32C482.214 84.68 482.494 83.94 482.494 83.1V82.32C482.494 82.12 482.554 81.96 482.674 81.84C482.834 81.68 483.014 81.6 483.214 81.6L490.234 81.66C490.434 81.66 490.594 81.74 490.714 81.9C490.874 82.02 490.954 82.18 490.954 82.38V83.76C490.954 86.72 489.934 89.08 487.894 90.84C485.894 92.6 483.134 93.48 479.614 93.48ZM506.89 93.48C503.33 93.48 500.53 92.58 498.49 90.78C496.49 88.98 495.49 86.52 495.49 83.4V71.76C495.49 68.72 496.51 66.28 498.55 64.44C500.59 62.6 503.37 61.68 506.89 61.68C510.45 61.68 513.25 62.6 515.29 64.44C517.33 66.28 518.35 68.72 518.35 71.76V83.4C518.35 86.52 517.33 88.98 515.29 90.78C513.29 92.58 510.49 93.48 506.89 93.48ZM506.89 86.16C507.77 86.16 508.49 85.84 509.05 85.2C509.61 84.56 509.89 83.74 509.89 82.74V72.36C509.89 71.36 509.61 70.54 509.05 69.9C508.49 69.26 507.77 68.94 506.89 68.94C506.01 68.94 505.29 69.26 504.73 69.9C504.21 70.54 503.95 71.36 503.95 72.36V82.74C503.95 83.74 504.21 84.56 504.73 85.2C505.29 85.84 506.01 86.16 506.89 86.16ZM551.673 61.68C554.393 61.68 556.433 62.6 557.793 64.44C559.153 66.28 559.833 68.86 559.833 72.18V92.28C559.833 92.48 559.753 92.66 559.593 92.82C559.473 92.94 559.313 93 559.113 93H552.093C551.893 93 551.713 92.94 551.553 92.82C551.433 92.66 551.373 92.48 551.373 92.28V72.72C551.373 71.52 551.133 70.6 550.653 69.96C550.173 69.28 549.533 68.94 548.733 68.94C547.853 68.94 547.153 69.28 546.633 69.96C546.153 70.6 545.913 71.52 545.913 72.72V92.28C545.913 92.48 545.833 92.66 545.673 92.82C545.553 92.94 545.393 93 545.193 93H538.233C538.033 93 537.853 92.94 537.693 92.82C537.573 92.66 537.513 92.48 537.513 92.28V72.72C537.513 71.52 537.273 70.6 536.793 69.96C536.313 69.28 535.673 68.94 534.873 68.94C533.993 68.94 533.293 69.28 532.773 69.96C532.293 70.6 532.053 71.52 532.053 72.72V92.28C532.053 92.48 531.973 92.66 531.813 92.82C531.693 92.94 531.533 93 531.333 93H524.313C524.113 93 523.933 92.94 523.773 92.82C523.653 92.66 523.593 92.48 523.593 92.28V62.88C523.593 62.68 523.653 62.52 523.773 62.4C523.933 62.24 524.113 62.16 524.313 62.16H531.333C531.533 62.16 531.693 62.24 531.813 62.4C531.973 62.52 532.053 62.68 532.053 62.88V63.66C532.053 63.78 532.093 63.86 532.173 63.9C532.253 63.94 532.333 63.92 532.413 63.84C533.213 63.04 534.093 62.48 535.053 62.16C536.013 61.84 536.933 61.68 537.813 61.68C540.933 61.68 543.173 62.92 544.533 65.4L544.653 65.46C544.773 65.46 544.913 65.34 545.073 65.1C545.913 63.82 546.913 62.94 548.073 62.46C549.273 61.94 550.473 61.68 551.673 61.68ZM569.601 58.68C568.241 58.68 567.101 58.24 566.181 57.36C565.301 56.44 564.861 55.3 564.861 53.94C564.861 52.54 565.301 51.4 566.181 50.52C567.061 49.64 568.201 49.2 569.601 49.2C571.001 49.2 572.121 49.64 572.961 50.52C573.841 51.4 574.281 52.54 574.281 53.94C574.281 55.3 573.841 56.44 572.961 57.36C572.081 58.24 570.961 58.68 569.601 58.68ZM566.181 93C565.981 93 565.801 92.94 565.641 92.82C565.521 92.66 565.461 92.48 565.461 92.28V62.88C565.461 62.68 565.521 62.52 565.641 62.4C565.801 62.24 565.981 62.16 566.181 62.16H573.201C573.401 62.16 573.561 62.24 573.681 62.4C573.841 62.52 573.921 62.68 573.921 62.88V92.28C573.921 92.48 573.841 92.66 573.681 92.82C573.561 92.94 573.401 93 573.201 93H566.181ZM594.006 61.68C596.726 61.68 598.766 62.58 600.126 64.38C601.486 66.18 602.166 68.7 602.166 71.94V92.28C602.166 92.48 602.086 92.66 601.926 92.82C601.806 92.94 601.646 93 601.446 93H594.426C594.226 93 594.046 92.94 593.886 92.82C593.766 92.66 593.706 92.48 593.706 92.28V72.6C593.706 71.44 593.466 70.54 592.986 69.9C592.546 69.26 591.886 68.94 591.006 68.94C590.086 68.94 589.366 69.28 588.846 69.96C588.366 70.6 588.126 71.52 588.126 72.72V92.28C588.126 92.48 588.046 92.66 587.886 92.82C587.766 92.94 587.606 93 587.406 93H580.386C580.186 93 580.006 92.94 579.846 92.82C579.726 92.66 579.666 92.48 579.666 92.28V62.88C579.666 62.68 579.726 62.52 579.846 62.4C580.006 62.24 580.186 62.16 580.386 62.16H587.406C587.606 62.16 587.766 62.24 587.886 62.4C588.046 62.52 588.126 62.68 588.126 62.88V64.02C588.126 64.14 588.166 64.2 588.246 64.2C588.366 64.2 588.506 64.12 588.666 63.96C589.946 62.44 591.726 61.68 594.006 61.68ZM621.442 62.88C621.442 62.68 621.502 62.52 621.622 62.4C621.782 62.24 621.962 62.16 622.162 62.16H629.182C629.382 62.16 629.542 62.24 629.662 62.4C629.822 62.52 629.902 62.68 629.902 62.88V91.56C629.902 96 628.842 99.42 626.722 101.82C624.642 104.22 620.882 105.42 615.442 105.42C614.362 105.42 613.522 105.4 612.922 105.36C612.442 105.32 612.202 105.06 612.202 104.58V98.7C612.202 98.18 612.462 97.96 612.982 98.04C615.342 98.12 617.122 97.88 618.322 97.32C619.562 96.8 620.382 96 620.782 94.92C621.222 93.84 621.442 92.42 621.442 90.66C621.442 90.54 621.402 90.48 621.322 90.48C621.242 90.48 621.162 90.54 621.082 90.66C620.362 91.62 619.482 92.3 618.442 92.7C617.442 93.06 616.462 93.24 615.502 93.24C612.742 93.24 610.682 92.36 609.322 90.6C607.962 88.8 607.282 86.32 607.282 83.16V71.76C607.282 68.52 607.962 66.04 609.322 64.32C610.722 62.56 612.782 61.68 615.502 61.68C617.942 61.68 619.802 62.58 621.082 64.38C621.162 64.5 621.242 64.54 621.322 64.5C621.402 64.46 621.442 64.38 621.442 64.26V62.88ZM618.562 85.92C619.402 85.92 620.082 85.6 620.602 84.96C621.162 84.32 621.442 83.5 621.442 82.5V72.36C621.442 71.36 621.162 70.54 620.602 69.9C620.082 69.26 619.402 68.94 618.562 68.94C617.722 68.94 617.042 69.26 616.522 69.9C616.002 70.54 615.742 71.36 615.742 72.36V82.5C615.742 83.5 616.002 84.32 616.522 84.96C617.042 85.6 617.722 85.92 618.562 85.92ZM656.458 93C656.018 93 655.758 92.78 655.678 92.34L647.578 51.78L647.518 51.54C647.518 51.18 647.738 51 648.178 51H655.498C655.978 51 656.238 51.22 656.278 51.66L659.698 73.26C659.738 73.42 659.798 73.5 659.878 73.5C659.958 73.5 660.018 73.42 660.058 73.26L663.298 51.66C663.338 51.22 663.598 51 664.078 51H670.138C670.618 51 670.878 51.22 670.918 51.66L674.458 73.26C674.498 73.42 674.558 73.5 674.638 73.5C674.718 73.5 674.778 73.42 674.818 73.26L677.878 51.66C677.918 51.22 678.178 51 678.658 51H685.738C686.258 51 686.478 51.26 686.398 51.78L678.778 92.34C678.738 92.78 678.478 93 677.998 93H671.518C671.038 93 670.778 92.78 670.738 92.34L667.198 70.14C667.158 69.98 667.098 69.9 667.018 69.9C666.938 69.9 666.878 69.98 666.838 70.14L663.658 92.34C663.618 92.78 663.358 93 662.878 93H656.458ZM710.496 79.5C710.496 79.7 710.416 79.88 710.256 80.04C710.136 80.16 709.976 80.22 709.776 80.22H696.576C696.376 80.22 696.276 80.32 696.276 80.52V82.74C696.276 83.74 696.536 84.58 697.056 85.26C697.616 85.9 698.316 86.22 699.156 86.22C699.916 86.22 700.536 85.98 701.016 85.5C701.496 84.98 701.816 84.34 701.976 83.58C702.096 83.18 702.356 82.98 702.756 82.98L709.656 83.34C709.856 83.34 710.016 83.42 710.136 83.58C710.296 83.7 710.356 83.88 710.316 84.12C710.036 87.2 708.956 89.54 707.076 91.14C705.236 92.7 702.596 93.48 699.156 93.48C695.596 93.48 692.816 92.6 690.816 90.84C688.816 89.04 687.816 86.56 687.816 83.4V71.76C687.816 68.72 688.816 66.28 690.816 64.44C692.856 62.6 695.636 61.68 699.156 61.68C702.676 61.68 705.436 62.6 707.436 64.44C709.476 66.28 710.496 68.72 710.496 71.76V79.5ZM699.156 68.94C698.316 68.94 697.616 69.26 697.056 69.9C696.536 70.54 696.276 71.36 696.276 72.36V74.7C696.276 74.9 696.376 75 696.576 75H701.736C701.936 75 702.036 74.9 702.036 74.7V72.36C702.036 71.36 701.756 70.54 701.196 69.9C700.676 69.26 699.996 68.94 699.156 68.94ZM729.789 61.68C732.509 61.68 734.569 62.56 735.969 64.32C737.409 66.04 738.129 68.52 738.129 71.76V83.4C738.129 86.56 737.429 89.04 736.029 90.84C734.629 92.6 732.549 93.48 729.789 93.48C727.549 93.48 725.749 92.72 724.389 91.2C724.309 91.12 724.229 91.1 724.149 91.14C724.069 91.14 724.029 91.2 724.029 91.32V92.28C724.029 92.48 723.949 92.66 723.789 92.82C723.669 92.94 723.509 93 723.309 93H716.289C716.089 93 715.909 92.94 715.749 92.82C715.629 92.66 715.569 92.48 715.569 92.28V51.72C715.569 51.52 715.629 51.36 715.749 51.24C715.909 51.08 716.089 51 716.289 51H723.309C723.509 51 723.669 51.08 723.789 51.24C723.949 51.36 724.029 51.52 724.029 51.72V63.9C724.029 63.98 724.069 64.02 724.149 64.02C724.309 64.02 724.469 63.92 724.629 63.72C725.989 62.36 727.709 61.68 729.789 61.68ZM729.669 72.36C729.669 71.36 729.409 70.54 728.889 69.9C728.369 69.26 727.689 68.94 726.849 68.94C726.129 68.94 725.509 69.18 724.989 69.66C724.469 70.14 724.149 70.78 724.029 71.58V83.58C724.149 84.38 724.469 85.02 724.989 85.5C725.509 85.98 726.129 86.22 726.849 86.22C727.689 86.22 728.369 85.9 728.889 85.26C729.409 84.62 729.669 83.8 729.669 82.8V72.36ZM767.859 93.48C765.539 93.48 763.499 93.02 761.739 92.1C759.979 91.18 758.619 89.9 757.659 88.26C756.699 86.58 756.219 84.66 756.219 82.5V80.76C756.219 80.56 756.279 80.4 756.399 80.28C756.559 80.12 756.739 80.04 756.939 80.04H763.839C764.039 80.04 764.199 80.12 764.319 80.28C764.479 80.4 764.559 80.56 764.559 80.76V82.08C764.559 83.32 764.879 84.32 765.519 85.08C766.159 85.84 766.959 86.22 767.919 86.22C768.879 86.22 769.679 85.86 770.319 85.14C770.959 84.42 771.279 83.48 771.279 82.32C771.279 81.12 770.879 80.1 770.079 79.26C769.279 78.38 767.719 77.1 765.399 75.42C763.399 73.98 761.779 72.7 760.539 71.58C759.299 70.46 758.239 69.08 757.359 67.44C756.479 65.8 756.039 63.9 756.039 61.74C756.039 58.34 757.099 55.62 759.219 53.58C761.339 51.54 764.139 50.52 767.619 50.52C771.139 50.52 773.959 51.58 776.079 53.7C778.239 55.82 779.319 58.6 779.319 62.04V63.48C779.319 63.68 779.239 63.86 779.079 64.02C778.959 64.14 778.799 64.2 778.599 64.2H771.699C771.499 64.2 771.319 64.14 771.159 64.02C771.039 63.86 770.979 63.68 770.979 63.48V61.86C770.979 60.62 770.659 59.64 770.019 58.92C769.419 58.16 768.619 57.78 767.619 57.78C766.659 57.78 765.879 58.14 765.279 58.86C764.679 59.54 764.379 60.5 764.379 61.74C764.379 62.94 764.759 64 765.519 64.92C766.279 65.84 767.779 67.12 770.019 68.76C772.499 70.6 774.359 72.1 775.599 73.26C776.879 74.38 777.859 75.64 778.539 77.04C779.259 78.4 779.619 80.04 779.619 81.96C779.619 85.48 778.539 88.28 776.379 90.36C774.219 92.44 771.379 93.48 767.859 93.48ZM806.819 79.5C806.819 79.7 806.739 79.88 806.579 80.04C806.459 80.16 806.299 80.22 806.099 80.22H792.899C792.699 80.22 792.599 80.32 792.599 80.52V82.74C792.599 83.74 792.859 84.58 793.379 85.26C793.939 85.9 794.639 86.22 795.479 86.22C796.239 86.22 796.859 85.98 797.339 85.5C797.819 84.98 798.139 84.34 798.299 83.58C798.419 83.18 798.679 82.98 799.079 82.98L805.979 83.34C806.179 83.34 806.339 83.42 806.459 83.58C806.619 83.7 806.679 83.88 806.639 84.12C806.359 87.2 805.279 89.54 803.399 91.14C801.559 92.7 798.919 93.48 795.479 93.48C791.919 93.48 789.139 92.6 787.139 90.84C785.139 89.04 784.139 86.56 784.139 83.4V71.76C784.139 68.72 785.139 66.28 787.139 64.44C789.179 62.6 791.959 61.68 795.479 61.68C798.999 61.68 801.759 62.6 803.759 64.44C805.799 66.28 806.819 68.72 806.819 71.76V79.5ZM795.479 68.94C794.639 68.94 793.939 69.26 793.379 69.9C792.859 70.54 792.599 71.36 792.599 72.36V74.7C792.599 74.9 792.699 75 792.899 75H798.059C798.259 75 798.359 74.9 798.359 74.7V72.36C798.359 71.36 798.079 70.54 797.519 69.9C796.999 69.26 796.319 68.94 795.479 68.94ZM825.692 61.8C826.772 61.8 827.612 62 828.212 62.4C828.532 62.6 828.652 62.9 828.572 63.3L827.432 70.32C827.392 70.76 827.112 70.92 826.592 70.8C826.152 70.64 825.612 70.56 824.972 70.56C824.372 70.56 823.852 70.64 823.412 70.8C822.492 70.96 821.752 71.52 821.192 72.48C820.632 73.4 820.352 74.48 820.352 75.72V92.22C820.352 92.42 820.272 92.6 820.112 92.76C819.992 92.88 819.832 92.94 819.632 92.94H812.612C812.412 92.94 812.232 92.88 812.072 92.76C811.952 92.6 811.892 92.42 811.892 92.22V62.88C811.892 62.68 811.952 62.52 812.072 62.4C812.232 62.24 812.412 62.16 812.612 62.16H819.632C819.832 62.16 819.992 62.24 820.112 62.4C820.272 62.52 820.352 62.68 820.352 62.88V65.22C820.352 65.38 820.372 65.48 820.412 65.52C820.492 65.52 820.572 65.46 820.652 65.34C821.732 62.98 823.412 61.8 825.692 61.8ZM836.805 58.68C835.445 58.68 834.305 58.24 833.385 57.36C832.505 56.44 832.065 55.3 832.065 53.94C832.065 52.54 832.505 51.4 833.385 50.52C834.265 49.64 835.405 49.2 836.805 49.2C838.205 49.2 839.325 49.64 840.165 50.52C841.045 51.4 841.485 52.54 841.485 53.94C841.485 55.3 841.045 56.44 840.165 57.36C839.285 58.24 838.165 58.68 836.805 58.68ZM833.385 93C833.185 93 833.005 92.94 832.845 92.82C832.725 92.66 832.665 92.48 832.665 92.28V62.88C832.665 62.68 832.725 62.52 832.845 62.4C833.005 62.24 833.185 62.16 833.385 62.16H840.405C840.605 62.16 840.765 62.24 840.885 62.4C841.045 62.52 841.125 62.68 841.125 62.88V92.28C841.125 92.48 841.045 92.66 840.885 92.82C840.765 92.94 840.605 93 840.405 93H833.385ZM869.13 79.5C869.13 79.7 869.05 79.88 868.89 80.04C868.77 80.16 868.61 80.22 868.41 80.22H855.21C855.01 80.22 854.91 80.32 854.91 80.52V82.74C854.91 83.74 855.17 84.58 855.69 85.26C856.25 85.9 856.95 86.22 857.79 86.22C858.55 86.22 859.17 85.98 859.65 85.5C860.13 84.98 860.45 84.34 860.61 83.58C860.73 83.18 860.99 82.98 861.39 82.98L868.29 83.34C868.49 83.34 868.65 83.42 868.77 83.58C868.93 83.7 868.99 83.88 868.95 84.12C868.67 87.2 867.59 89.54 865.71 91.14C863.87 92.7 861.23 93.48 857.79 93.48C854.23 93.48 851.45 92.6 849.45 90.84C847.45 89.04 846.45 86.56 846.45 83.4V71.76C846.45 68.72 847.45 66.28 849.45 64.44C851.49 62.6 854.27 61.68 857.79 61.68C861.31 61.68 864.07 62.6 866.07 64.44C868.11 66.28 869.13 68.72 869.13 71.76V79.5ZM857.79 68.94C856.95 68.94 856.25 69.26 855.69 69.9C855.17 70.54 854.91 71.36 854.91 72.36V74.7C854.91 74.9 855.01 75 855.21 75H860.37C860.57 75 860.67 74.9 860.67 74.7V72.36C860.67 71.36 860.39 70.54 859.83 69.9C859.31 69.26 858.63 68.94 857.79 68.94ZM884.464 93.42C881.064 93.42 878.344 92.62 876.304 91.02C874.304 89.38 873.304 87.2 873.304 84.48V84.06C873.304 83.86 873.364 83.7 873.484 83.58C873.644 83.42 873.824 83.34 874.024 83.34H880.624C880.824 83.34 880.984 83.42 881.104 83.58C881.264 83.7 881.344 83.86 881.344 84.06V84.24C881.344 85.08 881.644 85.78 882.244 86.34C882.844 86.86 883.584 87.12 884.464 87.12C885.264 87.12 885.884 86.9 886.324 86.46C886.804 85.98 887.044 85.38 887.044 84.66C887.044 83.78 886.664 83.1 885.904 82.62C885.144 82.1 884.284 81.68 883.324 81.36C882.404 81 881.764 80.76 881.404 80.64C879.204 79.84 877.344 78.74 875.824 77.34C874.344 75.9 873.604 73.84 873.604 71.16C873.604 68.24 874.564 65.94 876.484 64.26C878.404 62.58 880.964 61.74 884.164 61.74C887.484 61.74 890.104 62.62 892.024 64.38C893.984 66.14 894.964 68.52 894.964 71.52C894.964 71.72 894.884 71.9 894.724 72.06C894.604 72.18 894.444 72.24 894.244 72.24H887.824C887.624 72.24 887.444 72.18 887.284 72.06C887.164 71.9 887.104 71.72 887.104 71.52V71.04C887.104 70.24 886.844 69.6 886.324 69.12C885.844 68.6 885.204 68.34 884.404 68.34C883.564 68.34 882.904 68.62 882.424 69.18C881.944 69.7 881.704 70.32 881.704 71.04C881.704 72 882.104 72.76 882.904 73.32C883.744 73.84 885.004 74.42 886.684 75.06C888.404 75.7 889.864 76.36 891.064 77.04C892.304 77.68 893.364 78.62 894.244 79.86C895.124 81.06 895.564 82.58 895.564 84.42C895.564 87.18 894.544 89.38 892.504 91.02C890.504 92.62 887.824 93.42 884.464 93.42Z" fill="white"/>
<rect x="407" y="127.5" width="215" height="1" rx="0.5" fill="url(#paint0_linear_11_92)"/>
<path fill-rule="evenodd" clip-rule="evenodd" d="M672 128.995C672 129.751 671.376 130.437 670.544 130.506C670.544 130.46 670.521 130.437 670.475 130.437L668.049 138.469L636.783 139.224L633.941 131.261C633.802 131.352 633.664 131.398 633.525 131.398C632.693 131.398 632 130.78 632 129.957C632 129.133 632.624 128.446 633.456 128.446C634.218 128.446 634.912 129.064 634.981 129.888C634.981 130.506 634.565 131.055 634.08 131.261C634.634 131.741 637.061 133.595 640.943 133.114C645.31 132.497 651.133 124.327 651.827 115.952C650.995 115.952 650.371 115.334 650.371 114.51C650.302 113.755 650.995 113.069 651.757 113C652.589 113 653.282 113.618 653.282 114.442C653.352 115.265 652.728 115.883 651.896 115.952C653.005 124.259 659.244 132.153 663.681 132.565C667.355 132.84 669.643 131.055 670.336 130.437C669.643 130.368 669.088 129.751 669.019 129.064C669.019 128.24 669.643 127.554 670.475 127.554C671.307 127.554 672 128.172 672 128.995ZM668.257 140.46V140.941C668.257 141.215 668.049 141.421 667.771 141.421L637.338 142.176C637.061 142.176 636.853 141.97 636.853 141.696V141.215C636.853 140.941 637.061 140.735 637.338 140.735L667.771 139.979C668.049 139.979 668.257 140.185 668.257 140.46ZM668.326 141.97C668.326 142.108 668.187 142.245 667.979 142.245L637.199 143C637.061 143 636.922 142.863 636.853 142.725C636.853 142.588 636.991 142.451 637.199 142.451L667.979 141.696C668.118 141.696 668.257 141.764 668.326 141.97ZM668.257 139.224C668.257 139.362 668.118 139.499 667.91 139.568L637.13 140.323C636.991 140.323 636.853 140.185 636.783 139.979C636.783 139.842 636.922 139.705 637.13 139.705L667.91 138.95C668.049 138.95 668.187 139.087 668.257 139.224ZM659.938 129.476C659.938 129.476 662.364 126.593 662.988 123.503C662.225 123.503 661.601 122.886 661.532 122.13C661.532 121.307 662.156 120.62 662.988 120.62C663.82 120.62 664.513 121.238 664.513 122.062C664.513 122.817 663.889 123.503 663.057 123.503C663.057 123.503 663.034 123.503 662.988 123.503C663.127 124.327 663.612 129.27 665.622 131.741C665.622 131.741 661.879 132.016 659.938 129.476ZM667.91 133.595C667.91 133.595 666.801 134.762 665.692 135.105C664.513 135.38 662.156 135.723 661.74 137.508L666.731 137.439L667.91 133.595ZM656.402 132.84C653.906 131.192 652.867 128.927 652.867 128.927L653.075 137.714L659.452 137.577C659.868 136.135 658.967 134.487 656.402 132.84ZM651.48 128.995C651.48 128.995 650.579 131.261 648.153 133.046C645.726 134.831 644.894 136.478 645.38 137.92L651.757 137.783L651.48 128.995ZM643.023 137.989C642.537 136.135 640.111 135.998 639.002 135.723C637.823 135.449 636.645 134.35 636.645 134.35L638.031 138.057L643.023 137.989ZM639.002 132.428C640.873 129.888 641.151 124.876 641.22 124.053C641.174 124.098 641.151 124.121 641.151 124.121C640.319 124.121 639.626 123.503 639.626 122.68C639.626 121.856 640.25 121.169 641.081 121.169C641.913 121.169 642.537 121.787 642.607 122.611C642.607 123.366 641.983 123.984 641.22 124.053C642.052 127.073 644.548 129.888 644.548 129.888C642.815 132.565 639.002 132.428 639.002 132.428Z" fill="url(#paint1_linear_11_92)"/>
<rect x="682" y="127.5" width="215" height="1" rx="0.5" fill="url(#paint2_linear_11_92)"/>
<defs>
<linearGradient id="paint0_linear_11_92" x1="516.698" y1="128.5" x2="516.698" y2="127.501" gradientUnits="userSpaceOnUse">
<stop stop-color="#C22622"/>
<stop offset="0.36" stop-color="#FF3837"/>
<stop offset="0.97" stop-color="#FFB32F"/>
<stop offset="1" stop-color="#FFB32F"/>
</linearGradient>
<linearGradient id="paint1_linear_11_92" x1="652.409" y1="143.014" x2="652.409" y2="113.027" gradientUnits="userSpaceOnUse">
<stop stop-color="#C22622"/>
<stop offset="0.36" stop-color="#FF3837"/>
<stop offset="0.97" stop-color="#FFB32F"/>
<stop offset="1" stop-color="#FFB32F"/>
</linearGradient>
<linearGradient id="paint2_linear_11_92" x1="791.698" y1="128.5" x2="791.698" y2="127.501" gradientUnits="userSpaceOnUse">
<stop stop-color="#C22622"/>
<stop offset="0.36" stop-color="#FF3837"/>
<stop offset="0.97" stop-color="#FFB32F"/>
<stop offset="1" stop-color="#FFB32F"/>
</linearGradient>
</defs>
</svg>
